<?xml version="1.0"?>
<svg width="300" height="75" xmlns="http://www.w3.org/2000/svg" xmlns:xlink="http://www.w3.org/1999/xlink" version="1.1">
<desc>Logo of Sichuan Airlines</desc>
 <g fill="#d7000f">
   <path d="m278.789459,5.339447c-0.835205,0.313204 -1.342285,0.879945 -2.117859,2.356502c-0.760681,1.476548 -0.835266,1.536215 -2.386322,1.685357c-1.372192,0.134239 -2.535492,-0.104406 -3.997162,-0.805388c-1.178284,-0.566764 -1.208069,-0.581673 -1.879272,-0.372862c-0.820282,0.238626 -1.2677,0.671153 -1.148407,1.103681c0.044708,0.164059 -0.059631,0.924702 -0.208771,1.685343c-0.164093,0.745735 -0.357971,1.879263 -0.447418,2.490757c-0.089508,0.611494 -0.313232,1.506373 -0.492249,1.968723l-0.343018,0.850142l0.730804,0.626411l0.745697,0.626406l1.968781,-0.790462c1.073853,-0.432528 1.96875,-0.820305 1.998566,-0.835216c0.029785,-0.014935 0.149109,-0.492196 0.283356,-1.058954c0.283417,-1.237904 1.05899,-2.953087 1.610809,-3.53476c0.835266,-0.850131 2.386292,-1.223 3.460205,-0.820311c0.223694,0.074575 0.865082,0.656248 1.431824,1.267749c1.16333,1.252831 1.342255,1.297565 3.012695,0.879964c0.969482,-0.253558 1.446777,-0.551851 3.057556,-1.983653l1.058899,-0.924702l1.670441,0c2.997864,0 4.563904,0.522017 5.682495,1.894153c0.611511,0.730821 0.686096,0.909789 0.686096,1.551127c0,0.700979 -0.029877,0.760645 -0.671204,1.208085c-0.372833,0.268467 -0.671173,0.522008 -0.671173,0.596581c0,0.208809 0.700989,0.581676 1.81958,0.969451c2.207397,0.760647 4.44458,0.402704 5.563202,-0.894881c0.671143,-0.775553 0.745728,-1.193166 0.387756,-2.237188c-0.90979,-2.62497 -2.759216,-4.355066 -5.488556,-5.115711c-0.656189,-0.193901 -1.938934,-0.268473 -5.339478,-0.357957c-2.460907,-0.059662 -4.772675,-0.164059 -5.145508,-0.223719c-0.462311,-0.089485 -0.879974,-0.298293 -1.342346,-0.715908c-1.267761,-1.103688 -2.431061,-1.476554 -3.490021,-1.088759l0,0.000001z"/>
   <path d="m182.962906,5.503507c-0.283356,0.134233 -0.820297,0.477262 -1.178238,0.775553l-0.656235,0.536923l0.104385,6.055358c0.104401,6.786157 0.178986,5.921102 -1.282684,17.390458c-0.596558,4.683197 -0.61145,4.832344 -0.521973,8.053902c0.104355,3.668991 0.283371,5.533321 0.611481,6.487862c0.32811,0.939629 1.416901,2.803963 1.953812,3.385616c0.790466,0.820313 0.969452,0.715908 2.296875,-1.327389c1.879227,-2.848705 2.147736,-3.84798 2.162582,-7.800354c0,-2.013477 -0.059616,-2.982933 -0.253494,-3.877811c-0.298309,-1.357224 -1.014252,-7.845083 -1.118622,-10.231432c-0.089493,-1.819593 0.238663,-4.399815 0.715881,-5.757057c0.313202,-0.879953 0.358002,-1.789759 0.447464,-10.544642c0,-0.850128 -0.059677,-1.178262 -0.417603,-1.849422c-0.223709,-0.447437 -0.596634,-0.954538 -0.805405,-1.103683c-0.522018,-0.387781 -1.431778,-0.477262 -2.058228,-0.19388l0,-0.000002l0,0.000001l0,-0.000002l0,0.000002z"/>
   <path d="m232.71817,5.637739c-1.327469,0.47726 -2.04335,1.431803 -2.04335,2.729367c0,0.924721 0.477264,1.953815 1.46167,3.132071c0.432526,0.507103 0.775558,0.984361 0.775558,1.058935c0,0.134239 -2.759247,0.328131 -4.683228,0.328131c-1.178253,0 -1.580933,0.178967 -1.953796,0.894882c-0.492142,0.93961 -0.238678,2.162622 0.596558,2.863604c0.596619,0.522015 3.490036,1.193169 3.848053,0.89488c0.208771,-0.178972 3.683853,-0.984362 5.175278,-1.208084c1.595901,-0.253542 4.519196,0.01491 7.129227,0.656248l2.252136,0.551834l0.447433,-0.343031c0.596619,-0.432526 1.118591,-1.50639 0.999252,-2.013477c-0.164017,-0.611513 -1.073822,-1.491459 -2.013474,-1.909076l-0.879959,-0.387783l-3.251404,0.14915c-1.774841,0.074575 -3.296127,0.104396 -3.355728,0.05966c-0.328156,-0.193892 -0.119324,-1.461637 0.417603,-2.65481c0.402649,-0.894877 0.551804,-1.416892 0.551804,-2.013473c0.014938,-0.760643 -0.014923,-0.82031 -0.656219,-1.387072c-0.83522,-0.74573 -1.774857,-1.222993 -2.803955,-1.446713c-0.999298,-0.208807 -1.312531,-0.193896 -2.013458,0.044754l0,0.000001l0,0l0,0.000001l0,0.000001z"/>
   <path d="m217.16217,6.323808c-0.551804,0.223722 -1.058914,0.999273 -1.327408,2.043298c-0.611481,2.311769 -2.296829,4.534056 -4.36998,5.712312c-0.790451,0.447442 -0.939636,0.611498 -1.148468,1.193172c-0.208771,0.62641 -0.193832,0.835217 0.14917,3.012751c0.193909,1.297583 0.477341,2.818874 0.611465,3.400545c0.238678,0.939613 0.238678,1.208084 0.0746,2.192448c-0.25354,1.506371 -0.25354,1.506371 -0.969421,1.685352c-1.178253,0.298298 -2.744293,0.924706 -2.982941,1.178265c-0.641312,0.715887 -0.089493,1.461622 1.879272,2.565313c2.281921,1.282648 2.266998,1.252829 2.162582,3.713743c-0.164093,3.982197 -1.789719,8.4715 -4.668243,12.87133l-0.954559,1.461628l0.328171,0.283386c0.193863,0.164055 0.387711,0.283382 0.462296,0.298286c0.387772,0.014915 2.341599,-1.178261 2.968033,-1.819576c1.372162,-1.416889 3.370712,-4.683201 4.29538,-7.05463c0.77562,-1.98365 1.521332,-3.50494 1.730103,-3.50494c0.119339,0 0.77562,0.268456 1.476593,0.596588c1.058914,0.477261 1.342285,0.55183 1.566025,0.417595c0.641342,-0.402687 0.775543,-1.566032 0.357941,-3.1619c-0.387772,-1.536215 -1.103668,-2.177526 -2.624939,-2.401247c-0.924728,-0.134235 -1.357254,-0.596592 -1.372162,-1.476559c-0.014954,-0.357954 0.029831,-0.700974 0.07457,-0.745728c0.074585,-0.089485 1.909073,0.044754 4.578766,0.298292c0.73085,0.074577 0.790466,0.11932 1.014206,0.626406c0.671127,1.610786 0.820313,2.565329 0.820313,5.249964c0,2.863602 -0.268463,4.877087 -0.73082,5.503506c-0.43251,0.611496 -1.536179,1.282654 -2.863602,1.745003l-1.208069,0.432526l0.089432,1.789761c0.164078,2.744293 0.686111,3.475117 2.580246,3.624264c1.029144,0.059647 1.073883,0.059647 1.804703,-0.477276c0.954544,-0.700981 2.073135,-2.35651 2.699524,-3.997135c0.268448,-0.686066 0.507095,-1.267738 0.536942,-1.297562c0.029831,-0.029827 0.313187,0.178967 0.641296,0.477261c0.328171,0.283382 0.760651,0.641335 0.969467,0.775574c0.372879,0.238632 0.40271,0.238632 1.058929,-0.149143c1.416901,-0.820309 3.311096,-3.072418 4.01207,-4.77269c0.611465,-1.461636 1.49144,-6.965143 1.759949,-11.111401c0.178925,-2.61006 0.208786,-2.774118 0.566711,-3.176823c0.298309,-0.328114 0.581696,-0.447437 1.342331,-0.58168c1.16333,-0.178965 1.715195,-0.014908 1.953796,0.58168c0.223694,0.536922 -0.104401,7.263432 -0.387756,8.322369c-0.596619,2.147717 -0.760651,6.756321 -0.313202,8.635578c0.745728,3.132069 4.369965,5.906193 7.681015,5.906193c0.969482,0 2.669693,-0.492191 4.012024,-1.148415c1.521271,-0.745743 1.625748,-3.355816 0.193924,-4.563896c-0.879974,-0.745735 -2.565338,-0.745735 -3.519836,-0.014912c-0.477264,0.357948 -0.715912,0.432529 -1.431824,0.432529c-0.641357,0 -0.969421,-0.074581 -1.282669,-0.31321c-0.984329,-0.715908 -1.580948,-2.580238 -2.073135,-6.293983c-0.238617,-1.849419 -0.238617,-2.073139 0,-3.728657c0.134247,-0.954544 0.47728,-2.684631 0.760635,-3.833054c0.268494,-1.148439 0.641357,-3.057497 0.83522,-4.235756c0.402695,-2.52058 0.462357,-2.386341 -1.342316,-2.789032c-1.029083,-0.223719 -1.401962,-0.238647 -4.19104,-0.044754c-1.685303,0.104397 -3.758438,0.178967 -4.623505,0.149151c-1.521271,-0.029823 -1.580933,-0.029823 -1.938889,0.357954l-0.357971,0.38777l0.417603,1.19318c0.402695,1.133509 0.432556,1.31249 0.343079,2.789024c-0.089508,1.670448 -0.372864,3.266314 -1.237915,6.965145c-0.969467,4.16119 -1.879227,6.35363 -3.191772,7.710854c-0.402649,0.417622 -0.775558,0.730827 -0.805374,0.701008c-0.044754,-0.044758 0,-2.490761 0.089539,-5.443844l0.17894,-5.384201l1.759888,-1.148417c1.580978,-1.029116 1.759964,-1.193171 1.759964,-1.58095c0,-0.402702 -0.134262,-0.507097 -1.506378,-1.223013l-1.491501,-0.790462l0.089508,-0.522009c0.432526,-2.729387 0.835205,-6.681767 0.790466,-7.845095c-0.044754,-1.237927 -0.104416,-1.446731 -0.566772,-2.222287c-0.507065,-0.835216 -0.58165,-0.894876 -2.192413,-1.655524l-1.670441,-0.790481l-0.238678,-0.790483c-0.134186,-0.432508 -0.32811,-1.401962 -0.447388,-2.162622c-0.238647,-1.580945 -0.477264,-2.117871 -1.148453,-2.624972c-0.536896,-0.402689 -1.774811,-0.611497 -2.296844,-0.402689l0,0.000003l0,0.000002l0,-0.000002zm2.32666,9.068091c0.626434,0.313219 1.3125,1.476555 1.864365,3.221579c0.357941,1.103662 0.656219,3.534758 0.671143,5.324512l0,0.700979l-0.999268,0.253561c-1.029129,0.25354 -1.610809,0.507105 -2.356506,1.044025c-0.343018,0.238634 -0.656235,0.283384 -1.700302,0.283384c-0.700974,0 -1.431778,-0.08951 -1.610779,-0.193897c-0.536896,-0.28339 -0.775543,-0.924707 -1.073822,-2.878534c-0.372864,-2.550398 -0.253525,-6.59226 0.223679,-7.233603c0.507126,-0.671153 0.879974,-0.790463 2.744339,-0.790463c1.342316,0 1.834503,0.059661 2.237152,0.268456l0,0.000001l0,0.000001z"/>
   <path d="m216.476105,19.702229c-0.238647,0.596592 -0.343079,3.654089 -0.119324,4.056793c0.298279,0.581657 1.029083,0.909792 2.028397,0.909792c0.492172,0 1.014206,-0.089487 1.148422,-0.193899c0.313232,-0.238634 0.671173,-1.267746 0.790451,-2.281931l0.104477,-0.805393l-0.581696,-0.223719c-1.401993,-0.551853 -2.013474,-0.894876 -2.460968,-1.357231c-0.596542,-0.611511 -0.68605,-0.626423 -0.90976,-0.104412z"/>
   <path d="m116.801613,8.247797c-0.16407,0.07458 -0.909798,0.14915 -1.670433,0.14915c-1.16333,0.014911 -1.536247,0.089488 -2.5355,0.47726c-0.641312,0.253544 -1.700272,0.581676 -2.356506,0.700981c-0.656265,0.134238 -1.491478,0.417622 -1.864349,0.62643c-0.775551,0.462348 -3.445297,1.25283 -5.041107,1.476544c-0.596596,0.089491 -1.610825,0.164062 -2.252129,0.164062c-0.656227,0 -2.102974,0.104393 -3.236481,0.223718c-2.863594,0.328113 -3.072426,0.447434 -3.743568,2.311764c-0.760635,2.088053 -1.088799,3.266315 -1.088799,3.997116c0,0.357958 -0.10437,1.118597 -0.238617,1.68536c-0.178993,0.820305 -0.223694,1.610785 -0.178993,3.534765c0.059662,2.192457 0.119339,2.610062 0.447487,3.534777c0.208786,0.566746 0.492142,1.879242 0.626389,2.87851c0.193916,1.416891 0.343033,2.043316 0.686058,2.729393c0.283417,0.55183 0.447449,1.103683 0.447449,1.491459c0,0.939632 0.775551,2.416164 1.938881,3.639175c0.969475,1.02911 1.088806,1.252838 1.402008,2.759205c0.044739,0.208809 0.357941,0.686073 0.68605,1.073841c0.73085,0.850151 1.491501,1.133514 2.207382,0.820313c0.850136,-0.35796 2.102966,-2.490738 2.14772,-3.668999c0.044754,-1.014202 -0.238655,-3.191738 -0.551857,-4.19101c-0.193871,-0.611496 -0.626389,-1.759933 -0.954552,-2.535488c-0.32811,-0.775568 -0.611473,-1.61079 -0.611473,-1.834507c0,-0.223715 -0.16404,-0.730816 -0.357956,-1.118599c-0.536934,-1.073839 -0.82029,-2.073137 -0.954536,-3.385618c-0.074539,-0.671152 -0.25354,-1.416883 -0.387787,-1.670443c-0.17894,-0.357941 -0.238609,-0.879951 -0.238609,-1.983637c0,-1.804667 0.193855,-2.177532 1.506355,-2.83378c0.447449,-0.238632 1.163338,-0.686069 1.566032,-0.99929c0.402695,-0.313204 1.416908,-0.909786 2.267044,-1.327385l1.536194,-0.760662l0.104416,0.462368c0.044701,0.253536 0.0895,0.492174 0.074585,0.536922c-0.014908,0.059664 -0.134254,0.850126 -0.268501,1.789755c-0.208778,1.566036 -0.26844,1.759911 -0.805374,2.446005c-0.805397,1.073853 -0.909821,1.327391 -0.909821,2.102962c0,2.878511 1.029137,4.951653 2.893448,5.831617c0.507111,0.253542 0.536942,0.253542 0.850136,-0.029821c0.447449,-0.402708 1.580948,-2.013475 1.774857,-2.53549c0.089508,-0.238647 0.238617,-0.790482 0.32811,-1.237925c0.074585,-0.447435 0.313202,-1.073849 0.522034,-1.416887c0.22374,-0.343048 0.611526,-1.088776 0.865044,-1.655525c0.536903,-1.163343 1.178253,-1.774845 2.043312,-1.9389c0.47728,-0.089481 0.566727,-0.05966 0.820297,0.328121c0.149178,0.223715 0.56678,0.700993 0.939598,1.029104l0.671188,0.626411l0.044746,1.73011c0.059662,1.745008 -0.178993,3.206648 -0.656273,4.131344c-0.25354,0.492197 -3.683868,3.803238 -4.548973,4.384911c-0.820297,0.55183 -2.982887,2.714455 -3.833023,3.818142c-0.626442,0.820305 -1.372162,2.66972 -1.372162,3.370705c0,0.462345 0.536934,1.521305 0.954544,1.849415c0.16404,0.149143 0.536903,0.313206 0.790474,0.372868c0.268456,0.044746 0.939636,0.387775 1.491463,0.730827c0.566765,0.357948 1.58094,0.835217 2.267044,1.058929c1.208084,0.40271 1.297531,0.40271 2.505669,0.223721c1.43177,-0.208809 2.192459,-0.462349 3.251373,-1.133507c0.984344,-0.626431 3.445259,-2.013481 3.564583,-2.013481c0.059669,0 0.357956,0.178967 0.68605,0.387779c0.522034,0.34304 0.730865,0.387783 1.909119,0.387783c0.894882,0 1.461617,-0.074581 1.759888,-0.223724c0.507111,-0.268456 3.191765,-2.207352 4.191002,-3.057503c0.402695,-0.313202 1.014206,-0.73082 1.387085,-0.924698c0.372864,-0.178986 0.820297,-0.477283 1.014221,-0.65625c0.193863,-0.164063 0.790421,-0.611496 1.342285,-0.984364c0.805374,-0.551849 1.044037,-0.790482 1.252808,-1.342316c0.149185,-0.372868 0.432541,-1.103691 0.656235,-1.640614c0.730865,-1.804661 0.805435,-2.296852 0.805435,-5.070969c0,-1.834513 -0.089508,-3.17683 -0.298325,-4.548969c-0.432526,-2.833784 -0.536896,-3.221556 -1.536194,-5.563168c-0.879959,-2.058206 -0.954559,-2.177528 -2.252121,-3.579511c-0.745743,-0.790465 -1.491455,-1.610771 -1.655487,-1.819575c-1.118622,-1.416895 -4.936729,-3.325972 -7.830215,-3.922562c-1.372116,-0.283381 -4.593674,-0.447434 -4.996376,-0.268456l0,0.000003l0,0.000002l0,0.000003l0,0.000002zm4.190979,3.311046c2.624992,1.163352 4.340179,2.237192 7.412605,4.66829c2.505615,1.983635 3.340881,3.877806 3.490021,7.860004c0.104416,2.83378 -0.134262,4.116434 -1.178268,6.174662c-1.610779,3.19173 -2.550415,4.131344 -4.742805,4.78759c-0.686111,0.208805 -2.401299,1.222996 -2.595169,1.536217c-0.059677,0.089489 -0.328117,0.268452 -0.611534,0.372868c-0.492134,0.20879 -0.492134,0.20879 -1.252823,-0.522011c-0.477226,-0.462368 -0.894882,-0.730827 -1.118591,-0.730827c-0.193863,0 -0.611526,-0.104408 -0.924713,-0.238625c-0.715897,-0.298294 -1.774811,-0.178989 -3.251389,0.343021c-1.029083,0.372868 -1.789772,0.477283 -1.983627,0.283386c-0.372871,-0.372868 3.325958,-5.130642 6.159729,-7.91967c1.819611,-1.789757 1.923981,-2.043325 1.819611,-4.399822l-0.074577,-1.566036l-0.820313,-1.416893c-0.447441,-0.775566 -1.088799,-1.923988 -1.431816,-2.535484c-0.43248,-0.820305 -0.850136,-1.327408 -1.461617,-1.819595l-0.83522,-0.671165l-1.297577,0.462379c-0.760651,0.268448 -1.968735,0.894875 -2.908363,1.491463c-1.387039,0.87995 -2.624992,1.416887 -3.385635,1.431801c-0.178947,0 -0.432518,-1.730093 -0.432518,-3.012766l0,-1.31248l0.64135,-0.402704c1.670441,-1.058933 5.563141,-2.669709 7.487152,-3.102238c1.476524,-0.328131 2.162582,-0.268467 3.296089,0.238632l0,0.000001l0,0.000003l0,0.000001l0,-0.000001z"/>
   <path d="m159.33812,8.799634c-0.68605,0.462352 -1.670395,1.923994 -1.983643,2.953102c-0.313202,1.058935 -0.432526,3.89272 -0.223694,5.757045c0.268509,2.371437 -0.134247,8.516262 -0.745773,11.543934c-0.462296,2.281931 -2.341537,7.770519 -3.012726,8.784706c-0.894897,1.327404 -1.148407,2.013477 -1.148407,3.057495c0,1.491467 0.626419,2.610065 1.938873,3.460213c1.3125,0.835213 1.506363,0.641335 2.893463,-2.908352c2.744263,-7.069542 3.311035,-8.784725 3.519867,-10.857864c0.17894,-1.774841 0.536896,-3.132074 1.014175,-3.803232c0.566711,-0.790462 0.715881,-2.550398 0.641296,-7.740698c-0.044708,-2.475826 -0.014862,-2.774118 0.253586,-3.35579c0.641296,-1.327385 0.924713,-2.237195 0.924713,-2.938175c0,-0.626405 -0.089493,-0.850127 -0.65625,-1.625696c-0.372879,-0.492174 -0.835236,-1.163334 -1.044022,-1.506376c-0.32811,-0.522015 -1.297592,-1.208082 -1.685364,-1.208082c-0.074585,0 -0.387772,0.178967 -0.686096,0.387777l0,-0.000002l0,0l0,-0.000003l0,-0.000001z"/>
   <path d="m172.134872,13.288936c-0.969406,1.014201 -1.118576,1.64061 -1.282608,5.115729c-0.164093,3.743567 -0.492203,5.592989 -1.118637,6.29397c-0.178955,0.178986 -0.208786,0.387779 -0.149155,0.745733c0.059692,0.268465 0.149155,1.95381 0.208817,3.728653c0.104416,3.146986 0.119339,3.236483 0.462357,3.609354c0.283356,0.313198 0.507126,0.387775 1.043991,0.387775l0.686111,0l0.775574,-1.610786c0.68605,-1.431801 0.775543,-1.730095 0.850128,-2.863604c0.119324,-1.640612 0.372879,-3.027678 1.029083,-5.518415c0.745789,-2.774115 0.999298,-4.384911 0.999298,-6.249239c-0.014923,-3.161896 -0.611465,-4.340158 -2.207321,-4.340158c-0.537003,0 -0.701035,0.089484 -1.297638,0.700979l0,0.000003l0,0.000003l0,0.000001l0,0.000001z"/>
   <path d="m274.672974,16.823717c-0.35788,0.19388 -1.342255,2.237194 -1.565979,3.221558c-0.253571,1.133511 -0.492218,4.101524 -0.343018,4.280495c0.268402,0.328127 0.790436,0.208811 1.237915,-0.253544c0.984344,-1.02911 3.758453,-2.684635 4.578705,-2.744295c0.596619,-0.044752 0.894928,-0.402687 1.029175,-1.237921c0.268463,-1.685345 0.283386,-1.670435 -1.208099,-2.565317c-1.208038,-0.715904 -1.446686,-0.805393 -2.356537,-0.865053c-0.686066,-0.029818 -1.118561,0.014933 -1.372162,0.164078z"/>
   <path d="m286.903046,19.597834c-0.447449,1.789757 -0.611481,2.699547 -0.551849,3.132071c0.104401,0.760651 0.596588,1.804676 1.163391,2.401258c0.432465,0.462351 0.432465,0.462351 1.759857,0.402685c1.267792,-0.044733 1.372162,-0.074574 2.192474,-0.641317c0.462341,-0.328123 1.058899,-0.850142 1.297607,-1.148443c0.879883,-1.103664 0.641266,-2.893415 -0.611572,-4.489292c-0.507019,-0.671162 -0.700958,-0.775553 -2.416138,-1.446716c-1.029083,-0.402708 -1.938904,-0.730822 -2.028381,-0.745729c-0.089508,0 -0.447449,1.133511 -0.805389,2.535486l0,-0.000002z"/>
   <path d="m276.701447,29.232691c-1.3125,0.477255 -2.326752,1.789745 -2.326752,3.02767c0,0.984364 0.372894,1.118595 3.161926,1.148418c2.550415,0.029823 3.042603,0.149143 3.370697,0.835217c0.268494,0.566765 0.253571,2.89344 -0.044708,4.578808c-0.134216,0.775551 -0.29834,1.938896 -0.343048,2.610058c-0.134247,1.491463 -0.25354,1.580948 -2.207336,1.580948c-1.088776,0 -1.804688,-0.119324 -3.728668,-0.596581c-2.923279,-0.745739 -3.236511,-0.730827 -3.892761,0.119301c-0.700958,0.924717 -0.865021,1.759933 -0.805328,4.220848l0.014862,0.835217l1.014252,0.447445c1.759918,0.77557 2.17749,0.835224 5.070923,0.745731c1.446777,-0.059643 2.938171,-0.164063 3.311066,-0.253548c1.446716,-0.343044 3.788361,-0.596584 6.786133,-0.745728c3.296173,-0.149143 3.624237,-0.208809 4.69809,-0.745731c1.580963,-0.790485 2.237244,-1.685368 2.267059,-3.057503c0.014923,-1.058937 -0.715851,-1.670448 -2.565308,-2.207375c-0.939636,-0.268448 -1.804688,-0.149143 -3.594421,0.536926c-1.044006,0.402702 -3.042603,0.760654 -3.803192,0.671158l-0.44754,-0.044731l1.924011,-4.996407c1.05896,-2.744289 1.968781,-5.235031 1.998566,-5.518417c0.074585,-0.626421 -0.372864,-1.387062 -1.148376,-1.909081c-0.536957,-0.372862 -0.611511,-0.372862 -2.32666,-0.089481c-0.522034,0.074572 -0.820343,0 -2.252136,-0.671154c-1.446747,-0.671164 -1.745026,-0.760647 -2.595184,-0.745733c-0.522003,0 -1.223022,0.104393 -1.536163,0.223722l0,0.000002z"/>
   <path d="m221.532196,55.124489c0.059616,0.760658 0.104355,4.026951 0.119293,7.233589l0,5.861465l2.147705,0l2.147705,0l-0.089493,-0.865059c-0.059662,-0.462357 -0.149109,-2.982925 -0.193863,-5.592987l-0.104416,-4.727932l1.148422,0c1.342331,0 2.356506,0.223721 2.699524,0.596584c0.417618,0.462353 0.432571,1.20808 0.044739,1.789757c-0.402679,0.596588 -1.058899,0.879967 -2.10289,0.879967c-0.477341,0.014915 -0.730865,0.089481 -0.790558,0.223728c-0.044724,0.119297 0.626404,1.89415 1.506378,3.952374l1.595901,3.743568l2.296844,0c1.267746,0 2.296829,-0.029823 2.296829,-0.074585c0,-0.044739 -0.700928,-1.342308 -1.566025,-2.908348c-0.865005,-1.551121 -1.56604,-2.878532 -1.56604,-2.953098c0,-0.089485 0.462357,-0.522015 1.029099,-0.969452c1.297577,-1.058937 1.655594,-1.745003 1.655594,-3.176807c0,-1.700279 -0.924744,-3.266308 -2.356506,-3.967289c-0.686111,-0.328129 -0.835281,-0.343048 -5.369339,-0.387794l-4.668243,-0.05965l0.119339,1.40197z"/>
   <path d="m236.014252,60.195457c0.014923,3.549686 0.074585,6.68177 0.119339,6.950241c0.044739,0.298286 0.223694,0.58165 0.47728,0.745735c0.343033,0.223709 0.879944,0.253525 5.324509,0.253525l4.921844,0l0.044754,-1.610779l0.044678,-1.595848l-3.102203,0c-1.700287,0 -3.191727,-0.059669 -3.296097,-0.134247c-0.164078,-0.089485 -0.208832,-1.222992 -0.208832,-5.592983l-0.014893,-5.458752l-2.177567,0l-2.177551,0l0.044739,6.443108z"/>
   <path d="m248.647003,60.985947l0,7.233597l2.162567,0l2.177551,0l-0.014908,-7.233597l0,-7.233597l-2.162643,0l-2.162567,0l0,7.233597z"/>
   <path d="m255.388367,60.941196l0.059662,7.203762l1.938995,0.044762l1.938843,0.044746l-0.089478,-1.461632c-0.178955,-2.759216 -0.164032,-6.801086 0.014923,-6.860737c0.089417,-0.029842 0.387756,0.298294 0.671143,0.730801c0.268494,0.432533 1.222961,1.924 2.102936,3.296154c0.879974,1.372135 1.819641,2.90836 2.058228,3.400524l0.462372,0.879967l2.490723,-0.029823l2.490784,-0.044762l0,-0.641327c-0.014923,-0.343025 -0.029846,-3.579506 -0.044769,-7.188843l-0.029846,-6.562439l-1.953796,0l-1.938873,0l0.089447,1.968723c0.044769,1.088772 0.104401,3.057503 0.119324,4.369987c0.029846,1.968727 0,2.386349 -0.178925,2.386349c-0.119385,0 -1.282684,-1.879246 -2.684692,-4.355064l-2.4758,-4.369995l-2.550354,0l-2.550522,0l0.059677,7.188847z"/>
   <path d="m272.077911,54.155045c0.059662,0.223717 0.119293,3.475105 0.119293,7.233585l0.014923,6.830914l5.488556,0l5.473633,0l0,-1.536217l0,-1.521294l-3.355743,0.059677l-3.355804,0.044724l0,-1.357224l0,-1.357227l2.833801,0l2.83374,0l0,-1.416897c0,-0.775551 0,-1.461639 0,-1.536217c0,-0.059647 -1.252747,-0.104389 -2.803925,-0.104389l-2.789032,0l-0.044769,-1.372135l-0.044708,-1.357243l1.01413,-0.119308c0.55191,-0.059666 2.073181,-0.059666 3.370789,0l2.341522,0.089481l0,-1.491467l0,-1.491459l-5.592926,0l-5.593018,0l0.089539,0.402695z"/>
   <path d="m288.737549,53.976063c-1.088806,0.29829 -1.924042,0.894882 -2.401306,1.700272c-0.328094,0.566746 -0.402679,0.86504 -0.402679,1.745014c0,1.491463 0.402679,2.088051 2.953125,4.280502c2.47583,2.13279 2.72937,2.669708 1.491486,3.191727c-0.760681,0.313217 -2.207397,0.178978 -3.519897,-0.31321l-0.999298,-0.372864l0,1.700264c0,1.968727 -0.25351,1.74501 2.311798,2.102959c3.117157,0.417633 4.683197,0.149147 6.040405,-1.073837c0.80545,-0.730827 1.178253,-1.551125 1.193146,-2.565331c0,-1.476536 -0.656189,-2.460918 -2.654755,-3.997108c-2.386353,-1.849422 -2.774109,-2.326679 -2.341614,-2.982929c0.283386,-0.432522 1.252869,-0.701 2.073151,-0.581676c0.656219,0.104401 2.162598,0.477264 2.550385,0.611504c0.193878,0.074562 0.223694,-0.149158 0.223694,-1.610775l0,-1.715183l-1.685333,-0.178989c-2.192444,-0.208805 -3.862915,-0.193882 -4.832306,0.059662z"/>
   <path d="m97.919701,54.050636c-2.878525,0.343048 -4.459518,2.684639 -3.355804,4.996407c0.372864,0.790478 0.93959,1.372147 2.878532,2.968021c2.043297,1.670425 2.32666,2.177525 1.595848,2.759205c-0.581688,0.462341 -2.311798,0.432526 -3.713737,-0.059669c-0.56678,-0.208809 -1.058922,-0.372856 -1.073883,-0.372856c-0.029793,0 -0.044708,0.760643 -0.044708,1.700272l0,1.685333l1.834473,0.178986c0.999313,0.104393 1.968735,0.208809 2.132813,0.25354c0.447441,0.074593 2.565323,-0.193871 3.117134,-0.417595c1.536247,-0.596581 2.46096,-1.864326 2.46096,-3.355789c0,-1.372154 -0.656273,-2.341614 -2.595154,-3.818161c-2.20739,-1.670433 -2.744331,-2.296841 -2.5355,-2.863598c0.26844,-0.700985 1.923973,-0.865067 3.788322,-0.372871c0.611481,0.164051 1.133499,0.29829 1.163338,0.29829c0.014915,0 0.029831,-0.73082 0.029831,-1.625694l0,-1.625706l-0.626434,-0.089489c-0.357956,-0.044735 -1.14843,-0.119308 -1.759941,-0.164063c-0.611481,-0.04475 -1.387032,-0.104397 -1.715149,-0.134232c-0.32811,-0.029823 -1.044052,0 -1.58094,0.059658l0,0.000004l0,0.000004l0,0.000004z"/>
   <path d="m105.988495,53.976063c0,0 0,3.191738 -0.014915,7.084454l0,7.084442l2.177551,0l2.192467,0l-0.014969,-7.084442l-0.014862,-7.084454l-2.162636,0c-1.193207,0 -2.162636,0 -2.162636,0z"/>
   <path d="m118.143906,54.140118c-1.625702,0.283379 -2.938141,0.954548 -4.026947,2.058231c-1.372116,1.387051 -1.849388,2.610065 -1.864304,4.787598c0,2.923264 1.267746,5.041153 3.758492,6.249229c1.401939,0.671158 2.401245,0.850136 5.384178,0.939613l2.789032,0.0895l0,-1.252831c0,-2.073128 0.164032,-1.923996 -2.252129,-1.923996c-2.460915,0 -3.251389,-0.223717 -4.265549,-1.22298c-0.820305,-0.805401 -1.148476,-1.759945 -1.058922,-3.012775c0.089447,-1.044022 0.387726,-1.730095 1.07383,-2.446007c0.83522,-0.90979 1.118591,-0.984352 3.847939,-1.044018l2.505669,-0.059643l-0.089447,-1.521305c-0.044807,-0.820301 -0.104424,-1.59586 -0.14917,-1.700275c-0.074577,-0.253544 -4.086609,-0.223721 -5.652672,0.059658z"/>
   <path d="m126.76461,61.090336l-0.014931,7.129208l2.147675,0l2.14772,0l0,-2.908356l0,-2.908352l2.789063,0l2.774109,0l-0.104416,2.908352l-0.104401,2.908356l2.207382,0l2.207382,0l0.014862,-7.129208l0.014908,-7.114273l-2.162582,0l-2.162628,0l0.029831,2.639889l0.029785,2.654812l-2.789017,0l-2.774109,0l0.104401,-2.654812l0.104416,-2.639889l-2.207382,0l-2.222237,0l-0.029831,7.114273z"/>
   <path d="m143.260132,54.005898c0,0.074562 -0.014862,2.475834 -0.014862,5.369263l-0.014908,5.249962l0.402679,0.835213c0.700974,1.431793 2.475845,2.341591 5.085861,2.610062c3.624298,0.372871 6.786118,-0.641342 7.695953,-2.490738c0.357925,-0.715912 0.357925,-0.775574 0.40274,-6.204498l0.044739,-5.47366l-2.177551,0l-2.162628,0l0,3.534756c0,4.176094 -0.164047,6.055359 -0.566788,6.59227c-0.521957,0.715897 -1.029083,0.96946 -1.864304,0.96946c-1.073837,0 -1.834488,-0.40271 -2.237213,-1.163342c-0.313202,-0.581676 -0.32811,-0.805393 -0.372849,-5.279793l-0.059631,-4.653347l-2.073135,0c-1.13356,0 -2.073181,0.044746 -2.088104,0.104397l0,-0.000004z"/>
   <path d="m160.874359,60.941196c-1.745026,3.877796 -3.206635,7.099377 -3.236465,7.173946c-0.044769,0.059647 0.999252,0.089485 2.296829,0.074577l2.356552,-0.044762l0.760635,-2.013466l0.775558,-2.013474l2.595154,0l2.5802,0l0.686066,2.013474l0.686111,2.013466l2.281906,0.044762c2.117889,0.029823 2.267044,0.014908 2.192459,-0.223717c-0.089508,-0.34304 -5.458755,-13.453014 -5.637711,-13.810959c-0.134247,-0.223732 -0.417618,-0.253544 -2.639908,-0.253544l-2.505661,0l-3.191727,7.0397l0,-0.000004l0,-0.000004l0,0.000004zm6.562439,-1.506378c0.253555,0.790485 0.447433,1.506378 0.447433,1.610783c0,0.104404 -0.462341,0.16407 -1.416901,0.16407c-0.775558,0 -1.41687,-0.044758 -1.41687,-0.119335c0,-0.208782 1.223007,-3.236462 1.387024,-3.430363c0.253586,-0.31321 0.492203,0.119324 0.999313,1.774845z"/>
   <path d="m176.057449,61.015766l0.044739,7.129192l1.938904,0.044762l1.924011,0.044746l-0.119324,-2.580238c-0.164078,-3.847977 -0.134247,-5.68248 0.074585,-5.74213c0.089493,-0.029842 0.343018,0.193878 0.53688,0.507092c0.208832,0.313213 1.133499,1.774837 2.073181,3.251392c0.954514,1.476551 1.923935,3.102253 2.192444,3.609333l0.462296,0.939629l2.565338,0l2.5504,0l-0.089447,-1.237923c-0.059662,-0.671165 -0.104416,-3.892723 -0.104416,-7.159023l0,-5.921097l-1.953796,0l-1.953827,0l0.089447,1.297562c0.208847,3.102249 0.268509,7.159019 0.119354,7.263439c-0.238663,0.134228 -0.522018,-0.283386 -3.057526,-4.608627l-2.266983,-3.877808l-2.55043,-0.04475l-2.535492,-0.029812l0.059662,7.114262z"/>
   <path d="m199.428665,60.851707c-1.715195,3.818146 -3.16188,7.00988 -3.176788,7.08445c-0.044769,0.089485 0.850128,0.119331 2.296814,0.104416l2.341629,-0.044746l0.745728,-1.983658l0.745728,-1.968735l2.624985,0l2.624954,0l0.641357,2.013489l0.641296,2.013474l2.29689,0c1.2677,0 2.311737,-0.014908 2.311737,-0.044754c0,-0.014915 -1.297562,-3.191719 -2.878494,-7.039703l-2.863632,-7.009884l-2.610077,-0.029816l-2.610016,-0.044746l-3.132111,6.950207l0,0.000004l0,0.000004zm6.055328,-3.117161c0.089493,0.23864 0.328171,0.95454 0.522034,1.610786c0.193909,0.656246 0.402679,1.312504 0.447418,1.446705c0.074554,0.238651 -0.059586,0.268478 -1.401932,0.268478l-1.491501,0l0.641327,-1.655518c0.58168,-1.476551 0.894882,-2.073139 1.05896,-2.073139c0.044739,0 0.134247,0.178963 0.223694,0.402687z"/>
   <path d="m214.626678,61.060516l0,7.159027l2.162643,0l2.177551,0l0,-7.159027l0,-7.159016l-2.162659,0l-2.162628,0l-0.014908,7.159016z"/>
   <path d="m34.339794,0.682614c-4.736286,0.325554 -9.77713,1.701291 -14.030359,3.843648c-2.173868,1.081689 -4.589286,2.656952 -6.742131,4.379235c-1.396743,1.113198 -4.305729,4.032682 -5.450439,5.471426c-3.770118,4.7363 -6.322055,10.176201 -7.456233,15.857687c-0.577598,2.908964 -0.640629,3.644098 -0.640629,7.351221c0,2.761982 0.042013,3.717613 0.189046,4.725792c1.039667,7.067696 3.402583,12.654636 7.697802,18.22057c1.155197,1.491257 4.33723,4.704792 5.817972,5.881001c3.728127,2.940514 7.267238,4.851807 11.656964,6.301056c9.283558,3.077019 19.459782,2.310402 28.186741,-2.100365c5.57645,-2.814476 10.480804,-7.151684 13.98838,-12.339561c2.950974,-4.368755 4.799294,-8.916 5.754967,-14.124874c0.441101,-2.436409 0.535583,-3.570621 0.535583,-6.563618c0,-3.623104 -0.283554,-5.933496 -1.102699,-9.189049c-1.764297,-6.973167 -5.786446,-13.589288 -11.163372,-18.3571c-7.582272,-6.731628 -17.212399,-10.039683 -27.241589,-9.357069l-0.000004,0.000001zm6.521587,2.562438c4.526276,0.525085 8.937027,1.963823 12.90667,4.190201c8.852978,4.967335 15.217102,13.746826 17.075882,23.586969c0.367584,1.963831 0.409569,1.7223 -0.378036,1.869318c-2.163368,0.409573 -5.607933,2.488918 -11.730495,7.109703c-1.858829,1.396736 -4.620785,3.476082 -6.154022,4.631287c-4.452785,3.360542 -5.933529,4.25322 -8.285912,5.051323c-0.913628,0.315067 -1.302227,0.388561 -2.163361,0.420067c-0.934647,0.042027 -1.102699,0.021027 -1.522774,-0.199501c-0.661579,-0.346569 -0.892635,-0.787636 -0.882153,-1.711796c0.010506,-0.903164 0.126034,-1.302223 1.071198,-3.570602c0.892681,-2.142357 0.997677,-2.562435 0.945179,-3.497089c-0.042038,-0.88216 -0.346569,-1.344234 -1.102699,-1.7118c-0.430565,-0.220524 -0.651115,-0.252033 -1.501762,-0.241543c-0.86113,0.010509 -1.186699,0.073524 -2.310394,0.441097c-5.78647,1.858795 -10.060669,2.646427 -14.46093,2.646427c-4.032681,0 -6.941664,-0.619598 -9.955668,-2.131866c-1.564769,-0.777119 -2.793482,-1.659267 -4.190222,-3.013996c-1.858787,-1.806293 -3.035001,-3.465588 -4.2742,-6.028l-0.651115,-1.354752l0.126014,-0.640594c0.168027,-0.819128 0.871641,-2.982512 1.375722,-4.263712c3.402582,-8.495939 10.134207,-15.406104 18.514627,-19.008201c3.749126,-1.606775 7.235708,-2.415408 11.887995,-2.772476c0.955669,-0.073509 4.358246,0.052505 5.660454,0.199538l0.000004,-0.000001l0,-0.000001zm-37.218251,37.291775c2.142366,1.711777 4.620762,3.066532 7.204205,3.917171c2.877482,0.955647 5.303381,1.375721 7.928833,1.375721c3.843657,0 7.277719,-0.861137 14.114365,-3.549603c1.617294,-0.6301 3.48661,-1.323215 4.148209,-1.543736c2.03735,-0.661636 3.297565,-0.609127 3.58112,0.136524c0.168003,0.441063 -0.115532,1.407207 -0.966175,3.20303c-1.144688,2.457405 -1.38623,3.245041 -1.396736,4.641785c-0.010487,1.33371 0.157539,1.837803 0.819141,2.499432c0.871662,0.871635 1.984848,1.165672 4.106216,1.092152c2.394375,-0.084019 4.095665,-0.6091 7.487736,-2.27887c3.024498,-1.491253 5.177391,-2.75145 9.840168,-5.754971c3.938183,-2.551945 5.439938,-3.392082 7.08868,-3.969669c0.934654,-0.325535 2.614975,-0.451569 3.35009,-0.252041l0.451553,0.115509l-0.073517,0.703644c-0.062996,0.693096 -0.315025,2.446903 -0.420074,2.961498c-0.052505,0.262527 -0.063011,0.262527 -1.123672,0.231014c-2.268402,-0.073502 -3.843628,0.525105 -8.747986,3.32906c-6.30106,3.602104 -11.163364,5.597454 -15.595131,6.374596c-1.365238,0.241535 -3.612617,0.241535 -4.515743,0.010494c-2.047855,-0.546104 -3.26606,-1.701283 -3.738636,-3.549606c-0.357075,-1.375717 -0.042011,-2.78297 1.176189,-5.303387c1.081684,-2.236881 1.155197,-2.530926 0.756138,-3.035019c-0.210045,-0.273045 -0.252052,-0.283524 -0.966175,-0.241539c-0.966152,0.052513 -1.33371,0.210033 -6.259043,2.60445c-4.274199,2.079342 -5.712976,2.69894 -7.6663,3.287052c-2.54143,0.766624 -4.442228,1.060658 -6.931158,1.050186c-3.129509,-0.010509 -5.944011,-0.619617 -9.031536,-1.942825c-2.016324,-0.861168 -5.14586,-2.62545 -5.345394,-3.014027c-0.084002,-0.15752 -0.346564,-2.005817 -0.483088,-3.476086c-0.063007,-0.651093 -0.063007,-0.672112 0.126038,-0.514587c0.10502,0.094513 0.588084,0.493591 1.081682,0.892643l0,0l0.000001,0l0.000001,0l0,0.000004zm34.382782,2.100365c0.252052,0.094505 0.199554,0.556583 -0.105022,1.09219c-0.567085,0.976669 -1.417732,2.740959 -1.711777,3.549606c-1.207718,3.276535 -0.724632,6.059509 1.323223,7.582264c2.163364,1.596268 6.006996,1.984848 10.848331,1.092194c2.814453,-0.525108 4.977814,-1.155197 10.323208,-3.024525c3.759655,-1.323212 5.660488,-1.91132 7.162251,-2.215866c0.976631,-0.199547 2.730415,-0.252041 2.898476,-0.084011c0.126007,0.126007 -0.6091,1.869312 -1.386261,3.266048c-0.367531,0.672115 -0.462059,0.766628 -0.651085,0.714119c-0.598595,-0.17852 -1.680275,-0.273045 -2.436417,-0.220543c-1.890316,0.147022 -3.770115,0.514595 -9.871643,1.942848c-3.276569,0.766621 -6.175053,1.323215 -7.823845,1.512234c-2.856487,0.33606 -5.429417,0.157528 -7.372231,-0.504082c-1.312714,-0.441067 -2.058365,-0.892654 -2.919495,-1.743286c-1.942833,-1.932323 -2.226368,-5.00935 -0.745625,-8.2859c0.661625,-1.45974 0.808628,-2.00584 0.651112,-2.310387c-0.29406,-0.546097 -1.218204,-0.063026 -3.108513,1.617252c-1.480762,1.323227 -3.644129,3.09803 -4.736319,3.896156c-1.554258,1.13419 -3.927658,2.614952 -5.156347,3.203056c-1.98485,0.96616 -4.620787,1.690784 -7.277744,1.995323c-2.404906,0.283543 -6.427072,0.105019 -8.233384,-0.357067c-0.493598,-0.126003 -0.514591,-0.147026 -1.02916,-1.071167c-0.294066,-0.525078 -0.735141,-1.386223 -0.98717,-1.921822c-0.5251,-1.12368 -0.598592,-1.071178 0.966152,-0.756126c5.901999,1.218208 10.134203,1.375725 13.851826,0.504097c3.717619,-0.86116 7.592781,-2.846008 11.751499,-6.017529c2.457401,-1.869324 3.948654,-2.845993 4.977829,-3.266064c0.703613,-0.294041 0.598598,-0.26255 0.798126,-0.189022l0,0.000004l0.000004,0.000004zm-3.381565,4.841305c-0.903168,2.13187 -1.113209,2.877495 -1.270725,4.421257c-0.178513,1.74329 0.157516,3.381561 0.955688,4.620766c2.436382,3.770138 9.062992,5.019863 20.404915,3.854164c3.423561,-0.357079 5.051331,-0.430573 6.14352,-0.273045c0.924187,0.136524 1.680317,0.38855 1.680317,0.546089c0,0.13652 -1.690777,1.890312 -2.331409,2.4259l-0.493595,0.409569l-1.291721,-0.157524c-1.816795,-0.231045 -4.757313,-0.378052 -7.592777,-0.378052c-6.563599,-0.010506 -9.556614,-0.388588 -12.413078,-1.564785c-1.533237,-0.640591 -2.583416,-1.312729 -3.602112,-2.320873c-0.997654,-1.008179 -1.459747,-1.7118 -1.932331,-2.972019l-0.325539,-0.861134l0,-2.415413c0,-2.236889 -0.010513,-2.415405 -0.189049,-2.446918c-0.336056,-0.063 -0.850643,0.462082 -1.816793,1.827301c-2.446918,3.497105 -4.137699,5.450439 -6.185553,7.162212c-2.950975,2.467907 -6.070004,3.801636 -9.273055,3.980179l-1.197186,0.063l-1.407249,-1.407227c-0.777129,-0.766644 -1.407222,-1.438763 -1.407222,-1.470249c0,-0.031513 0.409571,-0.094517 0.924137,-0.136524c3.843658,-0.304554 7.907843,-1.533272 11.11087,-3.371067c2.593946,-1.491249 3.927658,-2.646461 6.71063,-5.775959c3.10854,-3.497105 4.998852,-5.334908 5.229885,-5.103893c0.052498,0.052532 -0.11554,0.588116 -0.430573,1.344238l0,0.000004l0,0.000004l0.000004,0zm-2.93,5.093365c-0.147036,1.008179 -0.084003,3.528587 0.115526,4.484261c0.619608,2.950996 2.184378,4.967335 5.229887,6.721146c2.604435,1.501717 5.481918,2.436386 11.425903,3.738602c2.856491,0.619629 3.780628,0.861137 3.780628,0.976669c0,0.042007 -0.441048,0.273048 -0.976639,0.51458c-8.653488,3.917168 -18.241581,4.17971 -27.010544,0.745628c-1.407249,-0.55658 -4.673311,-2.152863 -4.673311,-2.278877c0,-0.042007 0.504105,-0.420074 1.134203,-0.829651c2.751469,-1.816795 4.85182,-3.885643 6.584616,-6.490086c0.378067,-0.556591 1.491253,-2.614933 2.478397,-4.568256c0.987167,-1.963852 1.837812,-3.560097 1.890339,-3.560097c0.063004,0 0.073517,0.22052 0.020994,0.546074l0,0.000008z"/>
   <path fill="#d7000f" id="svg_3" d="m15.594138,15.311585c-1.281232,0.199521 -1.680273,0.304551 -1.543773,0.409574c0.021016,0.020992 0.420084,0.210035 0.871668,0.430555c0.598589,0.294056 1.06066,0.6301 1.669785,1.207697c0.819117,0.787643 1.039667,1.08169 3.381563,4.704807c0.850645,1.302223 1.932325,2.499418 2.83547,3.10854c1.344242,0.913631 3.801645,1.816788 7.655787,2.814449c1.323225,0.336077 2.667465,0.735125 2.993008,0.882149c0.829651,0.388563 1.900826,1.470266 1.900826,1.942837c0,0.063004 -0.273048,0.105009 -0.661625,0.105009c-0.829628,0 -1.543751,0.210049 -2.226368,0.640621c-0.283558,0.189007 -0.714119,0.367546 -0.934668,0.399059c-0.598593,0.094528 -0.577595,0.273052 0.06303,0.493587c0.304531,0.094517 0.724604,0.283546 0.924135,0.40958c0.535583,0.336029 1.732792,0.745609 2.730476,0.934639c1.659275,0.315056 3.161037,0.168037 4.641781,-0.462063c0.420074,-0.178539 1.039642,-0.357082 1.365234,-0.388561c0.514568,-0.052525 0.682617,-0.021015 1.165707,0.231022l0.567066,0.283546l0.535583,-0.273056c0.86113,-0.441059 0.630123,-0.672104 -1.281208,-1.26021c-1.365215,-0.430573 -1.837818,-0.745615 -1.648773,-1.10268c0.063007,-0.105015 0.346542,-0.378059 0.640606,-0.588083c0.294067,-0.220566 1.207699,-1.155205 2.037346,-2.089865c1.848328,-2.079334 3.843632,-4.011686 4.977863,-4.820314c0.976631,-0.703613 2.730423,-1.61727 3.623085,-1.900816c0.504101,-0.157532 0.85062,-0.178539 1.995358,-0.147026c1.606754,0.063021 2.467937,0.252035 3.591599,0.819141l0.777107,0.388557l0.451611,-0.220537c0.598598,-0.294041 1.753788,-1.449242 2.110817,-2.131849c0.157539,-0.294054 0.37809,-0.903162 0.493595,-1.354746c0.210041,-0.80863 0.283554,-2.247372 0.126015,-2.247372c-0.052502,0 -0.630116,0.35705 -1.291718,0.80864c-2.856441,1.911312 -5.156322,2.604445 -9.231014,2.761957c-2.520439,0.094509 -3.48661,0.252039 -5.061893,0.79814c-3.098011,1.081678 -5.733971,3.098021 -7.781776,5.954525c-0.325569,0.441059 -0.735138,1.071161 -0.913673,1.3757c-0.388554,0.682623 -0.24152,0.703638 -2.394394,-0.357054c-3.371082,-1.680281 -5.502937,-3.497093 -9.273077,-7.876316c-1.018652,-1.186707 -2.194866,-2.488914 -2.625431,-2.898504c-0.892656,-0.861134 -2.121347,-1.690771 -2.803967,-1.890309c-0.703636,-0.220531 -2.761974,-0.168023 -4.452759,0.105023l0,0.000002l0,0.000003l0,0.000003l-0.000003,-0.000001z"/>
 </g>
</svg>