<?xml version="1.0" encoding="utf-8"?>
<!-- Generator: Adobe Illustrator 28.0.0, SVG Export Plug-In . SVG Version: 6.00 Build 0)  -->
<svg version="1.1" id="Слой_1" xmlns="http://www.w3.org/2000/svg" xmlns:xlink="http://www.w3.org/1999/xlink" x="0px" y="0px"
	 viewBox="0 0 1000 86.0843658" enable-background="new 0 0 1000 86.0843658" xml:space="preserve">
<path fill="#FF0000" d="M946.4475708,0L901.524231,64.9846573c-5.9099121,8.5532074-15.5037842,16.7797852-27.095459,17.6609421
	v1.9977798h49.9595337c13.2705078,0,22.9403687-8.6291885,29.4956665-18.139473L1000,0H946.4475708z"/>
<path fill="#051039" d="M491.9919128,51.4841194h24.6112976l-12.7841187-23.6542511L491.9919128,51.4841194z
	 M535.3808594,84.6411133l-9.6699219-17.0152817h-42.1885986l-8.7127686,17.0152817H453.798584l42.0293884-77.4271011h19.096405
	l47.5440674,77.4271011H535.3808594z M39.2338142,51.4841194h25.2571297L51.3799744,27.8298683L39.2338142,51.4841194z
	 M83.8228989,84.6411133l-9.9052124-17.0152817H30.6047478l-9.024313,17.0152817H0L43.1533356,7.2140136h19.6588097
	l48.903614,77.4271011H83.8228989z M209.6750641,42.7713661c8.9559174,0,13.270462-4.5500603,13.270462-9.6697998
	c0-5.1122093-3.8360748-9.3432312-13.270462-9.3432312h-24.0491486v19.013031H209.6750641z M227.7387543,55.5556526
	l31.2425995,29.0854607h-24.1326141c-5.3553772,0-8.8722382-1.6711502-11.6676941-4.390564L201.927124,59.6347198
	c-0.4026642-0.4026031-1.0406189-0.6380692-1.8382874-0.6380692h-14.4629211v25.6444626h-22.6135101V7.1380939h48.9796448
	c25.4163818,0,36.1192627,11.4245205,36.1192627,24.0492611C248.1113129,45.8857956,235.0082245,52.9198036,227.7387543,55.5556526
	 M403.7706604,42.7713661c8.9559326,0,13.2704773-4.5500603,13.2704773-9.6697998
	c0-5.1122093-3.8360596-9.3432312-13.2704773-9.3432312h-24.0491333v19.013031H403.7706604z M421.8343506,55.5556526
	l31.2426147,29.0854607h-24.132843c-5.3551636,0-8.8722534-1.6711502-11.66745-4.390564l-21.2539368-20.6158295
	c-0.4026794-0.4026031-1.0406189-0.6380692-1.8382874-0.6380692h-14.4629211v25.6444626h-22.613739V7.1380939h48.9798584
	c25.4164124,0,36.1192932,11.4245205,36.1192932,24.0492611C442.2069397,45.8857956,429.1038513,52.9198036,421.8343506,55.5556526
	 M772.6223145,84.6411133V7.1380939h78.4675903v16.6202412h-55.8540649v13.4222984h54.9805908V53.80093h-54.9805908v14.2199135
	h55.6185913v16.6202698H772.6223145z M267.6940918,84.6411133V7.1380939h75.5889587v16.6202412h-52.9752197v19.2561455h51.7748718
	v16.6202393h-51.7748718v25.0063934H267.6940918z M758.9644775,32.1444588
	c-10.2318115-5.0362301-21.7400513-9.1077633-37.0006104-9.1077633c-18.2229614,0-31.8049927,9.4268017-31.8049927,22.5376568
	c0,13.4222984,13.8326416,22.9326134,31.6455078,22.9326134c14.7060547,0,26.3660889-3.7600403,37.8740845-10.3914413v19.1801376
	c-10.1483765,5.0286407-23.6541138,8.7887039-38.8312988,8.7887039c-31.0072632,0-55.3756104-15.8226852-55.3756104-40.5100136
	c0-24.2999115,24.8470459-39.8795357,55.2921753-39.8795357c14.3869019,0,27.4067383,2.719418,38.2007446,7.1099286V32.1444588z
	 M640.7767944,84.6411133l-54.335022-46.0247955v46.0247955h-19.0966797V7.1380939h16.2177734l53.6207886,45.3031311V7.1380939
	h19.0966797v77.5030212H640.7767944z M119.2207565,7.1380939h22.6135178v77.510643h-22.6135178V7.1380939z"/>
</svg>
