<?xml version="1.0" encoding="utf-8"?>
<!-- Generator: Adobe Illustrator 28.0.0, SVG Export Plug-In . SVG Version: 6.00 Build 0)  -->
<svg version="1.1" id="Слой_1" xmlns="http://www.w3.org/2000/svg" xmlns:xlink="http://www.w3.org/1999/xlink" x="0px" y="0px"
	 viewBox="0 0 1000 154.8460693" enable-background="new 0 0 1000 154.8460693" xml:space="preserve">
<path fill="#2E5C99" d="M0,153.4784393c2.149137-1.107132,3.2562683-3.842392,3.2562683-5.9915314V91.54422
	c0-2.3445129-1.1071312-4.9495316-3.2562683-6.1869049h26.5711498c11.7876911,0,23.380003,4.9495316,23.380003,18.430481
	c0,7.0986557-6.1869087,12.8948212-12.8948212,14.1322021c9.6385536,0,19.0817337,5.7961502,19.0817337,16.4767151
	c0,15.2393341-16.085968,19.0817413-27.2224045,19.0817413C28.9156628,153.4784393,0,153.4784393,0,153.4784393z
	 M21.6216221,91.3488464c-1.237381,0-2.1491375,0-4.298275,0.1953735v23.7707596h2.8655167
	c8.1406708,0,16.0859661-2.605011,16.0859661-11.9830627C36.014328,94.1492386,29.5669174,91.3488464,21.6216221,91.3488464z
	 M23.3800068,121.567009c-1.9537601,0-3.6470203,0-5.9915333,0.1953812v25.0732574
	c2.9957676,0.6512604,6.1869087,0.8466339,8.987299,0.8466339c6.8381634,0,13.7414532-2.9957733,13.7414532-13.4809418
	C40.0521011,123.9115295,31.976553,121.567009,23.3800068,121.567009z M82.5789642,91.3488464
	c-1.237381,0-2.3445129,0.1953735-3.4516449,0.4558716v23.5753784c1.107132,0,2.1491394,0.1953812,3.2562714,0.1953812
	c7.7499161,0,13.2855682-4.2982788,13.2855682-12.6343155C95.6040421,94.3446045,90.0683823,91.3488464,82.5789642,91.3488464z
	 M116.8348999,153.9343109c-2.605011,0-5.6007843,0-7.9452896-0.6512451
	c-4.6890259-1.237381-10.9410629-11.7877045-13.4809494-15.82547c-3.842392-6.6427917-7.489418-15.82547-16.2813416-15.82547
	v25.9199066c0,2.3445129,1.107132,4.9495239,3.2562714,5.9915314h-20.384243
	c2.1491356-1.107132,3.2562675-3.6470337,3.2562675-5.9915314V91.6093292c0-2.3445129-1.107132-4.9495316-3.2562675-6.1869049
	h24.6173897c10.7456818,0,24.2266312,4.0377655,24.2266312,16.9325943c0,10.7456818-8.9872971,16.2813416-18.8863525,16.2813416
	c14.1322021,0,22.533371,33.4093094,38.1634521,33.4093094
	C125.6268311,153.4784393,121.3285599,153.9343109,116.8348999,153.9343109z M130.7717438,153.4784393
	c1.6932526-0.8466339,3.3865051-2.9957733,3.3865051-5.9915314V91.54422c0-2.9957657-1.6932526-5.3402786-3.4516449-6.1869049
	h21.0354919c-1.6932526,0.8466263-3.4516449,2.9957657-3.4516449,6.1869049v55.942688
	c0,2.9957733,1.6932678,5.340271,3.4516449,5.9915314H130.7717438z M176.4246063,153.4784393
	c2.1491394-1.107132,3.4516449-3.6470184,3.4516449-5.9915314V93.2374725h-15.0439606
	c-3.4516449,0-7.7499237,0.4558792-10.5503082,2.1491394l4.6890259-10.094429h50.0814209
	c4.0377808,0,8.1406708,0,11.9830627-0.8466339c-1.9537659,5.1449051-7.4894257,8.9873047-10.7456818,8.9873047
	c-3.842392,0-10.5503235-0.4558792-16.0859833-0.4558792v54.444809c0,2.3445129,1.1071472,4.9495239,3.4516449,5.9915314
	C197.6554871,153.4784393,176.4246063,153.4784393,176.4246063,153.4784393z M223.1846313,153.4784393
	c1.6932678-0.8466339,3.4516449-2.9957733,3.4516449-5.9915314V91.54422c0-2.9957657-1.6932678-5.3402786-3.4516449-6.1869049
	h20.9703827c-1.6932678,0.8466263-3.4516296,2.9957657-3.4516296,6.1869049v55.942688
	c0,2.9957733,1.6932526,5.340271,3.4516296,5.9915314H223.1846313z M284.9234924,138.0437317
	c0-12.8948288-30.6740723-15.82547-30.6740723-36.6655884c0-12.8948212,12.2435608-16.9325943,22.9241333-16.9325943
	c4.6890564,0,11.7877197,0.6512527,16.085968,2.6050186l0.8466492,12.6343155
	c-2.8003845-5.6007843-9.4431763-9.6385574-15.6952209-9.6385574c-4.9495544,0-10.0944519,2.3445206-10.0944519,8.1406708
	c0,13.4809494,31.0648193,16.7372208,31.0648193,36.4701996c0,14.1322021-12.4389343,20.1888733-25.0732727,20.1888733
	c-6.6427917,0-15.4347229-1.237381-20.9703674-5.1448975c-0.4558868-2.3445282-0.4558868-4.6890259-0.4558868-7.0986633
	c0-2.8003998,0.1953735-5.6007843,0.6512604-8.4011688c3.4516296,7.945282,10.5503235,13.9368286,19.5375977,13.9368286
	C279.973938,148.5940399,284.9234924,145.5331421,284.9234924,138.0437317z M350.5698242,153.4784393
	c1.4978943-0.6512604,2.9957581-2.9957733,2.9957581-5.9915314v-25.2686462
	c-3.6470032-0.4558716-8.7919312-0.6512527-14.3926697-0.6512527c-5.7961731,0-10.9410706,0.1953812-14.5881042,0.6512527
	v25.2686462c0,2.9957733,1.4978943,5.340271,2.9957886,5.9915314h-20.1888733
	c1.4978943-0.6512604,2.9957886-2.9957733,2.9957886-5.9915314V91.54422c0-2.9957657-1.4978943-5.3402786-2.9957886-6.1869049
	h20.1888733c-1.4978943,0.6512527-2.9957886,2.9957657-2.9957886,6.1869049v22.9241257
	c3.6470337,0.4558792,8.7919312,0.6512527,14.5881042,0.6512527s10.7456665-0.1953735,14.3926697-0.6512527V91.54422
	c0-2.9957657-1.4978638-5.3402786-2.9957581-6.1869049h20.1888733c-1.4978638,0.6512527-2.9957581,2.9957657-2.9957581,6.1869049
	v55.942688c0,2.9957733,1.4978943,5.340271,2.9957581,5.9915314
	C370.6936035,153.4784393,350.5698242,153.4784393,350.5698242,153.4784393z M445.5226135,153.4784393
	c0.6512451-0.6512604,1.2373962-1.107132,1.2373962-2.3445129c0-0.4558868-0.1953735-1.107132-0.6512451-2.3445282
	c0,0-5.600769-15.2393188-6.1869202-16.9325867c-4.2982483-0.4558716-8.5314026-0.4558716-12.8948059-0.4558716
	c-4.0377808,0-8.140686,0-12.2435608,0.4558716c-0.6512451,1.497879-6.6427917,16.7372131-6.6427917,16.7372131
	c-0.8466187,2.1491394-1.1071472,2.8003998-1.1071472,3.2562714c0,1.107132,0.8466187,1.497879,1.4978638,1.9537659H394.789978
	c1.9537659-1.107132,3.8424072-3.2562714,4.6890259-5.1449127l22.5333557-58.0918198
	c0-0.1953735,0.1953735-0.4558716,0.1953735-0.8466339c0-1.497879-1.1071167-3.2562637-2.605011-3.842392h17.5838623
	l22.9241333,62.5854874c0.8466187,2.605011,2.9957581,4.2982788,4.4936523,5.340271
	C464.7345886,153.7389526,445.5226135,153.4784393,445.5226135,153.4784393z M427.7434082,98.4475021l-10.2897949,26.5711517
	c2.9957275,0.4558792,6.1868896,0.4558792,9.4431763,0.4558792c3.6470032,0,7.0986633,0,10.550293-0.4558792
	C437.381958,125.0186539,427.7434082,98.4475021,427.7434082,98.4475021z M468.4467468,153.4784393
	c1.6932373-0.8466339,3.4516296-2.9957733,3.4516296-5.9915314V91.54422c0-2.9957657-1.6932373-5.3402786-3.4516296-6.1869049
	h20.9703674c-1.6932373,0.8466263-3.4516296,2.9957657-3.4516296,6.1869049v55.942688
	c0,2.9957733,1.6932373,5.340271,3.4516296,5.9915314C489.4822388,153.4784393,468.4467468,153.4784393,468.4467468,153.4784393z
	 M521.1983032,91.3488464c-1.1071167,0-2.1491089,0.1953735-3.4516602,0.4558716v23.5753784
	c1.1071777,0,2.1491699,0.1953812,3.2562866,0.1953812c7.749939,0,13.2855835-4.2982788,13.2855835-12.6343155
	C534.2233887,94.3446045,528.6877441,91.3488464,521.1983032,91.3488464z M557.2126465,153.9343109
	c-2.6050415,0-5.340332,0-7.9453125-0.6512451c-4.6890259-1.237381-10.9411011-11.7877045-13.480957-15.82547
	c-3.8424072-6.6427917-8.9873047-15.82547-17.7792358-15.82547v25.9199066c0,2.3445129,1.1071167,4.9495239,3.2562866,5.9915314
	h-20.4493713c2.1491394-1.107132,3.2562866-3.6470337,3.2562866-5.9915314V91.6093292
	c0-2.3445129-1.1071472-4.9495316-3.2562866-6.1869049h24.4220276c10.7456665,0,24.03125,4.0377655,24.03125,16.9325943
	c0,10.7456818-9.8339233,16.2813416-17.1279297,16.2813416c14.7834473,0.8466263,23.5753784,33.4093094,38.1634521,33.4093094
	C566.0045166,153.4784393,561.7062988,153.9343109,557.2126465,153.9343109z M642.1361084,92.0000992l-20.7750244,61.5434647
	c-1.6932373,0-3.4515991-0.6512451-4.2982178-1.237381c-2.1491699-1.9537506-5.1449585-10.2898102-6.4474487-13.2855682
	l-9.4431763-23.5753784l-13.480957,38.1634674h-6.4474487l-23.1194458-61.6086044
	c-1.1071167-2.6050186-2.800354-5.1449051-5.1448975-6.4474106h20.0585938
	c-0.8466187,0.6512527-1.4978638,1.4978867-1.4978638,2.8003922c0,0.6512527,0.4558716,1.6932678,0.6512451,2.3445206
	l15.0439453,40.7033539l16.0859375-45.848259l17.7792358,44.3503799l13.2855835-40.0521011
	c0.4558716-1.1071243,0.4558716-1.497879,0.4558716-2.1491394c0-0.8466263-0.4558716-1.2373734-1.2373657-1.9537582h13.2855835
	C644.8713989,86.8551865,642.9176025,89.6555786,642.1361084,92.0000992L642.1361084,92.0000992z M666.9488525,98.4475021
	l-10.2897949,26.5711517c3.2562866,0.4558792,6.1868896,0.4558792,9.4431763,0.4558792c3.4516602,0,7.0986328,0,10.550293-0.4558792
	L666.9488525,98.4475021z M684.7932129,153.4784393c0.6512451-0.6512604,1.2374268-1.107132,1.2374268-2.3445129
	c0-0.4558868-0.1954346-1.107132-0.6512451-2.3445282c0,0-5.600769-15.2393188-6.1869507-16.9325867
	c-4.2982178-0.4558716-8.5313721-0.4558716-12.8947754-0.4558716c-4.0377808,0-8.140686,0-12.2435913,0.4558716
	c-0.6512451,1.497879-6.4474487,16.7372131-6.4474487,16.7372131c-0.8466187,2.1491394-1.1071167,2.8003998-1.1071167,3.2562714
	c0,1.107132,0.8466187,1.497879,1.4978638,1.9537659h-13.6763306c1.9537964-1.107132,3.8424072-3.2562714,4.6890869-5.1449127
	l22.5333252-58.0918198c0-0.1953735,0.1953735-0.4558716,0.1953735-0.8466339c0-1.497879-1.1071167-3.2562637-2.6050415-3.842392
	h17.7792969l22.5333252,62.5854874c0.8466797,2.605011,2.9957886,4.2982788,4.6890259,5.340271L684.7932129,153.4784393
	L684.7932129,153.4784393z M746.2716064,92.5862198l-16.0859375,28.2644196v26.6362686
	c0,2.1491394,0.8466187,4.9495239,2.9957275,5.9915314h-20.1888428c2.1491699-1.107132,2.9957275-3.842392,2.9957275-5.9915314
	v-26.7665329l-13.9368286-22.5333786c-1.2374268-2.1491394-7.0986938-11.7876968-14.1322021-11.7876968
	c1.9537964-0.6512527,7.9453125-1.9537582,11.7877197-1.9537582c6.6427612,0,9.8339233,0.6512527,13.9368286,6.8381653
	l13.09021,20.5796204c1.1070557-1.9537659,11.3317871-19.9283676,11.3317871-19.9283676
	c1.2374268-2.1491394,2.1491699-3.6470261,2.1491699-4.4936447c0-1.107132-0.4558105-1.6932678-1.4979248-2.3445206h14.3927002
	C750.1791382,86.8551865,747.8345947,89.8509598,746.2716064,92.5862198L746.2716064,92.5862198z M784.0443115,138.0437317
	c0-12.8948288-30.6740723-15.82547-30.6740723-36.6655884c0-12.8948212,12.2436523-16.9325943,22.9241333-16.9325943
	c4.6889648,0,11.5923462,0.6512527,16.0859375,2.6050186l0.8466797,12.6343155
	c-2.8004761-5.6007843-9.4431763-9.6385574-15.6952515-9.6385574c-4.9494629,0-10.0944214,2.3445206-10.0944214,8.1406708
	c0,13.4809494,31.0647583,16.7372208,31.0647583,36.4701996c0,14.1322021-12.4389038,20.1888733-25.0732422,20.1888733
	c-6.6427612,0-15.4346924-1.237381-20.9703369-5.1448975c-0.4558716-2.3445282-0.4558716-4.6890259-0.4558716-7.0986633
	c0-2.8003998,0.1954346-5.6007843,0.6513062-8.4011688c3.4516602,7.945282,10.7456665,13.9368286,19.5375977,13.9368286
	C778.899353,148.5940399,784.0443115,145.5331421,784.0443115,138.0437317L784.0443115,138.0437317z"/>
<linearGradient id="SVGID_1_" gradientUnits="userSpaceOnUse" x1="755.149292" y1="1685.0585938" x2="704.0942383" y2="1773.4854736" gradientTransform="matrix(1 0 0 1 202.3399963 -1661.0699463)">
	<stop  offset="0" style="stop-color:#E9EAF6"/>
	<stop  offset="0.07" style="stop-color:#C7CBE8"/>
	<stop  offset="0.181" style="stop-color:#96A0D1"/>
	<stop  offset="0.277" style="stop-color:#7183C0"/>
	<stop  offset="0.353" style="stop-color:#5972B6"/>
	<stop  offset="0.4" style="stop-color:#506CB3"/>
	<stop  offset="0.9" style="stop-color:#2E5C99"/>
</linearGradient>
<path fill="url(#SVGID_1_)" d="M972.0612183,37.7506638c-11.3318481,11.3318176-36.2097168,21.2308693-48.4533081,25.7245216
	c-16.7371826,6.1869087-24.03125,8.5314217-33.4093628,11.5923195c-10.5502319,3.4516449-31.7160034,9.833931-31.7160034,9.833931
	c43.7642212,13.0902023,74.633667,16.9325943,74.633667,16.9325943s14.3927002-4.4936447,37.12146-16.4767151
	c12.2435913-6.1869125,18.430481-10.5503082,22.7287598-14.588089c1.4979248-1.4978867,5.7961426-5.7961578,6.8381348-11.1364326
	c0-0.4558754,0.1954346-1.4978867,0.1954346-2.6050148v-1.2373848c0-0.6512527-0.1954346-1.237381-0.1954346-1.237381
	s-0.1953735-1.2373848-0.6512451-2.1491394c-0.4558105-0.8466339-1.6932373-3.6470222-4.0377197-5.6007805
	c-1.4979248-1.2373848-4.0377197-4.298275-13.7414551-7.7499199c-3.2562256-1.107132-8.5313721-2.1491394-8.5313721-2.1491394
	L972.0612183,37.7506638L972.0612183,37.7506638z"/>
<path fill="#CE210F" d="M999.9348755,56.5718956c0,0,0-1.237381-0.4558105-2.1491394
	c-0.1954346-0.8466301-0.6512451-1.6932564-1.2374268-2.8003922c-0.5861206-1.1071281-1.6932373-2.3445129-3.2562866-3.8423958
	c-1.1070557-1.107132-2.3444824-1.9537621-3.8424072-2.9957657c-5.9914551-3.8423996-13.741394-6.1869125-20.5795898-7.0986671
	c-10.550293-1.4978828-22.7287598-1.107132-23.770752-1.2373848c-3.8424072,0-29.1762085,0.1953773-35.5584106,0.1953773
	c-28.7202759,0.6512527-63.8880005,0.6512527-73.1358643,0.6512527
	c-95.2131958,0.4558792-136.5678101-1.6932564-182.6766357-10.9410591
	c-39.2705688-7.7499199-60.8922119-15.239336-60.8922119-15.239336
	c34.5164795-1.2373819,236.4702148-9.6385546,273.3312378-10.5503101c24.03125-0.6512536,41.1591797-0.8466297,54.9006958,0
	c7.0986938,0.4558775,13.480896,1.1071312,21.8820801,2.3445132c7.2940063,1.2373822,14.1322021,3.4516442,18.0397339,4.9495277
	c8.140686,2.9957666,15.0439453,7.4894171,18.430481,11.9830685c0,0,1.1071167,1.107132,2.3444824,2.8003902
	c1.4979248,2.1491356,3.2562866,4.6890259,3.8424683,5.7961559c4.9494629,7.4894161,7.2940063,12.2435665,8.140625,13.9368305
	c0.8466797,1.6932602,1.6932373,3.6470184,2.3445435,5.3402748c0.6512451,1.6932602,1.1070557,2.800396,1.2373657,3.6470222
	c0.4558716,1.9537582,0.6512451,3.6470184,0.6512451,3.8423958L999.9348755,56.5718956L999.9348755,56.5718956z"/>
</svg>
