<?xml version="1.0" encoding="UTF-8"?>
<!-- Generated by Pixelmator Pro 3.4.1 -->
<svg width="251" height="60" viewBox="0 0 251 60" xmlns="http://www.w3.org/2000/svg">
    <path id="path1" fill="#006b6e" stroke="none" d="M 18.367224 28.85762 C 18.171097 28.8839 17.952728 28.600836 17.859718 28.467386 C 17.831409 28.428967 17.724251 28.200493 17.750534 28.166121 C 17.792995 28.13377 18.015408 28.20858 18.074043 28.257111 C 18.219624 28.37236 18.336895 28.534115 18.409685 28.811119 C 18.411686 28.84347 18.383394 28.857618 18.367226 28.857618 M 13.635908 26.235176 C 13.50246 26.283707 13.174908 25.911667 13.083921 25.774178 C 12.916101 25.521435 12.746258 25.240387 12.568329 24.991688 C 12.40253 24.771297 12.218535 24.613586 12.176074 24.227398 C 12.172074 24.182919 12.145744 24.067665 12.174074 24.069687 C 12.354026 24.083839 12.52589 24.399261 12.616877 24.522598 C 12.681577 24.611561 12.758412 24.700531 12.817048 24.793541 C 12.906008 24.929008 12.942408 25.090763 13.035417 25.218143 C 13.148645 25.371811 13.286136 25.517387 13.407452 25.67308 C 13.472152 25.755981 13.559097 25.828766 13.599535 25.941994 C 13.617735 26.000633 13.674345 26.214958 13.635925 26.235176 M 12.281231 26.182606 C 12.180135 26.174507 12.137674 26.111835 12.074995 26.065331 C 11.909196 25.941994 11.769683 25.743847 11.765639 25.456734 C 11.761639 25.428421 11.773739 25.420341 11.793949 25.420341 C 11.992098 25.418343 12.19227 25.723633 12.269103 25.865166 C 12.291343 25.907627 12.343913 26.022881 12.335823 26.103756 C 12.335823 26.158344 12.311563 26.182617 12.281233 26.182617 M 7.778395 27.092484 C 7.770305 27.114723 7.754131 27.141014 7.72178 27.143036 C 7.507436 27.136955 7.442734 26.81749 7.349725 26.671913 C 7.272892 26.548576 7.204146 26.417152 7.125291 26.293812 C 7.068677 26.210915 6.99791 26.121948 6.951405 26.024895 C 6.892769 25.901558 6.866484 25.770134 6.793694 25.658928 C 6.757299 25.600288 6.696642 25.549744 6.654181 25.495148 C 6.536909 25.33744 6.431769 25.171638 6.356957 24.973492 C 6.340782 24.902725 6.320563 24.833977 6.304387 24.76321 C 6.259905 24.643917 6.205313 24.512489 6.164874 24.385109 C 6.142633 24.32243 6.130501 24.191006 6.142633 24.146523 C 6.152743 24.128323 6.16083 24.114174 6.177006 24.11821 C 6.340782 24.142471 6.498493 24.540794 6.57937 24.688396 C 6.668335 24.844086 6.805826 24.969444 6.88266 25.129177 C 6.951406 25.276779 6.975669 25.460773 7.052502 25.60231 C 7.115182 25.711494 7.216278 25.798435 7.285024 25.90358 C 7.371967 26.039047 7.434647 26.214954 7.503392 26.364578 C 7.580225 26.534416 7.691432 26.665844 7.758156 26.82962 C 7.786463 26.898361 7.796573 27.017662 7.778375 27.092472 M 6.943317 20.955917 C 6.900856 20.881104 6.856374 20.792137 6.826046 20.713284 C 6.791673 20.622299 6.787629 20.539398 6.751234 20.452454 C 6.623852 20.17141 6.482317 19.862053 6.356957 19.585045 C 6.302365 19.467773 6.229576 19.251427 6.280124 19.103828 C 6.288214 19.083611 6.330672 19.095726 6.34887 19.115959 C 6.39133 19.154381 6.421659 19.178638 6.458054 19.2211 C 6.484339 19.261539 6.490405 19.306019 6.518713 19.346458 C 6.581392 19.44149 6.664291 19.536522 6.710795 19.643684 C 6.815936 19.872162 6.844243 20.126923 6.949383 20.349335 C 7.016108 20.494915 7.129335 20.622295 7.204147 20.769897 C 7.240542 20.852798 7.264805 20.937717 7.289068 21.022636 C 7.305243 21.087341 7.3012 21.174282 7.305243 21.224831 C 7.307264 21.301662 7.299174 21.348167 7.272892 21.352211 C 7.074743 21.34008 7.016107 21.09745 6.943317 20.955917 M 49.741516 39.913536 C 49.492821 38.997601 46.805676 39.391876 44.595703 39.189686 C 42.583885 39.005688 40.003902 38.645786 36.90226 37.568096 C 33.998768 36.561176 31.192329 35.408672 28.743771 34.084309 C 28.743771 34.084309 27.755047 33.562653 27.649906 33.504017 C 27.44569 33.380676 27.285959 33.291714 27.085789 33.166355 C 26.966494 33.095585 26.782497 32.986401 26.649052 32.927765 C 26.477186 32.856995 26.361937 32.763988 26.214336 32.673004 C 26.062691 32.577972 25.856455 32.478897 25.702787 32.387909 C 25.478354 32.248398 25.33884 32.141235 25.126537 31.98959 C 24.995111 31.89052 24.928389 31.862209 24.75248 31.755047 C 24.647341 31.692366 24.455256 31.589249 24.362247 31.526567 C 24.166121 31.397165 24.040762 31.290003 23.842611 31.152512 C 23.723318 31.067591 23.634354 31.01502 23.490795 30.926056 C 23.34926 30.839115 23.211769 30.727905 23.08843 30.636919 C 23.021711 30.584349 22.916567 30.525713 22.855909 30.461012 C 22.710329 30.321499 22.566772 30.19816 22.41715 30.076843 C 22.279659 29.973726 22.148233 29.846344 22.014786 29.743225 C 21.927847 29.680546 21.780243 29.557207 21.69532 29.494528 C 21.47291 29.334797 21.333397 29.215502 21.113005 29.055769 C 20.97147 28.950628 20.852177 28.811115 20.710642 28.705975 C 20.552931 28.588703 20.407352 28.453234 20.243574 28.335962 C 20.138435 28.263172 20.017118 28.170164 19.936241 28.087265 C 19.831102 27.959885 19.732027 27.87294 19.620821 27.747581 C 19.539942 27.658623 19.384254 27.55954 19.293268 27.468552 C 19.159821 27.29467 18.965715 27.110672 18.783743 26.975204 C 18.676579 26.876133 18.644228 26.829624 18.601768 26.777054 C 18.571438 26.732574 18.530998 26.682022 18.444057 26.58699 C 18.357117 26.498032 18.324762 26.473763 18.290392 26.435349 C 18.24995 26.402996 18.203451 26.360535 18.084154 26.243263 C 18.047754 26.204842 17.985073 26.117905 17.9224 26.032982 C 17.867809 25.958176 17.817259 25.883362 17.780865 25.844944 C 17.673702 25.731716 17.602934 25.652863 17.5261 25.571983 C 17.471512 25.517395 17.412872 25.456734 17.342106 25.38192 C 17.299644 25.335423 17.267296 25.280823 17.228876 25.230278 C 17.198547 25.179726 17.162157 25.127159 17.125759 25.084698 C 17.06106 25.013927 17.010509 25.0382 16.998377 25.04628 C 16.959957 25.072556 16.943787 25.149399 16.986246 25.240383 C 17.044888 25.347546 17.125759 25.466843 17.176308 25.535583 C 17.188438 25.551765 17.198547 25.565914 17.204618 25.574005 C 17.224838 25.608376 17.243038 25.640724 17.263258 25.675102 C 17.291569 25.725655 17.321898 25.780243 17.358288 25.828766 C 17.441189 25.939972 17.52813 26.032982 17.615072 26.119926 C 17.645403 26.148235 17.673714 26.178566 17.699993 26.208897 C 17.758633 26.269554 17.80311 26.334255 17.847593 26.403 C 17.896124 26.469719 17.946665 26.542515 18.009348 26.611259 C 18.039679 26.639572 18.065958 26.675961 18.088207 26.708309 C 18.116518 26.744713 18.144817 26.785141 18.177177 26.817493 C 18.227728 26.866024 18.276249 26.914543 18.324778 26.963074 C 18.405659 27.050011 18.492599 27.134937 18.571453 27.203682 C 18.634134 27.256252 18.696814 27.322975 18.761515 27.385658 C 18.925291 27.581783 19.105244 27.777908 19.252846 27.96595 C 19.335745 28.071091 19.491432 28.149946 19.586464 28.222736 C 19.691603 28.301596 19.774504 28.439081 19.857403 28.544224 C 19.922102 28.621054 20.063639 28.746416 20.130362 28.827293 C 20.29414 29.037575 20.407368 29.150803 20.623713 29.312555 C 20.755138 29.405565 20.854214 29.496552 20.955311 29.621912 C 21.01597 29.700771 21.201984 29.880718 21.272753 29.967663 C 21.450684 30.194118 21.531561 30.406422 21.505276 30.412485 C 21.383959 30.444836 21.088757 30.184008 20.912849 30.07078 C 20.769293 29.97171 20.745029 29.933289 20.607538 29.830172 C 20.577208 29.803881 20.358841 29.652241 20.284029 29.557211 C 20.225389 29.504641 20.063639 29.328732 20.01309 29.268074 C 19.766415 28.952654 19.683516 28.934456 19.400446 28.657452 C 19.194208 28.455257 18.937424 28.275307 18.737251 28.095354 C 18.676592 28.032675 18.617958 27.969994 18.559322 27.901249 C 18.492601 27.83453 18.4097 27.773865 18.349043 27.707146 C 18.254011 27.589874 18.128651 27.357349 18.017445 27.274452 C 17.900173 27.18346 17.813231 27.100563 17.693935 27.0116 C 17.651476 26.983292 17.615076 26.928699 17.570599 26.894325 C 17.511957 26.853889 17.445238 26.805367 17.400757 26.750771 C 17.263266 26.574863 17.129818 26.394913 16.986261 26.219002 C 16.92358 26.134083 16.832594 26.065338 16.769915 25.978394 C 16.636467 25.78833 16.523237 25.594227 16.38777 25.416298 C 16.195686 25.167599 15.922725 24.98967 15.738729 24.738953 C 15.548668 24.480141 15.43544 24.180897 15.25751 23.909958 C 15.18068 23.792686 15.061383 23.709785 14.976462 23.598579 C 14.927932 23.533882 14.901652 23.459068 14.855146 23.388298 C 14.760116 23.242722 14.648909 23.101189 14.551856 22.963696 C 14.426497 22.777679 14.341576 22.577507 14.214194 22.381378 C 14.195994 22.355087 14.151514 22.223667 14.072659 22.126617 C 13.997849 22.031586 13.931124 21.922401 13.846203 21.78289 C 13.757243 21.647415 13.716799 21.556431 13.654119 21.463425 C 13.591439 21.366371 13.551001 21.277405 13.50854 21.212704 C 13.4681 21.143963 13.377115 21.020622 13.344764 20.972092 C 13.229514 20.794167 13.197163 20.711266 13.077869 20.547485 C 13.005079 20.446392 12.924202 20.363491 12.855457 20.387756 C 12.802887 20.426178 12.823107 20.488853 12.835237 20.533333 C 12.887807 20.678913 12.887807 20.652626 12.944422 20.757767 C 13.041472 20.931656 13.075847 21.014553 13.178966 21.174286 C 13.225466 21.251114 13.308369 21.425007 13.375093 21.518013 C 13.439793 21.615067 13.50854 21.730316 13.553023 21.809174 C 13.603573 21.894093 13.674339 22.116508 13.745106 22.209515 C 13.795656 22.276237 13.868444 22.411709 13.918992 22.508759 C 14.018072 22.706909 14.143426 22.862598 14.246545 23.016266 C 14.315285 23.143646 14.384036 23.277092 14.45076 23.402454 C 14.588251 23.608688 14.752027 23.800774 14.885475 24.013077 C 14.968375 24.160679 15.049251 24.308281 15.130128 24.455879 C 15.213028 24.577194 15.324234 24.680313 15.403089 24.80365 C 15.500139 24.951252 15.552712 25.113007 15.649765 25.258587 C 15.726595 25.371815 15.823651 25.480995 15.900484 25.594227 C 16.03191 25.78833 16.149181 25.980415 16.286673 26.166435 C 16.363503 26.267529 16.462582 26.352448 16.537392 26.455566 C 16.640511 26.595081 16.72341 26.76088 16.830572 26.878151 C 16.959974 26.999466 16.99637 27.072258 17.097467 27.187508 C 17.247089 27.371506 17.621147 27.897205 17.556444 27.901249 C 17.338076 27.93158 16.915493 27.452377 16.737562 27.278496 C 16.600073 27.141003 16.446405 27.043949 16.351374 26.914547 C 16.209839 26.724487 16.106722 26.510162 15.965186 26.326164 C 15.914636 26.257423 15.837804 26.206871 15.787256 26.14217 C 15.690206 26.016808 15.597194 25.883362 15.485988 25.774178 C 15.439488 25.729698 15.388938 25.689259 15.346475 25.63871 C 15.174611 25.41832 15.029032 25.181755 14.863234 24.951252 C 14.790444 24.858242 14.701479 24.775345 14.630712 24.684357 C 14.578142 24.60955 14.545792 24.528671 14.499286 24.447792 C 14.432566 24.344673 14.343598 24.245598 14.276874 24.142479 C 14.226324 24.065651 14.195994 23.988815 14.143426 23.909958 C 14.052436 23.772469 13.931124 23.653175 13.840137 23.51366 C 13.769367 23.400433 13.749147 23.252831 13.674339 23.137581 C 13.486299 22.850468 13.282084 22.557289 13.098088 22.270172 C 13.049558 22.195362 13.029348 22.112461 12.98486 22.039673 C 12.833215 21.803108 12.693702 21.548344 12.544079 21.315823 C 12.489489 21.228882 12.467249 21.129807 12.412654 21.044884 C 12.343904 20.939743 12.238768 20.856842 12.170022 20.755745 C 12.117452 20.674866 12.095212 20.585907 12.054772 20.494919 C 12.000182 20.371582 11.923347 20.252289 11.860667 20.137035 C 11.822247 20.066265 11.802027 19.993477 11.757549 19.926758 C 11.577597 19.645706 11.429996 19.34848 11.284417 19.037106 C 11.207587 18.877373 11.094355 18.727753 11.019544 18.563972 C 10.932604 18.384026 10.849702 18.200027 10.770846 18.026138 C 10.724346 17.906845 10.681886 17.787552 10.641443 17.668259 C 10.554503 17.482243 10.419031 17.32251 10.336131 17.128403 C 10.277491 16.996979 10.245141 16.875664 10.190552 16.764458 C 10.156182 16.697739 10.091482 16.641121 10.044973 16.671448 C 9.996447 16.699757 9.990381 16.758385 10.020713 16.861507 C 10.077323 17.059654 10.186512 17.284092 10.23706 17.39732 C 10.340178 17.619732 10.392749 17.852257 10.493845 18.078712 C 10.546415 18.206093 10.631336 18.325386 10.68795 18.446701 C 10.78702 18.663048 10.882056 18.879395 10.98113 19.083611 C 11.03572 19.202904 11.08021 19.318153 11.144907 19.431381 C 11.177257 19.490021 11.229827 19.55674 11.256113 19.621445 C 11.320813 19.767021 11.339013 19.920689 11.405736 20.058182 C 11.474476 20.201736 11.585687 20.32103 11.652411 20.460545 C 11.994117 21.188438 12.337846 21.881962 12.750319 22.526955 C 12.863547 22.706909 12.924205 22.925278 13.039455 23.103207 C 13.158749 23.291245 13.322526 23.432781 13.439798 23.614754 C 13.538868 23.766399 13.563135 23.976681 13.654122 24.138435 C 13.783526 24.381065 13.961456 24.585281 14.109057 24.813759 C 14.147477 24.87846 14.159607 24.94923 14.200047 25.015953 C 14.254637 25.102894 14.327429 25.187817 14.384043 25.276779 C 14.456833 25.396076 14.495249 25.531548 14.578148 25.640732 C 14.665088 25.762047 14.790451 25.8591 14.877394 25.982437 C 14.984556 26.130035 15.06139 26.303925 15.174618 26.455566 C 15.251448 26.558685 15.372767 26.631477 15.451622 26.736618 C 15.576982 26.900391 16.011698 27.470577 16.137056 27.63031 C 16.327118 27.874962 16.670847 28.234865 16.828556 28.556353 C 16.879107 28.655422 17.050968 28.891994 17.014574 28.938498 C 16.923586 28.999159 16.492916 28.528046 16.420128 28.459301 C 16.240175 28.287437 16.084488 28.048849 15.928798 27.8507 C 15.890378 27.806221 15.477907 27.403854 15.443535 27.359371 C 15.403095 27.306801 15.360635 27.248161 15.324241 27.195595 C 15.208991 27.023727 15.138223 26.817493 15.016907 26.655739 C 14.964337 26.58699 14.885482 26.536446 14.836956 26.469719 C 14.741926 26.34436 14.677223 26.202827 14.582192 26.075447 C 14.438635 25.873253 14.248574 25.69532 14.100973 25.495152 C 13.943262 25.276779 13.828012 25.017975 13.664236 24.799606 C 13.583356 24.692444 13.48024 24.597412 13.403407 24.480141 C 13.369037 24.429592 13.356907 24.379044 13.322527 24.326477 C 13.263887 24.237503 13.185035 24.136414 13.140553 24.03936 C 13.098093 23.94635 13.067763 23.859409 13.015193 23.776512 C 12.845351 23.511635 12.675509 23.230591 12.507689 22.965714 C 12.428829 22.84642 12.386373 22.71904 12.311561 22.599747 C 12.18418 22.403618 12.022425 22.227711 11.897066 22.029564 C 11.747443 21.795017 11.666566 21.511948 11.512899 21.277405 C 11.415849 21.121716 11.300596 20.978157 11.203544 20.822472 C 11.094359 20.654648 11.041789 20.458523 10.942715 20.284637 C 10.857795 20.128944 10.742543 19.98539 10.667732 19.831726 C 10.584832 19.66188 10.530241 19.496082 10.449364 19.320175 C 10.404884 19.227165 10.336135 19.132133 10.295697 19.039127 C 10.241107 18.917809 10.230997 18.798515 10.174381 18.685287 C 10.028783 18.359756 9.808393 18.052422 9.654726 17.726891 C 9.547564 17.498413 9.448489 17.259827 9.359524 17.015175 C 9.310998 16.881725 9.288756 16.754345 9.228099 16.631004 C 9.092629 16.33176 8.926831 16.018364 8.797427 15.725182 C 8.740813 15.565449 8.686221 15.40976 8.627585 15.252052 C 8.617476 15.207569 8.61141 15.165108 8.595235 15.116581 C 8.532555 14.977066 8.449656 14.839577 8.395063 14.704109 C 8.346537 14.542351 8.295989 14.382622 8.243419 14.220867 C 8.03516 13.699207 7.84712 13.108803 7.648971 12.564903 C 7.624708 12.46785 7.618642 12.342491 7.580225 12.235329 C 7.477107 11.96035 7.373989 11.677277 7.274914 11.400272 C 7.216278 11.258736 7.08283 11.305244 7.113159 11.450821 C 7.153598 11.640884 7.177861 11.689411 7.212234 11.841057 C 7.226388 11.919914 7.240541 11.99472 7.256716 12.071556 C 7.28098 12.164566 7.327485 12.261616 7.351748 12.350582 C 7.406339 12.518402 7.410383 12.682178 7.464975 12.841911 C 7.547874 13.066345 7.628752 13.284714 7.703563 13.515213 C 7.72176 13.630463 7.748045 13.745712 7.770288 13.862984 C 7.80466 13.970146 7.849142 14.081356 7.887559 14.178406 C 8.00281 14.463501 8.114016 14.738483 8.21309 15.017509 C 8.255551 15.179264 8.298011 15.338997 8.336428 15.500748 C 8.378888 15.58971 8.441568 15.680702 8.479985 15.767647 C 8.516379 15.846504 8.524467 15.919289 8.556818 16.00219 C 8.629608 16.18214 8.694309 16.366135 8.777208 16.550133 C 8.845954 16.699753 8.926831 16.851398 8.985467 17.011131 C 9.013774 17.089981 9.013774 17.156712 9.042081 17.233543 C 9.215967 17.71072 9.404007 18.210136 9.610244 18.663048 C 9.660791 18.774254 9.674946 18.891525 9.727515 19.004753 C 9.767955 19.101807 9.828612 19.202904 9.871073 19.295914 C 9.891292 19.356575 9.913532 19.41925 9.933752 19.479912 C 9.996432 19.613358 10.105616 19.722542 10.168296 19.855988 C 10.344204 20.226002 10.501915 20.579842 10.724327 20.89526 C 10.928542 21.19046 11.019529 21.578674 11.169152 21.928467 C 11.248002 22.094265 11.343038 22.235802 11.438069 22.379356 C 11.484569 22.456184 11.512879 22.541111 11.553319 22.624008 C 11.654415 22.805984 11.709007 22.963696 11.828301 23.12545 C 11.923331 23.258896 11.915241 23.287205 11.996121 23.473221 C 12.018361 23.527809 12.109349 23.875587 12.091151 23.875587 C 12.060821 23.895805 11.888958 23.792686 11.830322 23.727985 C 11.753492 23.641045 11.628129 23.523769 11.54523 23.335732 C 11.50075 23.2407 11.415826 23.076923 11.371344 22.985935 C 11.264182 22.755436 11.080186 22.559311 10.946738 22.347008 C 10.867878 22.223667 10.825423 22.0882 10.758699 21.95475 C 10.647493 21.710098 10.518089 21.463425 10.398795 21.210682 C 10.348245 21.105541 10.275458 21.004444 10.216822 20.911438 C 10.152122 20.814384 10.123812 20.711266 10.061133 20.61219 C 9.925665 20.399887 9.771997 20.161297 9.662813 19.928776 C 9.581937 19.756912 9.539475 19.585045 9.462643 19.417229 C 9.436357 19.364655 9.393897 19.312088 9.359524 19.261536 C 9.304932 19.174595 9.282691 19.079567 9.234164 18.982513 C 9.173507 18.855129 9.08252 18.729771 9.021862 18.598343 C 8.898524 18.333473 8.827756 18.058491 8.706441 17.797661 C 8.645782 17.676346 8.54873 17.571205 8.492116 17.44989 C 8.403151 17.26387 8.395063 17.029327 8.306098 16.83522 C 8.077621 16.317608 7.812747 15.785839 7.618642 15.245987 C 7.588313 15.154999 7.576181 15.049858 7.547874 14.954826 C 7.462954 14.720284 7.351747 14.501915 7.266826 14.271416 C 7.228409 14.166275 7.216278 14.069221 7.177861 13.962059 C 7.121247 13.80637 7.046436 13.640572 6.989821 13.480839 C 6.975668 13.428268 6.96758 13.371655 6.947361 13.317062 C 6.876594 13.169464 6.836155 12.991531 6.767409 12.835846 C 6.728992 12.754967 6.672379 12.672066 6.640028 12.585125 C 6.585435 12.429436 6.601611 12.233307 6.544997 12.08773 C 6.466142 11.86734 6.373133 11.62875 6.294278 11.412407 C 6.245751 11.285023 6.237663 11.163708 6.193181 11.034302 C 6.142633 10.888725 6.086019 10.726971 6.031426 10.58139 C 5.978857 10.43177 5.980878 10.270012 5.93033 10.112305 C 5.893935 9.99099 5.843387 9.867649 5.802948 9.754421 C 5.728137 9.542118 5.695786 9.317684 5.616931 9.119537 C 5.604799 9.083141 5.590646 9.044724 5.578514 9.010353 C 5.558295 8.955757 5.5219 8.903191 5.467308 8.919365 C 5.404628 8.935539 5.404628 9.014397 5.408672 9.066963 C 5.420803 9.224678 5.479439 9.366211 5.5219 9.493591 C 5.57447 9.627041 5.598733 9.770599 5.635128 9.89798 C 5.655347 9.980877 5.653325 10.069843 5.673545 10.156784 C 5.69983 10.282143 5.748357 10.40144 5.780708 10.524776 C 5.811037 10.646095 5.79486 10.765388 5.823168 10.86042 C 5.902022 11.12529 5.990988 11.424538 6.079953 11.677277 C 6.116348 11.808704 6.122414 11.96035 6.162852 12.073578 C 6.211378 12.207024 6.261927 12.342491 6.308431 12.477962 C 6.352913 12.59119 6.361001 12.698353 6.407506 12.805515 C 6.458054 12.916721 6.514668 13.033993 6.557128 13.161373 C 6.607677 13.32515 6.601611 13.486904 6.658225 13.642593 C 6.751234 13.893314 6.866484 14.131901 6.951405 14.372513 C 6.979712 14.461472 6.989822 14.556507 7.020151 14.64547 C 7.094962 14.853729 7.147532 15.078163 7.224366 15.288445 C 7.33355 15.587692 7.473063 15.880871 7.582248 16.176071 C 7.687388 16.467232 7.703564 16.817024 7.824879 17.089985 C 7.887559 17.225456 8.016963 17.306332 8.075599 17.437759 C 8.11806 17.520657 8.105927 17.617706 8.134234 17.716782 C 8.168608 17.827988 8.221178 17.941216 8.263638 18.044334 C 8.287901 18.139366 8.312164 18.230354 8.338449 18.321342 C 8.376866 18.432549 8.453699 18.543755 8.502226 18.650917 C 8.583103 18.824799 8.623542 19.006775 8.720594 19.162464 C 8.799449 19.279736 8.894481 19.38892 8.959182 19.520348 C 9.025906 19.663902 9.050169 19.819592 9.116893 19.971237 C 9.215967 20.193649 9.33324 20.405952 9.416139 20.636452 C 9.494993 20.846733 9.5233 21.069145 9.622375 21.255161 C 9.723472 21.437134 9.846809 21.600914 9.945884 21.780865 C 10.008564 21.918358 10.071244 22.053825 10.135945 22.189293 C 10.186495 22.298477 10.285568 22.393509 10.348248 22.508759 C 10.425078 22.646248 10.499893 22.791828 10.562573 22.929321 C 10.613123 23.038506 10.631313 23.137581 10.691976 23.230591 C 10.778916 23.374146 10.845643 23.489395 10.940674 23.630928 C 11.019534 23.758312 11.112538 23.920067 11.169152 24.069687 C 11.213632 24.182915 11.260142 24.302212 11.32484 24.39724 C 11.39561 24.494293 11.486595 24.581238 11.545231 24.6884 C 11.603871 24.793541 11.686766 25.135246 11.656437 25.151421 C 11.581627 25.177711 11.371345 24.977535 11.314731 24.906769 C 11.148932 24.706596 11.068055 24.435658 10.91641 24.223358 C 10.754656 23.990833 10.65356 23.861427 10.526178 23.596558 C 10.45541 23.444912 10.328029 23.16993 10.241086 23.034462 C 10.154143 22.907082 10.044958 22.791828 9.978235 22.650291 C 9.925665 22.530998 9.89938 22.389465 9.846809 22.272194 C 9.767954 22.10437 9.608221 21.993164 9.527345 21.817261 C 9.434336 21.623154 9.393897 21.422981 9.294823 21.241009 C 9.246296 21.152042 9.183616 21.052971 9.141155 20.959961 C 9.084541 20.844711 9.058256 20.731483 9.003664 20.614212 C 8.892458 20.375622 8.724638 20.175453 8.617476 19.938885 C 8.500203 19.696251 8.437524 19.433403 8.31823 19.188751 C 8.257572 19.055302 8.148388 18.942074 8.085708 18.808624 C 8.002809 18.632717 7.960348 18.448723 7.877449 18.27079 C 7.824879 18.163628 7.750068 18.058491 7.699519 17.953346 C 7.628752 17.799683 7.602467 17.631863 7.529677 17.47213 C 7.369945 17.108185 7.202124 16.734123 7.04037 16.374222 C 6.979712 16.234711 6.963536 16.091148 6.900856 15.949615 C 6.840199 15.826279 6.779541 15.704964 6.714839 15.581627 C 6.577348 15.264183 6.5268 14.892147 6.383243 14.572681 C 6.310453 14.408905 6.221488 14.255238 6.154764 14.081352 C 6.053668 13.80637 6.017273 13.5233 5.914155 13.242252 C 5.760488 12.813602 5.63715 12.366756 5.483483 11.94215 C 5.436979 11.81477 5.432935 11.689407 5.384409 11.555962 C 5.339926 11.432625 5.293422 11.307266 5.246918 11.183926 C 5.214567 11.080807 5.194347 10.937252 5.168062 10.807846 C 5.052812 10.445923 4.937562 10.083996 4.824334 9.718025 C 4.796027 9.631084 4.791983 9.475395 4.761654 9.364189 C 4.743457 9.30151 4.709084 9.228722 4.684821 9.170082 C 4.658536 9.087185 4.658536 9.016418 4.632251 8.929474 C 4.54733 8.6646 4.476562 8.355247 4.391641 8.090374 C 4.367378 8.007473 4.35929 7.88818 4.333005 7.79517 C 4.215733 7.417068 4.157097 6.954048 4.00343 6.604256 C 3.979167 6.535507 3.934685 6.462719 3.867961 6.480915 C 3.801237 6.497093 3.815391 6.573925 3.821457 6.636604 C 3.841676 6.808468 3.906378 6.95607 3.934685 7.099628 C 3.946817 7.16433 3.946817 7.253292 3.95086 7.330128 C 3.95895 7.394829 3.967035 7.473686 3.987255 7.542431 C 4.058023 7.766865 4.140922 8.031738 4.205624 8.252129 C 4.227865 8.359291 4.207644 8.525089 4.237975 8.648426 C 4.335028 9.00631 4.405795 9.432934 4.535198 9.754421 C 4.654492 10.0476 4.676733 10.399418 4.761654 10.716858 C 4.785918 10.854351 4.794005 10.993866 4.814225 11.131355 C 4.836466 11.264805 4.909256 11.355789 4.949694 11.466995 C 4.982045 11.549896 4.978001 11.620663 5.010352 11.707607 C 5.077076 11.936085 5.131668 12.160519 5.212545 12.391018 C 5.269159 12.550751 5.356102 12.700375 5.412716 12.854042 C 5.434957 12.924812 5.428892 12.987488 5.447089 13.064323 C 5.487528 13.224052 5.513813 13.381767 5.558295 13.537453 C 5.671524 13.850853 5.778686 14.190536 5.889892 14.499893 C 5.952572 14.673779 5.972791 14.841599 6.031427 15.009418 C 6.280125 15.684742 6.530844 16.354004 6.775497 17.02124 C 6.815937 17.17086 6.858397 17.320484 6.896813 17.468086 C 6.951405 17.617706 7.04037 17.74509 7.10305 17.880562 C 7.183927 18.054443 7.20819 18.23642 7.276936 18.420418 C 7.351747 18.636765 7.454866 18.802559 7.537765 19.026993 C 7.576182 19.132133 7.614598 19.251427 7.663125 19.356567 C 7.69952 19.433399 7.766243 19.508217 7.80466 19.587067 C 7.871384 19.718494 7.881493 19.886314 7.944173 20.01976 C 8.010898 20.15321 8.122103 20.264416 8.200958 20.385735 C 8.269704 20.503006 8.277791 20.650604 8.336428 20.782028 C 8.429437 20.986244 8.548731 21.174286 8.637695 21.390633 C 8.67409 21.481621 8.690266 21.562492 8.730704 21.649437 C 8.777208 21.748508 8.85202 21.843544 8.898524 21.948685 C 8.898524 21.948685 8.902564 21.948685 8.906614 21.958794 C 8.910654 21.972946 8.918747 21.993164 8.920769 22.015411 C 8.9329 22.055855 8.947054 22.108421 8.961207 22.146839 C 8.981426 22.203449 9.046128 22.308594 9.072413 22.347008 C 9.088589 22.367229 9.137115 22.4198 9.173511 22.468327 C 9.191708 22.486526 9.207883 22.508766 9.22608 22.533028 C 9.313024 22.672539 9.323133 22.868668 9.395923 23.024353 C 9.468711 23.171955 9.596093 23.293274 9.668883 23.448959 C 9.727519 23.566231 9.755826 23.859413 9.685059 23.871544 C 9.381769 23.871544 9.359529 23.446938 9.258431 23.224525 C 9.175532 23.05064 9.054216 22.907082 8.96323 22.741287 C 8.94301 22.708935 8.914703 22.642216 8.894484 22.573463 C 8.876287 22.514824 8.850001 22.452148 8.825738 22.403622 C 8.787321 22.322742 8.787321 22.334885 8.761036 22.276241 C 8.732729 22.219631 8.647808 22.112465 8.623545 22.061916 C 8.621525 22.059914 8.619504 22.055817 8.619504 22.051804 C 8.502226 21.865784 8.425392 21.600914 8.342493 21.47353 C 8.295989 21.404785 8.235331 21.334015 8.188827 21.263248 C 8.114015 21.141933 8.073576 20.998375 8.012918 20.864929 C 7.956305 20.745636 7.865317 20.626343 7.808703 20.498962 C 7.74198 20.349335 7.737936 20.161297 7.665146 20.009651 C 7.630774 19.92675 7.56405 19.843857 7.523611 19.767021 C 7.43869 19.593136 7.388142 19.409142 7.303221 19.239296 C 7.264804 19.156399 7.189993 19.079567 7.149554 18.996666 C 7.08283 18.851086 7.046436 18.697418 6.971624 18.563972 C 6.811892 18.276855 6.640028 17.959415 6.510624 17.656128 C 6.431769 17.478195 6.403462 17.298244 6.32865 17.126381 C 6.261927 16.974735 6.168918 16.827133 6.102194 16.683578 C 6.053668 16.588547 6.043558 16.491493 6.005142 16.384331 C 5.94044 16.216511 5.865628 16.042625 5.802948 15.874805 C 5.766554 15.757534 5.736225 15.504791 5.69983 15.403694 C 5.653326 15.276314 5.588624 15.138821 5.534032 15.013462 C 5.449111 14.829468 5.424848 14.635361 5.341949 14.449345 C 5.277246 14.303764 5.206479 14.154144 5.153909 14.006542 C 5.107404 13.88118 5.095273 13.763908 5.044724 13.648659 C 5.006308 13.559696 4.953738 13.460621 4.921387 13.369633 C 4.878926 13.260448 4.850619 13.080498 4.818268 12.934917 C 4.763676 12.775185 4.696953 12.623543 4.648426 12.465828 C 4.618097 12.346535 4.614053 12.0756 4.587768 12.002808 C 4.417926 11.5135 4.264259 10.989822 4.108571 10.500515 C 4.037803 10.274059 4.00343 10.0476 3.940751 9.829231 C 3.918509 9.738247 3.916487 9.627041 3.892224 9.538074 C 3.847742 9.396538 3.789106 9.250961 3.744623 9.105381 C 3.72036 9.00631 3.704185 8.905212 3.685987 8.808159 C 3.663746 8.707062 3.609154 8.601921 3.568715 8.500824 C 3.475707 8.205624 3.423136 7.892223 3.336193 7.603088 C 3.307886 7.483795 3.307886 7.328106 3.275536 7.218922 C 3.160285 6.86306 3.136022 6.448566 3.030882 6.074509 C 3.006619 5.965324 2.992465 5.85614 2.96618 5.757065 C 2.782185 5.057476 2.699285 4.272968 2.49507 3.601688 C 2.456654 3.472282 2.507202 3.308506 2.472829 3.168995 C 2.430369 3.011284 2.387908 2.873791 2.343426 2.736301 C 2.323206 2.663513 2.321184 2.608921 2.309053 2.544216 C 2.272658 2.430988 2.22211 2.340004 2.15943 2.354156 C 2.084619 2.376396 2.100794 2.445145 2.102816 2.540173 C 2.110906 2.697884 2.127079 2.82729 2.157408 2.952648 C 2.183693 3.059811 2.165498 3.148773 2.195825 3.243805 C 2.260527 3.460152 2.280746 3.767487 2.319163 3.965633 C 2.331295 4.046513 2.319163 4.157719 2.335338 4.25275 C 2.357579 4.353844 2.434412 4.48325 2.454632 4.592434 C 2.476872 4.735992 2.47485 4.92403 2.497092 5.081741 C 2.525398 5.213165 2.565837 5.340546 2.60021 5.463886 C 2.628517 5.571049 2.6083 5.674168 2.640649 5.773239 C 2.670978 5.876358 2.72557 5.977455 2.745789 6.090683 C 2.761965 6.21402 2.743769 6.393974 2.770052 6.50518 C 2.927763 7.119846 2.974267 7.84774 3.154219 8.436123 C 3.17646 8.521042 3.180504 8.61203 3.200723 8.696953 C 3.350346 9.214565 3.465596 9.76453 3.621284 10.276081 C 3.641504 10.354931 3.639482 10.437836 3.659702 10.526798 C 3.71025 10.706749 3.752711 10.900856 3.793149 11.080807 C 3.811346 11.167747 3.809324 11.244583 3.833588 11.325462 C 3.886158 11.5135 3.95086 11.695473 4.01354 11.881493 C 4.035781 11.974503 4.045891 12.063465 4.062066 12.152431 C 4.078242 12.223202 4.114636 12.304077 4.136877 12.372822 C 4.169228 12.479984 4.159118 12.583103 4.191469 12.682175 C 4.215732 12.738785 4.262237 12.803493 4.27639 12.864151 C 4.300653 12.975357 4.314807 13.084541 4.345136 13.191704 C 4.389618 13.321106 4.458364 13.448486 4.510934 13.575871 C 4.551373 13.683033 4.551373 13.792217 4.591811 13.897358 C 4.664601 14.075287 4.743456 14.289612 4.814223 14.483719 C 4.870837 14.641426 4.878925 14.803181 4.935539 14.962914 C 4.973956 15.070076 5.024504 15.17926 5.060899 15.284401 C 5.085162 15.36528 5.099316 15.446156 5.127623 15.5331 C 5.153908 15.60791 5.238829 15.729225 5.293421 15.832344 C 5.339925 15.94355 5.317684 16.095196 5.352057 16.216511 C 5.390474 16.339851 5.459219 16.438923 5.50168 16.552155 C 5.540097 16.667404 5.538075 16.790741 5.570426 16.908012 C 5.602777 16.999001 5.665457 17.085941 5.701851 17.17086 C 5.738246 17.271957 5.774642 17.369011 5.811036 17.468086 C 5.839343 17.530766 5.893935 17.59951 5.926286 17.660172 C 5.978856 17.773399 6.023339 17.90078 6.069843 18.018051 C 6.136567 18.183849 6.142633 18.390083 6.195203 18.58419 C 6.209356 18.6408 6.205313 18.772232 6.174984 18.786385 C 6.096128 18.800537 6.009185 18.6772 5.956615 18.602386 C 5.865628 18.472984 5.778685 18.331451 5.711962 18.177784 C 5.687698 18.119148 5.675567 18.064556 5.655348 18.003899 C 5.604799 17.876518 5.566382 17.728912 5.507747 17.601532 C 5.473374 17.520657 5.420804 17.435738 5.392497 17.350815 C 5.352058 17.227478 5.370255 17.081898 5.321729 16.974735 C 5.281291 16.885773 5.208501 16.812981 5.168062 16.724014 C 5.139755 16.641117 5.12358 16.556194 5.089207 16.473297 C 5.044724 16.374222 4.986089 16.287277 4.929475 16.192245 C 4.889036 16.101261 4.895102 16.012299 4.862751 15.905136 C 4.828378 15.777752 4.78794 15.652393 4.733347 15.537144 C 4.680777 15.419872 4.612031 15.302597 4.559461 15.181282 C 4.535198 15.114559 4.523067 15.045815 4.504869 14.979088 C 4.472518 14.888103 4.423992 14.79105 4.389619 14.702084 C 4.3694 14.633339 4.351202 14.562572 4.322896 14.497871 C 4.280435 14.398796 4.227865 14.28759 4.187426 14.178406 C 4.157097 14.091461 4.153053 13.996433 4.120702 13.909489 C 4.06611 13.753799 4.01354 13.579914 3.958948 13.428268 C 3.926597 13.310997 3.916487 13.191704 3.880093 13.072411 C 3.83561 12.934917 3.774952 12.797428 3.724404 12.657913 C 3.685987 12.546707 3.675878 12.427414 3.643527 12.312164 C 3.590957 12.164562 3.516145 12.027069 3.465597 11.871384 C 3.435268 11.746025 3.429202 11.620663 3.402917 11.503391 C 3.317996 11.214256 3.224987 10.894791 3.134 10.597565 C 3.02886 10.26799 3.01875 9.893936 2.92372 9.560318 C 2.854974 9.321728 2.770053 9.091228 2.697263 8.856686 C 2.670978 8.733345 2.666934 8.620117 2.636606 8.502846 C 2.571904 8.23595 2.474851 7.892223 2.385886 7.615219 C 2.341403 7.469639 2.355557 7.320019 2.313097 7.16433 C 2.270636 7.006618 2.268614 6.820602 2.218066 6.652779 C 2.185715 6.551685 2.147298 6.476871 2.123035 6.345448 C 2.094728 6.21402 2.09675 6.060356 2.078553 5.961281 C 2.060355 5.862206 1.890513 5.279888 1.870294 5.170704 C 1.850075 5.063545 1.850075 4.865395 1.837943 4.794624 C 1.825811 4.748123 1.738868 4.497402 1.728759 4.430679 C 1.716627 4.365978 1.716627 4.291164 1.692364 4.161762 C 1.664057 4.03236 1.589246 3.745243 1.577114 3.662346 C 1.56296 3.577423 1.56296 3.409603 1.546785 3.326706 C 1.528588 3.243805 1.473995 3.049702 1.435579 2.912209 C 1.389074 2.744389 1.427491 2.568481 1.380987 2.41077 C 1.344592 2.293499 1.306175 2.180271 1.261693 2.069065 C 1.235408 1.976055 1.203057 1.844631 1.196991 1.785995 C 1.190925 1.695007 1.18486 1.513035 1.178794 1.444286 C 1.176772 1.35128 1.136333 1.193569 1.128245 1.056076 C 1.116114 0.868038 1.075675 0.669888 1.045346 0.554638 C 1.029171 0.485893 1.035237 0.405014 1.021083 0.342335 C 0.972557 0.15834 0.928074 -0.011501 0.835065 0.000629 C 0.768342 0.010738 0.742057 0.067352 0.772386 0.186646 C 0.804737 0.330204 0.81889 0.443432 0.857307 0.582947 C 0.873482 0.657757 0.879548 0.845795 0.879548 0.908478 C 0.885614 1.009571 0.889658 1.031815 0.901789 1.13089 C 0.909877 1.167282 0.926052 1.260292 0.938184 1.300732 C 0.952337 1.365433 0.972557 1.460464 0.970535 1.506966 C 0.970535 1.571671 0.968513 1.640415 0.968513 1.733425 C 0.968513 1.781948 0.970535 1.798126 0.988732 1.881023 C 1.008951 1.961903 1.017039 1.980099 1.023105 2.046822 C 1.027145 2.105457 1.021085 2.162071 1.025125 2.21262 C 1.025125 2.277325 1.033215 2.340004 1.053432 2.39864 C 1.087805 2.521976 1.16666 2.689796 1.136331 2.869747 C 1.099936 3.061832 1.158572 3.243805 1.203055 3.409603 C 1.223274 3.516766 1.203055 3.634037 1.223274 3.737156 C 1.261691 3.878693 1.298085 4.028313 1.33448 4.177937 C 1.364809 4.299255 1.34459 4.40844 1.376941 4.525711 C 1.419402 4.68544 1.530608 4.903809 1.546783 4.976601 C 1.558915 5.049389 1.556893 5.245518 1.577112 5.370876 C 1.599353 5.494213 1.629682 5.637772 1.63777 5.716625 C 1.64788 5.797504 1.63575 5.831879 1.64384 5.890511 C 1.65193 5.94915 1.730783 6.230198 1.742915 6.302986 C 1.75909 6.375774 1.755046 6.414192 1.771222 6.489006 C 1.785375 6.56786 1.850077 6.869125 1.862209 6.966179 C 1.878384 7.065254 1.874341 7.121868 1.892538 7.220943 C 1.920845 7.370567 1.981503 7.495926 2.011832 7.639481 C 2.032051 7.748665 2.025985 7.815392 2.038117 7.900311 C 2.070468 8.035782 2.11495 8.157097 2.139214 8.284477 C 2.159433 8.385574 2.161455 8.482628 2.179653 8.585747 C 2.226157 8.802094 2.256486 9.020462 2.317144 9.236809 C 2.353539 9.364189 2.426328 9.481461 2.464745 9.604797 C 2.495074 9.718025 2.505184 9.841366 2.535513 9.952572 C 2.565842 10.0476 2.632566 10.136566 2.656829 10.239685 C 2.673004 10.328644 2.670982 10.419636 2.687158 10.510624 C 2.709399 10.611721 2.753882 10.712818 2.774101 10.817955 C 2.790276 10.896816 2.782191 10.973648 2.80443 11.056545 C 2.830715 11.147537 2.87722 11.230431 2.899461 11.317375 C 2.91968 11.428581 2.91968 11.539787 2.947987 11.653015 C 2.980338 11.782417 3.03493 11.909798 3.075368 12.029091 C 3.113785 12.140297 3.093565 12.263638 3.127938 12.384953 C 3.200727 12.647804 3.287671 12.938961 3.374614 13.185638 C 3.413031 13.317062 3.406965 13.454552 3.455491 13.59811 C 3.491886 13.693142 3.532324 13.757843 3.572763 13.840744 C 3.603092 13.925663 3.574783 14.018673 3.60107 14.115723 C 3.643531 14.275459 3.665772 14.491806 3.724408 14.647491 C 3.787088 14.823402 3.890206 14.966957 3.950864 15.138821 C 4.013544 15.318775 4.017588 15.498726 4.078246 15.686764 C 4.132837 15.846497 4.215737 15.994099 4.276394 16.139679 C 4.326942 16.267059 4.308745 16.436901 4.357272 16.574394 C 4.413886 16.721992 4.517004 16.83522 4.57564 16.98687 C 4.63832 17.160751 4.68078 17.334641 4.733351 17.5065 C 4.75357 17.581314 4.765702 17.654106 4.779855 17.726891 C 4.844556 17.953346 4.965872 18.141388 5.044727 18.355713 C 5.075057 18.454784 5.083145 18.539711 5.111452 18.632717 C 5.166043 18.788406 5.228724 18.948139 5.301513 19.093719 C 5.360149 19.227165 5.447092 19.358589 5.50775 19.492039 C 5.562342 19.615376 5.572452 19.738716 5.625022 19.868118 C 5.67557 19.991455 5.734206 20.124901 5.780711 20.252281 C 5.811039 20.331146 5.813061 20.401909 5.847435 20.474697 C 6.001101 20.816402 6.187119 21.162155 6.344829 21.495773 C 6.427728 21.679768 6.468167 21.877914 6.557132 22.065956 C 6.623856 22.211533 6.706755 22.351048 6.773479 22.508759 C 6.813918 22.607826 6.826048 22.702866 6.86851 22.795876 C 6.953431 22.979866 7.074747 23.165886 7.155623 23.34584 C 7.177865 23.394367 7.244589 23.58847 7.216282 23.66328 C 7.212242 23.673393 7.212242 23.687538 7.198085 23.693611 C 7.14147 23.707764 7.028243 23.61071 6.963541 23.546009 C 6.743146 23.335728 6.708773 22.929321 6.557128 22.652313 C 6.514668 22.571438 6.460076 22.484497 6.423681 22.401596 C 6.40144 22.340939 6.389308 22.284325 6.361001 22.227711 C 6.265971 22.04776 6.146677 21.886002 6.063777 21.695946 C 6.001098 21.558449 5.99301 21.402763 5.934374 21.273361 C 5.685677 20.735527 5.396541 20.219933 5.157953 19.680077 C 5.048769 19.435425 5.024505 19.158421 4.929475 18.891525 C 4.870839 18.733814 4.775808 18.606434 4.709084 18.45681 C 4.658536 18.34156 4.646404 18.220245 4.591812 18.100952 C 4.523067 17.949303 4.423992 17.805748 4.365356 17.637928 C 4.330983 17.530766 4.314808 17.421581 4.274369 17.316441 C 4.223821 17.197147 4.144966 17.098072 4.092395 16.984844 C 4.017584 16.815002 4.005453 16.647182 3.95086 16.453079 C 3.918509 16.347939 3.876049 16.240776 3.843698 16.145744 C 3.817413 16.056778 3.805281 15.963768 3.774952 15.878849 C 3.702163 15.674633 3.580847 15.496704 3.504014 15.288445 C 3.453465 15.148933 3.465597 14.971001 3.402917 14.835533 C 3.354391 14.724327 3.265426 14.635361 3.220943 14.518089 C 3.170395 14.394753 3.216899 14.249172 3.176461 14.105614 C 3.140066 13.968124 3.083452 13.840744 3.03897 13.709316 C 3.014707 13.626419 3.006619 13.547562 2.984377 13.468708 C 2.919676 13.30291 2.86104 13.13509 2.802404 12.969292 C 2.770053 12.884369 2.770053 12.805515 2.73568 12.72868 C 2.689176 12.629608 2.618408 12.536598 2.579991 12.429436 C 2.537531 12.265659 2.525399 12.095818 2.486983 11.938107 C 2.422281 11.723782 2.343426 11.55394 2.280746 11.349724 C 2.268614 11.285023 2.268614 11.222343 2.248395 11.149555 C 2.197847 10.967579 2.173584 10.763367 2.123035 10.58139 C 2.102816 10.492424 2.10686 10.417614 2.084619 10.330673 C 2.03407 10.158806 1.977456 9.986942 1.924886 9.823166 C 1.896579 9.713982 1.892535 9.606819 1.864228 9.5037 C 1.781329 9.234787 1.704496 8.917343 1.62564 8.658535 C 1.605421 8.581703 1.609465 8.510933 1.587224 8.426014 C 1.522522 8.219776 1.437601 7.973099 1.391096 7.760799 C 1.368855 7.637459 1.366833 7.518166 1.340548 7.404938 C 1.308197 7.261383 1.257649 7.12389 1.229342 6.980331 C 1.219232 6.913609 1.229342 6.865082 1.223272 6.808468 C 1.211145 6.715462 1.203057 6.624474 1.186881 6.531464 C 1.091851 6.157406 0.948294 5.700451 0.867416 5.328415 C 0.841131 5.192947 0.837087 5.057476 0.822934 4.92403 C 0.806758 4.83102 0.800693 4.721836 0.774408 4.624783 C 0.744079 4.527733 0.701618 4.426636 0.685443 4.325539 C 0.665223 4.165806 0.665223 4.008095 0.64096 3.854427 C 0.64096 3.844318 0.634894 3.832188 0.632872 3.820057 C 0.600522 3.627972 0.505491 3.239761 0.48325 3.084072 C 0.458986 2.900078 0.436745 2.710014 0.412482 2.530064 C 0.408438 2.41077 0.388219 2.285412 0.374065 2.160049 C 0.345758 1.967968 0.301276 1.800148 0.279035 1.599976 C 0.264881 1.468552 0.270947 1.35128 0.254771 1.238052 C 0.246684 1.167282 0.24264 1.045967 0.151653 1.045967 C 0.06471 1.045967 0.076842 1.149086 0.070776 1.231983 C 0.058644 1.430134 0.097061 1.690964 0.113236 1.814301 C 0.139521 2.042778 0.121324 2.267212 0.143565 2.499737 C 0.159741 2.631161 0.200179 2.760563 0.214333 2.883904 C 0.246684 3.104294 0.268925 3.328728 0.297232 3.539009 L 0.297232 3.55114 C 0.30532 3.650215 0.317451 3.747269 0.335649 3.840275 C 0.337671 3.850388 0.337671 3.860497 0.341715 3.868584 C 0.341715 3.874653 0.341715 3.878693 0.343737 3.882736 C 0.345759 3.888805 0.345759 3.890827 0.347781 3.898911 L 0.349803 3.898911 C 0.357891 3.943394 0.365978 3.985855 0.37811 4.028313 C 0.400351 4.111214 0.392263 4.179958 0.416526 4.266903 C 0.48325 4.521664 0.467075 4.798668 0.539864 5.045345 C 0.640961 5.415359 0.693531 5.825809 0.800693 6.189758 C 0.826978 6.296921 0.800693 6.404083 0.831022 6.519333 C 0.859329 6.636604 0.889658 6.74781 0.917965 6.865082 C 0.946272 7.002575 0.926053 7.14613 0.96447 7.287666 C 0.996821 7.417068 1.035237 7.548496 1.06961 7.671833 C 1.110049 7.823479 1.114092 7.979164 1.154531 8.142944 C 1.203057 8.306717 1.25765 8.486671 1.287978 8.654491 C 1.320329 8.844551 1.340548 9.058876 1.376943 9.26107 C 1.407272 9.426868 1.498259 9.627041 1.538698 9.809013 C 1.55083 9.869671 1.544768 9.930328 1.554873 9.990986 C 1.577114 10.122414 1.617553 10.249794 1.643838 10.375153 C 1.657992 10.433792 1.653948 10.486359 1.672145 10.549038 C 1.730781 10.787628 1.807614 11.088898 1.882426 11.327484 C 1.900623 11.392181 1.908711 11.46093 1.924887 11.529675 C 1.973413 11.699516 2.023962 11.824875 2.04418 11.915863 C 2.060355 11.994713 2.068444 12.089752 2.090684 12.176693 C 2.127079 12.306099 2.165495 12.419327 2.189759 12.532555 C 2.209979 12.621513 2.224133 12.700371 2.248395 12.789337 C 2.276702 12.8965 2.319164 12.995575 2.363646 13.100716 C 2.436435 13.315041 2.444522 13.543518 2.521356 13.753799 C 2.56786 13.877136 2.626496 13.998451 2.666935 14.129879 C 2.701308 14.251194 2.709396 14.398796 2.74579 14.536285 C 2.820602 14.742523 2.899457 14.979088 2.974268 15.187347 C 3.063233 15.436043 3.117825 15.704964 3.200724 15.939507 C 3.237119 16.034538 3.229031 16.125523 3.261382 16.22662 C 3.330128 16.459145 3.411005 16.724014 3.487839 16.960579 C 3.528278 17.085938 3.528278 17.207256 3.578826 17.32655 C 3.657681 17.524696 3.772931 17.690498 3.847742 17.894714 C 3.9084 18.070618 3.922553 18.244507 3.991299 18.40424 C 4.078242 18.620583 4.175295 18.840977 4.262238 19.069454 C 4.318852 19.227165 4.339071 19.382851 4.403773 19.530457 C 4.458365 19.657837 4.531155 19.789261 4.591813 19.918663 C 4.630229 20.031891 4.668646 20.141075 4.705041 20.254303 C 4.737392 20.341248 4.828379 20.486828 4.891058 20.602077 C 4.961826 20.757767 4.971935 20.923565 5.032594 21.091385 C 5.12358 21.346146 5.250962 21.604958 5.356102 21.843544 C 5.398563 21.936554 5.404628 22.023495 5.443046 22.122566 C 5.507747 22.292412 5.616931 22.419792 5.687699 22.577503 C 5.756445 22.727127 5.774642 22.884834 5.839344 23.028397 C 5.938419 23.240696 6.009186 23.34988 6.009186 23.653168 C 6.007166 23.68148 6.001096 23.701698 5.968747 23.713829 C 5.914155 23.736069 5.849453 23.639023 5.811036 23.604645 C 5.649282 23.448956 5.625019 23.295288 5.5219 23.074898 C 5.368234 22.74128 5.172106 22.425858 5.020462 22.102348 C 4.939584 21.93251 4.907233 21.74649 4.828378 21.570583 C 4.779852 21.465443 4.709084 21.35828 4.66258 21.253139 C 4.591812 21.099472 4.555418 20.939743 4.476562 20.80225 C 4.365356 20.602077 4.274369 20.359447 4.183382 20.13501 C 4.149009 20.050091 4.144966 19.967194 4.108571 19.884293 C 4.068132 19.795326 4.00343 19.718494 3.965014 19.631554 C 3.9084 19.496082 3.869983 19.324219 3.813369 19.18066 C 3.690031 18.911743 3.55254 18.626652 3.4474 18.34156 C 3.352369 18.08073 3.307886 17.830009 3.212856 17.563118 C 3.172417 17.453934 3.119847 17.336662 3.08143 17.225456 C 3.051101 17.126381 3.049079 17.039436 3.014707 16.946426 C 2.927763 16.70784 2.816557 16.453079 2.711417 16.224602 C 2.662891 16.109348 2.648737 16.000168 2.604254 15.878849 C 2.553706 15.729225 2.486983 15.569492 2.434412 15.425934 C 2.363645 15.233852 2.361623 15.009418 2.288834 14.80925 C 2.135167 14.376553 1.932974 13.925663 1.799526 13.47073 C 1.775263 13.365589 1.783351 13.258427 1.751 13.153286 C 1.680232 12.92683 1.605421 12.674088 1.534653 12.429436 C 1.455798 12.160519 1.463886 11.877449 1.380987 11.614597 C 1.273824 11.272892 1.150487 10.91703 1.045346 10.58139 C 1.015017 10.480293 1.029171 10.373131 0.99682 10.263947 C 0.926052 10.005142 0.835065 9.697807 0.748123 9.457199 C 0.705662 9.335884 0.705662 9.204456 0.659158 9.091228 C 0.604565 8.951714 0.465052 9.002262 0.477184 9.157951 C 0.487294 9.299488 0.53582 9.479439 0.549973 9.552231 C 0.566149 9.649281 0.566149 9.746334 0.58839 9.849453 C 0.63085 10.031425 0.689487 10.183071 0.740035 10.348869 C 0.796649 10.522755 0.796649 10.682487 0.843153 10.86042 C 0.87146 10.947357 0.905833 11.044411 0.932118 11.127312 C 0.984688 11.305241 0.984688 11.495304 1.045346 11.657059 C 1.09185 11.780396 1.126223 11.936085 1.166662 12.071556 C 1.190925 12.160515 1.186881 12.233307 1.215188 12.322273 C 1.261692 12.484028 1.312241 12.643761 1.364811 12.805515 C 1.389074 12.896507 1.380986 12.977379 1.399184 13.062302 C 1.435579 13.191704 1.465908 13.321106 1.502302 13.440399 C 1.534653 13.553627 1.530609 13.711338 1.571048 13.832657 C 1.641816 14.053047 1.724715 14.28759 1.797505 14.497871 C 1.882426 14.730392 1.892536 14.971001 1.975434 15.209591 C 2.127079 15.626106 2.26457 16.107327 2.414193 16.529907 C 2.454632 16.637074 2.4425 16.74828 2.474851 16.865551 C 2.525399 17.045502 2.565838 17.225456 2.628518 17.405407 C 2.658847 17.490326 2.715461 17.577271 2.749834 17.654106 C 2.800382 17.757221 2.810492 17.868427 2.859018 17.975594 C 2.897435 18.058491 2.952027 18.145432 2.984378 18.232376 C 3.030882 18.365822 3.014707 18.531624 3.067277 18.656982 C 3.105694 18.75808 3.160286 18.869286 3.200724 18.974426 C 3.245206 19.089676 3.243185 19.215034 3.291711 19.324219 C 3.330128 19.417229 3.398873 19.508217 3.443356 19.601223 C 3.487838 19.688164 3.495926 19.781174 3.528277 19.880249 C 3.568716 19.981346 3.623308 20.084465 3.665768 20.179497 C 3.712272 20.284637 3.714294 20.405952 3.764843 20.517159 C 3.805282 20.612186 3.869983 20.703175 3.9084 20.806293 C 3.946817 20.913452 3.948839 21.028706 3.987255 21.141933 C 4.051957 21.30571 4.153053 21.449265 4.223821 21.604958 C 4.276391 21.720207 4.282457 21.851631 4.335027 21.970924 C 4.393663 22.108414 4.476563 22.241863 4.539242 22.373291 C 4.620119 22.555264 4.680777 22.745323 4.761654 22.915169 C 4.895102 23.218456 4.941607 23.550053 5.08112 23.847275 C 5.182216 24.071709 5.321729 24.277946 5.420804 24.494293 C 5.473374 24.61763 5.491572 24.747032 5.548185 24.860264 C 5.608843 24.991692 5.720049 25.102898 5.778686 25.238365 C 5.827211 25.369789 5.865629 25.505257 5.922243 25.632641 C 6.001098 25.800461 6.10826 25.952106 6.185093 26.115883 C 6.229576 26.208893 6.249795 26.299877 6.292256 26.392887 C 6.375155 26.576881 6.514668 26.726505 6.599589 26.906456 C 6.640028 27.023727 6.68451 27.140999 6.724949 27.262318 C 6.815936 27.454399 6.959493 27.618179 7.054523 27.812283 C 7.119226 27.955841 7.16573 28.105461 7.250651 28.236887 C 7.380054 28.441101 7.464975 28.574551 7.592357 28.782808 C 7.675256 28.916256 7.786462 29.112383 7.853186 29.257961 C 7.91991 29.403542 8.031116 29.522835 8.095818 29.66437 C 8.162541 29.803883 8.247462 29.955528 8.322274 30.086954 C 8.407195 30.236576 8.492116 30.343739 8.587147 30.485273 C 8.73677 30.713753 8.8318 30.958406 8.981423 31.190928 C 9.084541 31.352682 9.203835 31.516459 9.317063 31.672148 C 9.622375 32.090687 10.05709 32.832733 10.241086 33.083454 C 10.396774 33.285648 10.524156 33.528278 10.667713 33.73856 C 10.774875 33.90638 10.912367 34.068134 11.031661 34.221802 C 11.130731 34.34716 11.207568 34.484653 11.302599 34.618099 L 11.379429 34.719196 C 15.263557 39.658772 19.256868 42.926212 22.637537 45.07148 L 22.635536 45.073479 C 24.41888 46.185543 25.379297 46.509048 25.379297 46.509048 C 25.603731 46.60408 25.452087 46.767857 25.334818 46.840649 L 5.285334 59.663754 C 5.222654 59.706211 5.068988 59.819439 5.131668 59.944801 C 5.178172 60.039829 5.380365 59.987259 5.434957 59.969059 C 21.5275 54.321812 33.202126 49.677437 40.339542 46.290703 C 47.576031 42.857468 50.00639 40.892151 49.741516 39.913536"/>
    <path id="path2" fill="#006b6e" fill-rule="evenodd" stroke="none" d="M 84.30619 60 C 72.775131 60 67.183144 52.072472 67.183144 44.892578 C 67.183144 35.965786 73.954681 29.320313 84.74369 29.320313 C 90.720512 29.320313 94.913612 31.373047 94.913612 31.373047 L 94.913612 37.804688 L 94.747597 37.662109 C 94.747597 37.662109 92.228188 32.212891 85.222206 32.212891 C 78.473007 32.212891 74.185097 37.21067 74.185097 44.851563 C 74.185097 52.498455 78.596443 56.689453 84.989784 56.689453 C 92.022049 56.689453 95.804237 50.474609 95.804237 50.474609 L 96.060097 50.308594 L 93.730019 58.275391 C 93.730019 58.275391 88.655357 60 84.30619 60 Z M 134.976105 59.517578 L 135.183136 59.320313 C 135.183136 59.320313 137.157745 59.019814 137.157745 55.511719 L 137.157745 32.658203 L 132.167511 32.658203 C 128.67363 32.658203 127.075722 35.222656 127.075722 35.222656 L 126.870644 35.373047 L 126.882362 29.457031 C 126.882362 29.457031 127.376335 29.792969 130.882355 29.792969 L 149.718292 29.792969 C 153.224319 29.792969 153.720245 29.457031 153.720245 29.457031 L 153.708527 35.373047 L 153.501495 35.222656 C 153.501495 35.222656 151.820023 32.658203 148.313995 32.658203 L 143.442902 32.658203 L 143.415558 55.511719 C 143.415558 59.019814 145.405792 59.320313 145.405792 59.320313 L 145.603058 59.517578 L 134.976105 59.517578 Z M 157.364777 59.517578 L 157.573761 59.320313 C 157.573761 59.320313 159.55423 59.019814 159.55423 55.511719 L 159.55423 33.738281 C 159.55423 30.236286 157.573761 29.994141 157.573761 29.994141 L 157.364777 29.792969 L 167.987823 29.792969 L 167.794464 29.994141 C 167.794464 29.994141 165.800323 30.236286 165.800323 33.738281 L 165.800323 42.285156 L 180.42337 42.285156 C 180.42337 42.285156 180.407745 37.240177 180.407745 33.738281 C 180.407745 30.236286 178.417511 29.982422 178.417511 29.982422 L 178.224152 29.787109 L 188.855011 29.787109 L 188.649933 29.982422 C 188.649933 29.982422 186.663605 30.236286 186.663605 33.738281 C 186.663605 37.240177 186.675323 52.00972 186.675323 55.511719 C 186.675323 59.019814 188.665558 59.320313 188.665558 59.320313 L 188.870636 59.517578 L 178.23587 59.517578 L 178.440948 59.320313 C 178.440948 59.320313 180.42337 59.019814 180.42337 55.511719 L 180.42337 45.201172 L 165.800323 45.201172 L 165.800323 55.511719 C 165.800323 59.019814 167.794464 59.320313 167.794464 59.320313 L 167.987823 59.517578 L 157.364777 59.517578 Z M 228.345245 59.517578 L 228.542511 59.320313 C 228.542511 59.320313 230.530792 59.019814 230.530792 55.511719 L 230.530792 46.269531 C 227.855774 42.215538 222.884277 35.267059 221.909698 33.789063 C 219.584473 30.287064 217.812042 29.994141 217.812042 29.994141 L 217.614777 29.792969 L 229.855011 29.792969 L 229.663605 29.994141 C 229.663605 29.994141 227.02594 30.703564 229.005402 33.789063 C 229.967834 35.285259 232.851807 39.498981 235.528839 43.546875 C 238.193756 39.498981 241.118866 35.312653 242.089386 33.814453 C 244.070892 30.733055 241.444855 29.994141 241.444855 29.994141 L 241.239777 29.792969 L 250.563995 29.792969 L 250.356964 29.994141 C 250.356964 29.994141 247.710663 30.316456 245.409698 33.814453 C 244.429077 35.296452 239.44812 42.215538 236.769073 46.269531 C 236.769073 50.315331 236.788605 54.029617 236.788605 55.511719 C 236.788605 59.019814 238.769073 59.320313 238.769073 59.320313 L 238.972198 59.517578 L 228.345245 59.517578 Z M 96.267128 59.501953 L 96.460487 59.296875 C 96.460487 59.296875 98.609215 59.216393 100.552284 55.496094 L 113.544472 28.294922 L 126.622597 55.496094 C 128.446365 59.279293 130.70462 59.296875 130.70462 59.296875 L 130.913605 59.501953 L 118.667519 59.501953 L 118.860878 59.296875 C 118.860878 59.296875 121.344025 58.80389 119.772987 55.496094 L 117.511269 50.695313 L 106.37455 50.695313 L 104.046425 55.496094 C 102.465271 58.80389 104.948769 59.296875 104.948769 59.296875 L 105.163612 59.501953 L 96.267128 59.501953 Z M 189.89798 59.501953 L 190.101105 59.296875 C 190.101105 59.296875 192.243958 59.216393 194.187042 55.496094 L 207.17923 28.294922 L 220.257355 55.496094 C 222.08316 59.279293 224.339386 59.296875 224.339386 59.296875 L 224.544464 59.501953 L 212.300323 59.501953 L 212.503448 59.296875 C 212.503448 59.296875 214.990845 58.80389 213.409698 55.496094 L 211.14798 50.695313 L 200.007355 50.695313 L 197.675323 55.496094 C 196.106323 58.80389 198.595245 59.296875 198.595245 59.296875 L 198.784698 59.501953 L 189.89798 59.501953 Z M 107.5933 48.171875 L 116.366737 48.171875 L 112.183144 38.523438 L 107.5933 48.171875 Z M 201.226105 48.171875 L 210.001495 48.171875 L 205.819855 38.523438 L 201.226105 48.171875 Z"/>
</svg>
