<?xml version="1.0" encoding="UTF-8" standalone="no"?>
<!-- Generator: Adobe Illustrator 14.0.0, SVG Export Plug-In . SVG Version: 6.00 Build 43363)  -->

<svg
   xmlns:dc="http://purl.org/dc/elements/1.1/"
   xmlns:cc="http://creativecommons.org/ns#"
   xmlns:rdf="http://www.w3.org/1999/02/22-rdf-syntax-ns#"
   xmlns:svg="http://www.w3.org/2000/svg"
   xmlns="http://www.w3.org/2000/svg"
   xmlns:sodipodi="http://sodipodi.sourceforge.net/DTD/sodipodi-0.dtd"
   xmlns:inkscape="http://www.inkscape.org/namespaces/inkscape"
   version="1.1"
   id="Layer_1"
   x="0px"
   y="0px"
   width="766"
   height="118"
   viewBox="0 0 766 118"
   enable-background="new 0 0 693 864"
   xml:space="preserve"
   inkscape:version="0.91 r13725"
   sodipodi:docname="Delta.svg"><metadata
     id="metadata16"><rdf:RDF><cc:Work
         rdf:about=""><dc:format>image/svg+xml</dc:format><dc:type
           rdf:resource="http://purl.org/dc/dcmitype/StillImage" /></cc:Work></rdf:RDF></metadata><defs
     id="defs14" /><sodipodi:namedview
     pagecolor="#ffffff"
     bordercolor="#666666"
     borderopacity="1"
     objecttolerance="10"
     gridtolerance="10"
     guidetolerance="10"
     inkscape:pageopacity="0"
     inkscape:pageshadow="2"
     inkscape:window-width="640"
     inkscape:window-height="480"
     id="namedview12"
     showgrid="false"
     inkscape:zoom="0.40469974"
     inkscape:cx="383"
     inkscape:cy="59"
     inkscape:window-x="0"
     inkscape:window-y="0"
     inkscape:window-maximized="0"
     inkscape:current-layer="Layer_1" /><path
     clip-path="url(#SVGID_10_)"
     d="m 537.153,841.38 -11.821,-5.691 v -12.52 l 11.821,18.211 z m 0.939,2.176 -12.76,-5.391 v 5.391 h 12.76 z"
     id="path63"
     style="fill:#98002e"
     transform="matrix(5.7879466,0,0,5.7879466,-2966.7394,-4764.4571)" /><polygon
     clip-path="url(#SVGID_10_)"
     points="513.508,841.38 525.332,823.169 525.332,835.688 "
     id="polygon65"
     style="fill:#e31937"
     transform="matrix(5.7879466,0,0,5.7879466,-2966.7394,-4764.4571)" /><polygon
     clip-path="url(#SVGID_10_)"
     points="512.572,843.556 525.332,843.556 525.332,838.165 "
     id="polygon67"
     style="fill:#e31937"
     transform="matrix(5.7879466,0,0,5.7879466,-2966.7394,-4764.4571)" /><path
     clip-path="url(#SVGID_10_)"
     d="m 548.048,841.38 h 5.738 c 5.896,0 9.415,-3.053 9.415,-8.123 0,-5.068 -3.519,-8.119 -9.415,-8.119 h -5.738 v 16.242 z m 3.627,-13.422 h 2.108 c 3.828,0 5.741,1.887 5.741,5.299 0,3.41 -1.913,5.301 -5.741,5.301 h -2.108 v -10.6 z"
     id="path93"
     style="fill:#003d79"
     transform="matrix(5.7879466,0,0,5.7879466,-2966.7394,-4764.4571)" /><polygon
     clip-path="url(#SVGID_10_)"
     points="575.524,834.339 582.422,834.339 582.422,831.519 575.524,831.519 575.524,827.958 583.321,827.958 583.321,825.138 571.895,825.138 571.895,841.38 583.575,841.38 583.575,838.558 575.524,838.558 "
     id="polygon95"
     style="fill:#003d79"
     transform="matrix(5.7879466,0,0,5.7879466,-2966.7394,-4764.4571)" /><polygon
     clip-path="url(#SVGID_10_)"
     points="604.243,838.558 597.25,838.558 597.25,825.138 593.607,825.138 593.607,841.38 604.243,841.38 "
     id="polygon97"
     style="fill:#003d79"
     transform="matrix(5.7879466,0,0,5.7879466,-2966.7394,-4764.4571)" /><polygon
     clip-path="url(#SVGID_10_)"
     points="623.834,825.138 609.256,825.138 609.256,827.958 614.721,827.958 614.721,841.38 618.369,841.38 618.369,827.958 623.834,827.958 "
     id="polygon99"
     style="fill:#003d79"
     transform="matrix(5.7879466,0,0,5.7879466,-2966.7394,-4764.4571)" /><path
     clip-path="url(#SVGID_10_)"
     d="m 644.916,841.38 h -3.799 l -1.592,-4.07 h -6.607 l -1.586,4.07 h -3.551 l 6.793,-16.311 v -0.002 h 3.664 l 6.678,16.313 z m -6.422,-6.787 -2.27,-5.764 -2.273,5.764 h 4.543 z"
     id="path101"
     style="fill:#003d79"
     transform="matrix(5.7879466,0,0,5.7879466,-2966.7394,-4764.4571)" /></svg>