<?xml version="1.0" encoding="utf-8"?>
<!-- Generator: Adobe Illustrator 23.0.2, SVG Export Plug-In . SVG Version: 6.00 Build 0)  -->
<svg version="1.1"
	 id="Layer_1" inkscape:version="0.45.1" xmlns:cc="http://web.resource.org/cc/" xmlns:dc="http://purl.org/dc/elements/1.1/" xmlns:inkscape="http://www.inkscape.org/namespaces/inkscape" xmlns:rdf="http://www.w3.org/1999/02/22-rdf-syntax-ns#" xmlns:sodipodi="http://sodipodi.sourceforge.net/DTD/sodipodi-0.dtd" xmlns:svg="http://www.w3.org/2000/svg"
	 xmlns="http://www.w3.org/2000/svg" xmlns:xlink="http://www.w3.org/1999/xlink" x="0px" y="0px" viewBox="0 0 758.7699 316.53027"
	 style="enable-background:new 0 0 758.7699 316.53027;" xml:space="preserve">
<style type="text/css">
	.st0{fill:#C20925;}
	.st1{fill:#F3D400;}
	.st2{fill:#3E792B;}
</style>
<g>
	<path id="path81" class="st0" d="M579.21765,154.6656c40.85773,3.8627,56.27582,4.16615,75.00708,3.97752
		c17.95233-0.58228,31.46783,1.97647,46.59058-14.08125c15.88507-16.44316,14.03198-25.01329,4.46942-22.33153
		c-14.26178,4.26455-66.07617,21.89688-127.21533,30.40961C575.33038,152.99258,575.97009,154.46057,579.21765,154.6656"/>
	<path id="path83" class="st1" d="M565.36584,150.24522c41.78473-10.6368,146.39752-66.85519,161.92224-76.8523
		c7.65997-4.76483,16.11536-1.93546,2.60791,20.08444c-9.20972,13.53178-15.54071,21.40482-40.10291,28.85139
		c-16.87817,6.38864-79.51807,24.61964-123.39362,29.91754C563.15991,152.51692,562.11823,151.31956,565.36584,150.24522"/>
	<path id="path85" class="st2" d="M569.53247,147.30104c36.45331-12.79369,115.8562-54.58638,142.92822-71.19357
		c19.47754-11.85056,34.54272-20.60931,40.39819-35.46146c12.57245-33.93606,2.95276-47.74668-8.98798-37.15088
		c-15.23785,14.82755-87.04633,90.12984-178.90649,143.06781C563.56982,147.35844,563.39764,149.1955,569.53247,147.30104"/>
</g>
<path class="st0" d="M0,226.9991l9.09507-6.51164V142.3886L0,135.90974h70.23425V151.541l-11.70295-9.1524H22.135v32.55008h26.0218
	l10.37449-7.77461v22.11829l-10.37449-7.84023H22.135v39.04533h37.73277l12.98237-10.42357v16.93521H0z M117.12816,217.8795
	l3.87879,2.60796c-1.79599,3.62489-8.51242,8.40611-17.09092,8.41432c-9.16064,0-15.41807-5.87198-15.41807-13.6138v-48.13214
	H75.51559l25.96474-18.23918v13.00691h19.52662v5.23227h-19.52662v54.6192c0,0,1.4431,1.54179,4.63364,1.54179
	C113.70787,223.31683,116.30775,218.76524,117.12816,217.8795 M124.88625,226.9991l9.16064-6.51164v-74.15414l-9.16064-6.50345
	l22.14301-6.53627v41.63687l7.41371-5.89658c9.50502-7.11853,18.25571-8.3979,23.82387-8.3979
	c14.59816,0,19.52711,6.81511,19.52711,15.61487v44.2366l9.09457,6.51164h-22.13451v-50.74825
	c0-2.87039-2.4437-7.78284-10.38249-7.78284c-4.80582,0-11.76051,1.28758-18.95297,7.02832l-8.3978,5.93759v39.05353
	l9.09506,6.51164H124.88625z M304.50607,194.49004c0-13.6384-6.08524-28.65456-23.41391-28.65456
	c-17.15649,0.00819-23.41391,15.02438-23.41391,28.65456c0,13.5728,6.26541,28.59717,23.41391,28.59717
	C298.41284,223.0872,304.50607,208.06284,304.50607,194.49004 M281.08365,160.63599
	c23.29929-0.03281,39.00467,16.29555,39.06174,33.85405c0,17.4765-15.76245,33.78845-39.06174,33.81305
	c-23.12659,0-39.00418-16.33655-39.06174-33.81305C242.03043,176.93153,257.95706,160.6442,281.08365,160.63599
	 M344.84723,177.55481v33.82945c4.22369,7.08574,12.05585,10.40717,20.86359,10.39078
	c16.45975,0,20.80603-15.22121,20.80603-27.27681c0-12.12119-4.34628-27.38339-20.80603-27.35059
	C356.89456,167.16406,349.00534,170.28865,344.84723,177.55481 M322.69623,253.02113l9.16061-6.51166v-71.5708l-9.16061-6.46245
	l22.14301-6.55266v7.83203c6.07672-7.90585,18.25519-9.1114,26.02179-9.1114c19.12518-0.0246,31.2381,16.91061,31.2381,33.85403
	c0,15.68047-12.11292,33.78845-31.2381,33.81305c-7.7666,0-19.25632-1.58279-26.02179-9.1196v27.31779l7.82364,6.51166H322.69623z
	 M455.47971,210.07208c0,8.18469,5.15869,10.42357,9.10306,10.42357c1.79651,0,5.78192-1.73041,7.81567-2.61615l18.20663-7.80742
	v-16.9024h-14.31934C463.77087,193.16968,455.47971,199.67313,455.47971,210.07208 M450.26392,180.15456v-14.31088
	c5.97061-3.32964,17.66507-5.20769,26.02182-5.20769c18.02594,0,27.3588,5.56854,27.3588,15.61487v44.2448l9.08704,6.51167h-22.1265
	v-10.42357l-24.70184,10.42357c-2.19794,0.88571-5.66675,1.30396-7.81564,1.30396c-9.16064,0-16.92673-6.51985-16.92673-16.91061
	c0-12.71988,14.49103-23.41408,31.24609-23.43867h18.20615v-11.71114c0-6.04422-6.323-10.40718-14.31885-10.40718
	c-4.40387,0-7.70905,0.85291-10.7269,3.12462L450.26392,180.15456z M567.3916,160.63599
	c18.25568,0,22.14301,9.61987,22.14301,15.61487v44.2366l9.08704,6.51164h-22.13501v-50.74825
	c0-3.20663-2.49323-7.78284-12.98236-7.78284c-4.58405,0-11.17786-0.17223-19.53461,6.46245l-7.82416,6.51166v39.04533
	l9.16064,6.51164h-31.24609l9.09503-6.51164v-45.55699l-9.09503-6.46245l22.07745-6.54445v13.0069l6.54419-5.51112
	C553.42511,161.24287,562.57776,160.63599,567.3916,160.63599 M209.51292,226.9991l9.09506-6.51164v-45.54878l-9.09506-6.46245
	l22.14301-6.56087v58.5721l9.08707,6.51164H209.51292z M217.27953,148.91666c0-2.87859,3.29665-5.22411,7.18394-5.22411
	c3.93686,0,7.19246,2.34552,7.19246,5.22411c0,2.87038-3.24759,5.21588-7.19246,5.21588
	C220.57617,154.13254,217.27953,151.78703,217.27953,148.91666 M405.98642,226.9991l9.16064-6.51164v-45.54878l-9.16064-6.46245
	l22.20007-6.56087v58.5721l9.08707,6.51164H405.98642z M413.81006,148.91666c0-2.87859,3.24762-5.22411,7.18448-5.22411
	c3.93634,0,7.19196,2.34552,7.19196,5.22411c0,2.87038-3.24759,5.21588-7.19196,5.21588
	C417.04965,154.13254,413.81006,151.78703,413.81006,148.91666"/>
<path class="st0" d="M281.20679,297.85645l6.95471,5.37988c1.04163,0.68069,2.31253,1.5336,2.31253,3.69049v5.74896l-5.38794,3.8381
	h18.42789l-5.37994-3.8381v-6.11801c0-3.05899-0.41849-5.3389-3.24759-7.47937l-7.70105-6.15903
	c-2.78809-1.99286-2.78809-2.25528-4.34631-3.32965c0,0,6.19989,0.34445,9.16064,0.27884
	c11.76004,0.18866,17.15649-2.64893,18.83786-6.09338c0.91852-1.91904,1.26291-4.46957,1.09872-8.11905
	c-0.17221-3.79712-0.46753-4.25638-1.39404-6.04419c-2.72302-4.96988-10.94864-6.75772-20.10925-6.75772
	c-8.46338,0-17.55844,2.85397-20.33853,9.24261c-0.57413,1.31216-0.9841,2.86221-1.10721,4.34659
	c0.05756,4.39578-1.04166,10.98944,4.46143,15.24579L281.20679,297.85645z M277.31949,275.79553
	c0.11511-6.42145,5.21576-9.76749,13.09698-9.83307c7.59442-0.08203,13.32675,1.65662,13.21213,9.259v2.75555
	c-0.05756,4.10873-1.67285,7.51218-7.5939,8.06165c-7.70102,0.61511-10.03009,0.6561-16.05777,0.09024
	c-3.24759-0.6315-2.72302-6.0278-2.65744-7.85663V275.79553z M564.02936,275.79553
	c0.06555-6.42145,5.22375-9.76749,13.04797-9.83307c7.58588-0.08203,13.32672,1.66479,13.20361,9.259v2.76376
	c0,4.10873-1.6814,7.50397-7.53687,8.05344c-7.7005,0.61511-10.07916,0.6561-16.10681,0.09024
	c-3.19006-0.6315-2.66547-6.0278-2.60791-7.85663V275.79553z M569.53247,289.58154c0,0,6.20782,0.34442,9.1601,0.27884
	c11.76855,0.1886,17.21411-2.64893,18.77228-6.09341c0.92706-1.91907,1.33704-4.46957,1.17285-8.11084
	c-0.18024-3.80533-0.47552-4.25638-1.45966-6.04419c-2.65692-4.97809-10.89105-6.75772-20.10071-6.75772
	c-8.40631,0-17.57501,2.84579-20.29797,9.23444c-0.57367,1.31216-1.0412,2.86215-1.15631,4.34656
	c0.05756,4.39578-0.98407,10.98944,4.46143,15.24582l16.98431,13.53998l-24.57819,2.11588v5.35529l-5.33093,3.8381h18.37036
	l-5.33038-3.8381v-3.00159l27.58801-2.3537v-3.0672L569.53247,289.58154z M514.06854,289.46674
	c-8.57849-0.20502-11.18637-1.53363-11.18637-8.34869c0-6.72488,7.94681-7.5614,12.22751-7.65982
	c10.43207-0.21323,12.34271,3.13281,12.22809,6.7085c-0.05762,2.2963,0,4.53519-5.1012,6.42963
	C521.2525,286.96539,517.38171,288.33496,514.06854,289.46674 M534.88257,303.72021c0-8.73416-6.25739-10.07092-11.53076-10.62042
	c0.68878-0.246,2.55884-0.96771,3.19055-1.18915c6.95422-2.55054,8.63556-5.5029,8.79974-10.48099v-0.164h3.07538v8.4389h12.98242
	l-5.32294-3.84631v-7.64337h-11.12878c-1.09875-3.87091-4.97803-7.47119-16.17242-7.65985v-7.70081l-12.98236,3.85452
	l5.3309,3.84628c-7.88123,0-16.04977,3.31323-16.39413,10.75983c-0.29535,7.09396,4.92044,10.53018,11.92419,10.72699
	l-7.88123,2.7392c-4.04297,1.591-6.77402,3.33783-6.77402,10.23492v7.65982l-5.38794,3.8381h18.42789l-5.38846-3.8381v-6.97092
	c0-2.19788-0.40146-3.89551,3.07541-5.07648c0,0,12.51483-4.46136,13.15454-4.6254
	c6.08527,0.44287,11.36707,0.83652,11.36707,7.63519v9.0376l-5.38843,3.8381h18.42786l-5.38794-3.8381v-8.95557H534.88257z
	 M466.08392,277.97702c-0.05756,4.10873-1.68134,7.50397-7.59439,8.06165c-7.65146,0.6069-10.0296,0.6561-16.04926,0.09024
	c-3.19055-0.63971-2.73105-6.0278-2.61639-7.85663v-2.48495c0.07407-6.42145,5.22427-9.76746,13.05643-9.82486
	c7.58591-0.09024,13.32675,1.65662,13.20361,9.259V277.97702z M490.48193,289.69635l-5.38794-3.84628v-7.63519h-10.66132v-2.55875
	c-0.23776-3.80533-0.52509-4.25638-1.46011-6.04419c-2.71451-4.97809-10.89105-6.75772-20.10074-6.75772
	c-8.40582,0-17.57498,2.85397-20.29749,9.23444c-0.63971,1.31216-1.04166,2.86215-1.20584,4.34656
	c0.11514,4.39578-0.98407,10.98944,4.51901,15.24582l7.7666,6.17542l6.95419,5.3717
	c1.04166,0.68069,2.37863,1.54178,2.32108,3.69049v5.74896l-5.39648,3.83807h18.43591l-5.39597-3.83807v-6.11804
	c0-3.05899-0.40195-5.3389-3.28864-7.47937l-7.66-6.15082c-2.78006-1.99286-2.78006-2.26349-4.34631-3.33783
	c0,0,6.26544,0.34442,9.15213,0.27884c11.82611,0.19684,17.22208-2.64893,18.83786-6.09341
	c0.35291-0.72168,0.63971-1.56638,0.8204-2.50131h3.29666v8.43069H490.48193L490.48193,289.69635z M394.68539,289.69635v22.97125
	l-5.38846,3.83807h18.37085l-5.3309-3.83807v-22.97125h13.79425v8.41431h12.98239l-5.32291-3.82169v-7.6434h-21.44574v-12.26883
	c0-3.0672-1.50867-3.8299-3.82974-3.8299h-3.82172v-7.69263l-13.03995,3.85452l5.32291,3.8381v3.07541h7.70901v13.02332h-21.44623
	v7.6434l-5.38797,3.82169h13.03995v-8.41431H394.68539z M375.49466,316.50568l-5.32239-3.83807v-6.88892h-3.82974l-6.89713,4.6254
	v-15.59024c-0.22977-9.02118-11.3671-9.66086-23.70975-8.12729l9.90695-13.0643v-3.07541h-11.53076v-7.69263l-12.98187,3.84634
	l5.33041,3.84628v3.07541h10.54666l-11.70294,15.34421c-1.80402,2.43573-3.4198,5.35532-3.4198,9.1442v14.55695l-5.50308,3.83807
	h18.54251l-5.38794-3.83807v-14.55695c0-3.18201,1.21384-4.69919,1.62378-5.31427c0.63971-0.85294,1.04166-1.427,1.26291-1.76324
	c0.47601-0.6069,1.22235-0.77911,1.22235-0.77911c1.96817-0.51666,18.08301-2.70633,18.08301,5.1749v16.46774
	c0,3.08362,1.55023,4.60901,3.06741,4.60901c0.81189,0,1.55823,0,3.07538-0.7627c1.55823-0.7627,4.57608-3.07538,4.57608-3.07538
	v3.83807H375.49466L375.49466,316.50568z"/>
</svg>
