<?xml version="1.0" encoding="UTF-8" standalone="no"?>
<!-- Created with Inkscape (http://www.inkscape.org/) -->

<svg
   xmlns:svg="http://www.w3.org/2000/svg"
   xmlns="http://www.w3.org/2000/svg"
   version="1.1"
   width="106.03625"
   height="26.111202"
   id="svg3395">
  <defs
     id="defs3397" />
  <g
     transform="translate(-335.61355,-707.44133)"
     id="layer1">
    <g
       transform="translate(13.631672,188.13475)"
       id="g3621">
      <path
         d="m 328.64188,540.85283 c 0.28,0.155 0.505,0.5125 0.54875,0.88625 0.0762,0.6325 -0.3875,1.225 -1.0325,1.30375 -0.64375,0.0788 -1.2525,-0.41375 -1.31375,-1.0875 -0.0562,-0.6375 0.34,-1.28125 1.02875,-1.63 1.03125,-0.5225 2.40375,-0.3825 3.44125,10e-4 2.31625,0.85125 4.25,3.0475 4.9725,4.15375 -1.21,-4.35125 -6.12,-8.1825 -10.51625,-6.24625 -1.5,0.66 -2.4775,2.17 -2.36125,3.7825 0.13,1.82375 1.56625,3.37875 3.74875,3.40125 1.01875,0.0113 1.98,-0.45375 2.48125,-1.12 0.845,-1.1225 0.50875,-2.87375 -0.9975,-3.445 z m 15.6,0 c -0.27875,0.155 -0.505,0.5125 -0.55,0.88625 -0.075,0.6325 0.38875,1.225 1.0325,1.30375 0.645,0.0788 1.255,-0.41375 1.31375,-1.0875 0.0575,-0.6375 -0.33875,-1.28125 -1.0275,-1.63 -1.03125,-0.5225 -2.4025,-0.3825 -3.44125,10e-4 -2.315,0.85125 -4.25,3.0475 -4.9725,4.15375 1.21125,-4.35125 6.12125,-8.1825 10.51625,-6.24625 1.5,0.66 2.4775,2.17 2.36125,3.7825 -0.13,1.82375 -1.56625,3.37875 -3.74875,3.40125 -1.01875,0.0113 -1.98,-0.45375 -2.48125,-1.12 -0.845,-1.1225 -0.5075,-2.87375 0.9975,-3.445 z m -7.78625,-11.58625 c 4.05375,0 7.34,-2.11125 7.34,-4.715 0,-2.03125 -2,-3.76375 -4.805,-4.4275 3.3175,0.6775 5.71875,2.65125 5.71875,4.9825 0,2.6775 -3.12875,4.5975 -6.11,5.03875 -1.45875,0.21625 -1.775,0.26375 -2.14375,0.66125 -0.3675,-0.3975 -0.6825,-0.445 -2.14125,-0.66125 -2.9825,-0.44125 -6.11125,-2.36125 -6.11125,-5.03875 0,-2.33125 2.40125,-4.305 5.71875,-4.9825 -2.80375,0.66375 -4.80375,2.39625 -4.80375,4.4275 0,2.60375 3.285,4.715 7.3375,4.715 z m 0,3.01 c 0.75375,-0.69625 1.74875,-0.7825 2.62125,-0.96875 4.0825,-0.87 6.76,-3.01625 6.76,-5.73125 0,-1.095 -0.46375,-2.12125 -1.27125,-3.0025 -1.34,-1.47125 -3.63875,-2.545 -6.35,-2.87375 5.0125,0.53125 8.8325,3.295 8.8325,6.62375 0,2.9725 -2.845,5.15625 -7.26,6.37625 -1.9125,0.53125 -2.8375,0.88625 -3.3325,1.72875 -0.49625,-0.8425 -1.42,-1.1975 -3.33375,-1.72875 -4.415,-1.22 -7.26,-3.40375 -7.26,-6.37625 0,-3.32875 3.82,-6.0925 8.83375,-6.62375 -2.71375,0.32875 -5.01125,1.4025 -6.35125,2.87375 -0.8075,0.88125 -1.27125,1.9075 -1.27125,3.0025 0,2.715 2.67875,4.86125 6.76,5.73125 0.87375,0.18625 1.86875,0.2725 2.6225,0.96875 z m 0,4.555 c 0.78375,-1.56875 2.83,-2.39375 4.54625,-2.95625 0.4975,-0.16375 0.71625,-0.2325 1.32,-0.46 3.475,-1.3125 5.8125,-3.7575 5.81875,-6.55625 0,-3.93 -4.58375,-7.1575 -10.4625,-7.5525 7.4225,0.3925 13.2525,4.3325 13.2525,9.135 0,3.2125 -2.27,5.89625 -6.55625,7.67625 -1.725,0.71625 -6.80375,2.20875 -7.91875,7.4825 -1.16875,-5.28875 -6.1925,-6.76625 -7.9175,-7.4825 -4.28625,-1.78 -6.55625,-4.46375 -6.55625,-7.67625 0,-4.8025 5.83,-8.7425 13.2525,-9.135 -5.8775,0.395 -10.46,3.6225 -10.46,7.5525 0.004,2.79875 2.34125,5.24375 5.81625,6.55625 0.60375,0.2275 0.8225,0.29625 1.32125,0.46 1.71625,0.5625 3.76125,1.3875 4.54375,2.95625 z m -2.755,-13.14625 c 0,-1.53875 1.2325,-2.78625 2.75375,-2.78625 1.52125,0 2.7525,1.2475 2.7525,2.78625 0,1.53875 -1.23125,2.785 -2.7525,2.785 -1.52125,0 -2.75375,-1.24625 -2.75375,-2.785"
         id="path2832"
         style="fill:#ee3224;fill-opacity:1;fill-rule:nonzero;stroke:none" />
      <path
         d="m 403.88063,525.20158 0,-1.5475 2.385,0 0,-1.71875 1.77875,0 0,1.71875 2.69625,0 0,1.5475 -6.86,0 z m -3.04375,-0.0912 c 0.2925,0.64 0.55625,1.465 0.745,2.35125 l -1.31625,0.41875 c -0.1275,-0.79 -0.45125,-1.9 -0.685,-2.47 l 1.25625,-0.3 z m -1.49875,2.98 2.57375,0 0,-3.36 -2.57375,0 0,3.36 z m -1.49125,0 0,-4.80875 1.76125,0 c 0.1175,-0.45 0.215,-1.04 0.29625,-1.5425 l 1.64125,0.21125 c -0.12,0.53875 -0.23375,0.93875 -0.3325,1.33125 l 2.18625,0 0,11.495 c 0,0.695 -0.61125,1.2875 -1.32125,1.2875 l -1.52625,0 -0.3775,-1.54 1.3,0.007 c 0.26375,0 0.4375,-0.12875 0.4375,-0.38625 l 0,-4.61875 -2.575,0 c -0.009,2.765 -0.36625,4.93625 -1.07875,6.585 l -0.0488,0.115 -1.39625,-1.00625 0.035,-0.0775 c 0.665,-1.40125 0.99875,-3.24375 0.99875,-5.53 l 0,-0.0862 -1.0075,0 0,-1.43625 1.0075,0 z m 1.7275,2.60125 1.24125,-0.39375 c 0.27375,0.62 0.5475,1.53875 0.785,2.5625 l -1.345,0.36125 c -0.21625,-1.01375 -0.45375,-1.92375 -0.68125,-2.53 z m 9.7525,3.48125 c 0,0.2225 0.095,0.3075 0.29375,0.3075 l 0.14875,0 c 0.13,0 0.2125,-0.0488 0.26125,-0.15125 0.0713,-0.14875 0.16875,-0.89125 0.23625,-1.5425 l 1.48875,0.40125 c -0.0588,0.325 -0.12625,0.87375 -0.2225,1.26 -0.2975,1.18375 -1.0375,1.47 -1.525,1.47 l -1.3575,0 c -0.35875,0 -0.9575,-0.3875 -0.9575,-1.11375 l 0,-6.98 -1.23625,-10e-4 0,1.695 c 0,2.8 -0.47375,5.015 -1.51375,6.64 l -1.32375,-1.18375 c 0.8375,-1.17125 1.3,-3.20375 1.3,-5.97625 l 0,-2.675 4.4075,-0.004 0,7.85375"
         id="path2834"
         style="fill:#ee3224;fill-opacity:1;fill-rule:nonzero;stroke:none" />
      <path
         d="m 428.01813,534.16533 0,1.61 -13.60375,0 0,-1.61 5.91375,0 0,-2.3475 -4.4875,0 0,-1.61125 10.86875,0 0,1.595 -4.64375,0 0,2.36375 5.9525,0 z m -11.68,-7.39875 -1.67625,0 0,-3.50375 5.66625,0 0,-1.3475 1.7375,0 0,1.3475 5.74625,0 0,3.50375 -1.67625,0 0,-1.95625 -9.7975,0 0,1.95625 z m 7.38875,0.14125 c 0,0.43625 0.38,0.71125 0.695,0.71125 l 3.39,0 0,1.53 -4.09375,0 c -0.85,0 -1.64875,-0.75 -1.64875,-1.58375 l 0,-2.165 1.6575,0 0,1.5075 z m -8.5475,2.9525 -0.74875,-1.62375 c 2.5225,-0.34625 3.93125,-1.24375 4.835,-2.93375 l 1.6025,0.68875 c -1.10875,2.14875 -3.155,3.435 -5.68875,3.86875"
         id="path2836"
         style="fill:#ee3224;fill-opacity:1;fill-rule:nonzero;stroke:none" />
      <path
         d="m 366.35688,523.67033 -0.885,1.31625 c -0.1025,-0.0738 -1.5075,-1.07 -2.7025,-1.67625 l 0.86875,-1.2625 c 0.7925,0.3725 1.94375,1.05625 2.71875,1.6225 z m -0.60625,4.175 -0.8675,1.395 c -0.31,-0.245 -2.055,-1.4375 -2.98,-1.88875 l 0.81625,-1.36375 c 0.84375,0.37 2.4825,1.39875 3.03125,1.8575 z m -1.3525,2.5475 1.51875,0.6175 c -0.45,1.26625 -1.8725,4.21375 -2.745,5.37 l -1.515,-0.88375 c 0.875,-1.31625 2.195,-3.6925 2.74125,-5.10375 z m 4.62,-7.12 7.84625,0 0,1.32125 -8.58625,0 c -0.5125,0.825 -1.055,1.53875 -1.47625,2.07375 l -1.28,-0.87375 c 0.83625,-1.05125 1.97875,-2.61625 2.50625,-3.99875 l 1.41625,0.50375 c -0.1275,0.33 -0.27125,0.655 -0.42625,0.97375 z m 0.0325,6 5.4325,0 0.12875,-2.53375 -5.2725,0 c -0.0725,0.71 -0.175,1.605 -0.28875,2.53375 z m 7.58125,3.85875 0,1.2725 -0.87625,0 c -0.11875,1.34875 -0.84875,1.88375 -2.235,1.88375 l -1.02375,0 -0.2675,-1.37375 c 0,0 0.6725,0.12125 1.08625,0.12125 0.52375,0 0.80625,-0.16375 0.87125,-0.63125 l -7.42625,0 c 0.1275,-0.71875 0.37125,-2.31875 0.58875,-3.88875 l -0.965,0 0,-1.2425 1.1225,0 c 0.21,-1.575 0.3875,-3.12375 0.43125,-3.82625 l 8.31875,0 c -0.0438,0.89875 -0.14,2.37625 -0.20625,3.82625 l 0.9075,0 0,1.2425 -0.96625,0 c -0.045,0.945 -0.0963,1.89375 -0.13625,2.61625 l 0.77625,0 z m -8.1175,0 3.43625,0 c -0.5475,-0.56125 -1.1475,-1.11125 -1.80625,-1.59625 l 0.90125,-0.9725 c 0.57875,0.39125 1.46125,1.1325 1.9375,1.61125 l -0.825,0.9575 2.11875,0 c 0.006,-0.11375 0.0813,-1.51375 0.13,-2.61625 l -5.505,0 c -0.1225,0.9325 -0.27375,1.885 -0.3875,2.61625 z m 2.8125,-6.3225 c 0.59875,0.455 1.145,0.915 1.72125,1.45875 l -0.9125,0.98875 c -0.495,-0.4775 -1.11375,-1.005 -1.735,-1.48375 l 0.92625,-0.96375"
         id="path2838"
         style="fill:#ee3224;fill-opacity:1;fill-rule:nonzero;stroke:none" />
      <path
         d="m 387.95813,529.00033 c 0.33,-0.6275 0.57625,-1.2 0.73625,-1.71125 l 0.2925,0 1.05875,0.43 c -0.2025,0.51125 -0.39625,0.93875 -0.5825,1.28125 l 1.46,0 0,1.26875 -3.0425,0 0,1.0925 3.0525,0 0,1.255 -3.0525,0 0,2.9525 -1.4825,0 0,-2.9525 -3.11,0 0,-1.255 3.11,0 0,-1.0925 -3.1175,0 0,-1.26875 1.6175,0 c -0.13375,-0.43375 -0.30625,-0.83875 -0.58625,-1.295 l 1.1175,-0.41 -2.94375,0.005 0,8.615 -1.51125,0 0,-10.015 5.38,0 0,-1.21375 -5.98875,0 0,-1.41125 5.98875,0 0,-1.33375 1.54125,0 0,1.33375 5.93,0 0,1.41125 -5.93,0 0,1.21375 5.38,0 0,8.7375 c 0,0.6275 -0.5175,1.2775 -1.2625,1.2775 l -1.54625,0 -0.355,-1.39875 1.29,0 c 0.1675,0 0.36375,-0.11 0.36375,-0.36375 l 0,-6.86875 -2.77875,0.005 -3.3725,0.006 c 0.2775,0.505 0.50875,1.07375 0.70125,1.705 l 1.6425,0"
         id="path2840"
         style="fill:#ee3224;fill-opacity:1;fill-rule:nonzero;stroke:none" />
      <path
         d="m 426.19938,539.25908 0,0 c -0.58625,0.01 -1.12375,0.305 -1.4,0.77375 -0.2025,0.345 -0.29625,0.90625 0.0525,1.45125 0.24,0.375 0.6825,0.685 1.32,0.9225 0.3325,0.125 1.085,0.48125 0.87,1.115 -0.11875,0.345 -0.45125,0.575 -0.85,0.5825 -0.555,0.01 -0.9425,-0.46625 -1.025,-0.9175 l -0.88375,0.17 c 0.1025,0.58625 0.59,1.63875 1.86875,1.63875 0.71875,0 1.15875,-0.31625 1.4025,-0.57875 0.28625,-0.315 0.4575,-0.745 0.4575,-1.15125 0,-0.725 -0.4475,-1.26875 -1.33,-1.61125 -0.7725,-0.3 -1.15125,-0.60625 -1.1775,-0.935 -0.0312,-0.41375 0.38875,-0.6125 0.7175,-0.585 0.36125,0.0275 0.68875,0.2325 0.81,0.525 l 0.79,-0.385 c -0.28,-0.6375 -0.9,-1.02625 -1.6225,-1.015"
         id="path2842"
         style="fill:#ee3224;fill-opacity:1;fill-rule:nonzero;stroke:none" />
      <path
         d="m 404.20563,539.45783 0,5.39375 0.88375,0 c 0,0 0,-4.53125 0,-4.63125 0.0913,0 0.8475,0 0.8475,0 0.395,0 0.8175,0.32125 0.8175,0.80125 0,0.59125 -0.5025,0.8125 -0.81875,0.8125 l -0.73375,0 2.0175,3.0175 1.03625,0 c 0,0 -1.6125,-2.32 -1.68875,-2.42875 0.5625,-0.1975 1.055,-0.675 1.055,-1.48125 0,-0.80625 -0.69375,-1.48375 -1.5325,-1.48375 l -1.88375,0"
         id="path2844"
         style="fill:#ee3224;fill-opacity:1;fill-rule:nonzero;stroke:none" />
      <path
         d="m 366.10188,539.45783 c 0,0 0,1.99125 0,2.09 -0.095,0 -2.31625,0 -2.41,0 0,-0.0987 0,-2.09 0,-2.09 l -0.8875,0 0,5.39375 0.8875,0 c 0,0 0,-2.4 0,-2.49875 0.0937,0 2.315,0 2.41,0 0,0.0987 0,2.49875 0,2.49875 l 0.8875,0 0,-5.39375 -0.8875,0"
         id="path2846"
         style="fill:#ee3224;fill-opacity:1;fill-rule:nonzero;stroke:none" />
      <path
         d="m 373.70688,539.45783 0.88625,0 0,5.39375 -0.88625,0 0,-5.39375 z"
         id="path2848"
         style="fill:#ee3224;fill-opacity:1;fill-rule:nonzero;stroke:none" />
      <path
         d="m 402.17938,539.45783 0.88625,0 0,5.39375 -0.88625,0 0,-5.39375 z"
         id="path2850"
         style="fill:#ee3224;fill-opacity:1;fill-rule:nonzero;stroke:none" />
      <path
         d="m 412.22438,539.45783 0.88625,0 0,5.39375 -0.88625,0 0,-5.39375 z"
         id="path2852"
         style="fill:#ee3224;fill-opacity:1;fill-rule:nonzero;stroke:none" />
      <path
         d="m 375.67063,544.85158 0.87625,0 c 0,0 0,-3.37375 0,-3.60375 0.16625,0.165 4.14,3.83375 4.14,3.83375 l 0,-5.62375 -0.89875,0 c 0,0 0,3.345 0,3.575 -0.16625,-0.16625 -4.1175,-3.83375 -4.1175,-3.83375 l 0,5.6525"
         id="path2854"
         style="fill:#ee3224;fill-opacity:1;fill-rule:nonzero;stroke:none" />
      <path
         d="m 387.41813,544.85158 0.8775,0 c 0,0 0,-3.37375 0,-3.60375 0.1675,0.165 4.13875,3.83375 4.13875,3.83375 l 0,-5.62375 -0.89875,0 c 0,0 0,3.345 0,3.575 -0.16625,-0.16625 -4.1175,-3.83375 -4.1175,-3.83375 l 0,5.6525"
         id="path2856"
         style="fill:#ee3224;fill-opacity:1;fill-rule:nonzero;stroke:none" />
      <path
         d="m 414.25188,544.85158 0.87625,0 c 0,0 0,-3.37375 0,-3.60375 0.1675,0.165 4.14,3.83375 4.14,3.83375 l 0,-5.62375 -0.89875,0 c 0,0 0,3.345 0,3.575 -0.16625,-0.16625 -4.1175,-3.83375 -4.1175,-3.83375 l 0,5.6525"
         id="path2858"
         style="fill:#ee3224;fill-opacity:1;fill-rule:nonzero;stroke:none" />
      <path
         d="m 367.56563,544.85158 0.9725,0 c 0,0 0.6025,-1.24375 0.62875,-1.29875 0.0612,0 2.315,0 2.37625,0 0.0275,0.055 0.62875,1.29875 0.62875,1.29875 l 0.95875,0 -2.7825,-5.7475 -2.7825,5.7475 z m 2.7825,-3.85 c 0.085,0.1775 0.815,1.73875 0.82125,1.75125 -0.14,0 -1.4875,0 -1.62625,0 0.0588,-0.1275 0.7275,-1.57875 0.805,-1.75125"
         id="path2860"
         style="fill:#ee3224;fill-opacity:1;fill-rule:nonzero;stroke:none" />
      <path
         d="m 381.28813,544.85158 0.97125,0 c 0,0 0.605,-1.24375 0.63125,-1.29875 0.0613,0 2.31375,0 2.375,0 0.0275,0.055 0.62875,1.29875 0.62875,1.29875 l 0.96,0 -2.7825,-5.7475 -2.78375,5.7475 z m 2.78375,-3.85 c 0.0825,0.17625 0.8025,1.71125 0.82,1.75125 -0.13875,0 -1.48625,0 -1.62625,0 0.0588,-0.1275 0.7275,-1.57875 0.80625,-1.75125"
         id="path2862"
         style="fill:#ee3224;fill-opacity:1;fill-rule:nonzero;stroke:none" />
      <path
         d="m 396.01563,544.85158 0.97125,0 c 0,0 0.60375,-1.24375 0.63,-1.29875 0.0625,0 2.315,0 2.37625,0 0.0275,0.055 0.62875,1.29875 0.62875,1.29875 l 0.95875,0 -2.7825,-5.7475 -2.7825,5.7475 z m 2.78375,-3.85 c 0.0812,0.17 0.7675,1.64 0.82,1.75125 -0.14,0 -1.4875,0 -1.62625,0 0.0412,-0.09 0.72625,-1.5775 0.80625,-1.75125"
         id="path2864"
         style="fill:#ee3224;fill-opacity:1;fill-rule:nonzero;stroke:none" />
      <path
         d="m 408.93688,539.48408 0,5.3675 2.6625,0 0,-0.76 c 0,0 -1.67625,0 -1.77375,0 0,-0.1 0,-4.6075 0,-4.6075 l -0.88875,0"
         id="path2866"
         style="fill:#ee3224;fill-opacity:1;fill-rule:nonzero;stroke:none" />
      <path
         d="m 420.40438,539.45533 0,5.39625 3.3175,0 0,-0.76375 c 0,0 -2.3275,0 -2.42625,0 0,-0.095 0,-1.71375 0,-1.80875 0.0987,0 2.35625,0 2.35625,0 l 0,-0.76125 c 0,0 -2.2575,0 -2.35625,0 0,-0.0925 0,-1.20625 0,-1.3 0.0987,0 2.42625,0 2.42625,0 l 0,-0.7625 -3.3175,0"
         id="path2868"
         style="fill:#ee3224;fill-opacity:1;fill-rule:nonzero;stroke:none" />
      <path
         d="m 328.64188,540.85283 c 0.28,0.155 0.505,0.5125 0.54875,0.88625 0.0762,0.6325 -0.3875,1.225 -1.0325,1.30375 -0.64375,0.0788 -1.2525,-0.41375 -1.31375,-1.0875 -0.0562,-0.6375 0.34,-1.28125 1.02875,-1.63 1.03125,-0.5225 2.40375,-0.3825 3.44125,10e-4 2.31625,0.85125 4.25,3.0475 4.9725,4.15375 -1.21,-4.35125 -6.12,-8.1825 -10.51625,-6.24625 -1.5,0.66 -2.4775,2.17 -2.36125,3.7825 0.13,1.82375 1.56625,3.37875 3.74875,3.40125 1.01875,0.0113 1.98,-0.45375 2.48125,-1.12 0.845,-1.1225 0.50875,-2.87375 -0.9975,-3.445 z m 15.6,0 c -0.27875,0.155 -0.505,0.5125 -0.55,0.88625 -0.075,0.6325 0.38875,1.225 1.0325,1.30375 0.645,0.0788 1.255,-0.41375 1.31375,-1.0875 0.0575,-0.6375 -0.33875,-1.28125 -1.0275,-1.63 -1.03125,-0.5225 -2.4025,-0.3825 -3.44125,10e-4 -2.315,0.85125 -4.25,3.0475 -4.9725,4.15375 1.21125,-4.35125 6.12125,-8.1825 10.51625,-6.24625 1.5,0.66 2.4775,2.17 2.36125,3.7825 -0.13,1.82375 -1.56625,3.37875 -3.74875,3.40125 -1.01875,0.0113 -1.98,-0.45375 -2.48125,-1.12 -0.845,-1.1225 -0.5075,-2.87375 0.9975,-3.445 z m -7.78625,-11.58625 c 4.05375,0 7.34,-2.11125 7.34,-4.715 0,-2.03125 -2,-3.76375 -4.805,-4.4275 3.3175,0.6775 5.71875,2.65125 5.71875,4.9825 0,2.6775 -3.12875,4.5975 -6.11,5.03875 -1.45875,0.21625 -1.775,0.26375 -2.14375,0.66125 -0.3675,-0.3975 -0.6825,-0.445 -2.14125,-0.66125 -2.9825,-0.44125 -6.11125,-2.36125 -6.11125,-5.03875 0,-2.33125 2.40125,-4.305 5.71875,-4.9825 -2.80375,0.66375 -4.80375,2.39625 -4.80375,4.4275 0,2.60375 3.285,4.715 7.3375,4.715 z m 0,3.01 c 0.75375,-0.69625 1.74875,-0.7825 2.62125,-0.96875 4.0825,-0.87 6.76,-3.01625 6.76,-5.73125 0,-1.095 -0.46375,-2.12125 -1.27125,-3.0025 -1.34,-1.47125 -3.63875,-2.545 -6.35,-2.87375 5.0125,0.53125 8.8325,3.295 8.8325,6.62375 0,2.9725 -2.845,5.15625 -7.26,6.37625 -1.9125,0.53125 -2.8375,0.88625 -3.3325,1.72875 -0.49625,-0.8425 -1.42,-1.1975 -3.33375,-1.72875 -4.415,-1.22 -7.26,-3.40375 -7.26,-6.37625 0,-3.32875 3.82,-6.0925 8.83375,-6.62375 -2.71375,0.32875 -5.01125,1.4025 -6.35125,2.87375 -0.8075,0.88125 -1.27125,1.9075 -1.27125,3.0025 0,2.715 2.67875,4.86125 6.76,5.73125 0.87375,0.18625 1.86875,0.2725 2.6225,0.96875 z m 0,4.555 c 0.78375,-1.56875 2.83,-2.39375 4.54625,-2.95625 0.4975,-0.16375 0.71625,-0.2325 1.32,-0.46 3.475,-1.3125 5.8125,-3.7575 5.81875,-6.55625 0,-3.93 -4.58375,-7.1575 -10.4625,-7.5525 7.4225,0.3925 13.2525,4.3325 13.2525,9.135 0,3.2125 -2.27,5.89625 -6.55625,7.67625 -1.725,0.71625 -6.80375,2.20875 -7.91875,7.4825 -1.16875,-5.28875 -6.1925,-6.76625 -7.9175,-7.4825 -4.28625,-1.78 -6.55625,-4.46375 -6.55625,-7.67625 0,-4.8025 5.83,-8.7425 13.2525,-9.135 -5.8775,0.395 -10.46,3.6225 -10.46,7.5525 0.004,2.79875 2.34125,5.24375 5.81625,6.55625 0.60375,0.2275 0.8225,0.29625 1.32125,0.46 1.71625,0.5625 3.76125,1.3875 4.54375,2.95625 z m -2.755,-13.14625 c 0,-1.53875 1.2325,-2.78625 2.75375,-2.78625 1.52125,0 2.7525,1.2475 2.7525,2.78625 0,1.53875 -1.23125,2.785 -2.7525,2.785 -1.52125,0 -2.75375,-1.24625 -2.75375,-2.785"
         id="path2870"
         style="fill:#ee3224;fill-opacity:1;fill-rule:nonzero;stroke:none" />
      <path
         d="m 403.88063,525.20158 0,-1.5475 2.385,0 0,-1.71875 1.77875,0 0,1.71875 2.69625,0 0,1.5475 -6.86,0 z m -3.04375,-0.0912 c 0.2925,0.64 0.55625,1.465 0.745,2.35125 l -1.31625,0.41875 c -0.1275,-0.79 -0.45125,-1.9 -0.685,-2.47 l 1.25625,-0.3 z m -1.49875,2.98 2.57375,0 0,-3.36 -2.57375,0 0,3.36 z m -1.49125,0 0,-4.80875 1.76125,0 c 0.1175,-0.45 0.215,-1.04 0.29625,-1.5425 l 1.64125,0.21125 c -0.12,0.53875 -0.23375,0.93875 -0.3325,1.33125 l 2.18625,0 0,11.495 c 0,0.695 -0.61125,1.2875 -1.32125,1.2875 l -1.52625,0 -0.3775,-1.54 1.3,0.007 c 0.26375,0 0.4375,-0.12875 0.4375,-0.38625 l 0,-4.61875 -2.575,0 c -0.009,2.765 -0.36625,4.93625 -1.07875,6.585 l -0.0488,0.115 -1.39625,-1.00625 0.035,-0.0775 c 0.665,-1.40125 0.99875,-3.24375 0.99875,-5.53 l 0,-0.0862 -1.0075,0 0,-1.43625 1.0075,0 z m 1.7275,2.60125 1.24125,-0.39375 c 0.27375,0.62 0.5475,1.53875 0.785,2.5625 l -1.345,0.36125 c -0.21625,-1.01375 -0.45375,-1.92375 -0.68125,-2.53 z m 9.7525,3.48125 c 0,0.2225 0.095,0.3075 0.29375,0.3075 l 0.14875,0 c 0.13,0 0.2125,-0.0488 0.26125,-0.15125 0.0713,-0.14875 0.16875,-0.89125 0.23625,-1.5425 l 1.48875,0.40125 c -0.0588,0.325 -0.12625,0.87375 -0.2225,1.26 -0.2975,1.18375 -1.0375,1.47 -1.525,1.47 l -1.3575,0 c -0.35875,0 -0.9575,-0.3875 -0.9575,-1.11375 l 0,-6.98 -1.23625,-10e-4 0,1.695 c 0,2.8 -0.47375,5.015 -1.51375,6.64 l -1.32375,-1.18375 c 0.8375,-1.17125 1.3,-3.20375 1.3,-5.97625 l 0,-2.675 4.4075,-0.004 0,7.85375"
         id="path2872"
         style="fill:#ee3224;fill-opacity:1;fill-rule:nonzero;stroke:none" />
      <path
         d="m 428.01813,534.16533 0,1.61 -13.60375,0 0,-1.61 5.91375,0 0,-2.3475 -4.4875,0 0,-1.61125 10.86875,0 0,1.595 -4.64375,0 0,2.36375 5.9525,0 z m -11.68,-7.39875 -1.67625,0 0,-3.50375 5.66625,0 0,-1.3475 1.7375,0 0,1.3475 5.74625,0 0,3.50375 -1.67625,0 0,-1.95625 -9.7975,0 0,1.95625 z m 7.38875,0.14125 c 0,0.43625 0.38,0.71125 0.695,0.71125 l 3.39,0 0,1.53 -4.09375,0 c -0.85,0 -1.64875,-0.75 -1.64875,-1.58375 l 0,-2.165 1.6575,0 0,1.5075 z m -8.5475,2.9525 -0.74875,-1.62375 c 2.5225,-0.34625 3.93125,-1.24375 4.835,-2.93375 l 1.6025,0.68875 c -1.10875,2.14875 -3.155,3.435 -5.68875,3.86875"
         id="path2874"
         style="fill:#ee3224;fill-opacity:1;fill-rule:nonzero;stroke:none" />
      <path
         d="m 366.35688,523.67033 -0.885,1.31625 c -0.1025,-0.0738 -1.5075,-1.07 -2.7025,-1.67625 l 0.86875,-1.2625 c 0.7925,0.3725 1.94375,1.05625 2.71875,1.6225 z m -0.60625,4.175 -0.8675,1.395 c -0.31,-0.245 -2.055,-1.4375 -2.98,-1.88875 l 0.81625,-1.36375 c 0.84375,0.37 2.4825,1.39875 3.03125,1.8575 z m -1.3525,2.5475 1.51875,0.6175 c -0.45,1.26625 -1.8725,4.21375 -2.745,5.37 l -1.515,-0.88375 c 0.875,-1.31625 2.195,-3.6925 2.74125,-5.10375 z m 4.62,-7.12 7.84625,0 0,1.32125 -8.58625,0 c -0.5125,0.825 -1.055,1.53875 -1.47625,2.07375 l -1.28,-0.87375 c 0.83625,-1.05125 1.97875,-2.61625 2.50625,-3.99875 l 1.41625,0.50375 c -0.1275,0.33 -0.27125,0.655 -0.42625,0.97375 z m 0.0325,6 5.4325,0 0.12875,-2.53375 -5.2725,0 c -0.0725,0.71 -0.175,1.605 -0.28875,2.53375 z m 7.58125,3.85875 0,1.2725 -0.87625,0 c -0.11875,1.34875 -0.84875,1.88375 -2.235,1.88375 l -1.02375,0 -0.2675,-1.37375 c 0,0 0.6725,0.12125 1.08625,0.12125 0.52375,0 0.80625,-0.16375 0.87125,-0.63125 l -7.42625,0 c 0.1275,-0.71875 0.37125,-2.31875 0.58875,-3.88875 l -0.965,0 0,-1.2425 1.1225,0 c 0.21,-1.575 0.3875,-3.12375 0.43125,-3.82625 l 8.31875,0 c -0.0438,0.89875 -0.14,2.37625 -0.20625,3.82625 l 0.9075,0 0,1.2425 -0.96625,0 c -0.045,0.945 -0.0963,1.89375 -0.13625,2.61625 l 0.77625,0 z m -8.1175,0 3.43625,0 c -0.5475,-0.56125 -1.1475,-1.11125 -1.80625,-1.59625 l 0.90125,-0.9725 c 0.57875,0.39125 1.46125,1.1325 1.9375,1.61125 l -0.825,0.9575 2.11875,0 c 0.006,-0.11375 0.0813,-1.51375 0.13,-2.61625 l -5.505,0 c -0.1225,0.9325 -0.27375,1.885 -0.3875,2.61625 z m 2.8125,-6.3225 c 0.59875,0.455 1.145,0.915 1.72125,1.45875 l -0.9125,0.98875 c -0.495,-0.4775 -1.11375,-1.005 -1.735,-1.48375 l 0.92625,-0.96375"
         id="path2876"
         style="fill:#ee3224;fill-opacity:1;fill-rule:nonzero;stroke:none" />
      <path
         d="m 387.95813,529.00033 c 0.33,-0.6275 0.57625,-1.2 0.73625,-1.71125 l 0.2925,0 1.05875,0.43 c -0.2025,0.51125 -0.39625,0.93875 -0.5825,1.28125 l 1.46,0 0,1.26875 -3.0425,0 0,1.0925 3.0525,0 0,1.255 -3.0525,0 0,2.9525 -1.4825,0 0,-2.9525 -3.11,0 0,-1.255 3.11,0 0,-1.0925 -3.1175,0 0,-1.26875 1.6175,0 c -0.13375,-0.43375 -0.30625,-0.83875 -0.58625,-1.295 l 1.1175,-0.41 -2.94375,0.005 0,8.615 -1.51125,0 0,-10.015 5.38,0 0,-1.21375 -5.98875,0 0,-1.41125 5.98875,0 0,-1.33375 1.54125,0 0,1.33375 5.93,0 0,1.41125 -5.93,0 0,1.21375 5.38,0 0,8.7375 c 0,0.6275 -0.5175,1.2775 -1.2625,1.2775 l -1.54625,0 -0.355,-1.39875 1.29,0 c 0.1675,0 0.36375,-0.11 0.36375,-0.36375 l 0,-6.86875 -2.77875,0.005 -3.3725,0.006 c 0.2775,0.505 0.50875,1.07375 0.70125,1.705 l 1.6425,0"
         id="path2878"
         style="fill:#ee3224;fill-opacity:1;fill-rule:nonzero;stroke:none" />
      <path
         d="m 426.19938,539.25908 0,0 c -0.58625,0.01 -1.12375,0.305 -1.4,0.77375 -0.2025,0.345 -0.29625,0.90625 0.0525,1.45125 0.24,0.375 0.6825,0.685 1.32,0.9225 0.3325,0.125 1.085,0.48125 0.87,1.115 -0.11875,0.345 -0.45125,0.575 -0.85,0.5825 -0.555,0.01 -0.9425,-0.46625 -1.025,-0.9175 l -0.88375,0.17 c 0.1025,0.58625 0.59,1.63875 1.86875,1.63875 0.71875,0 1.15875,-0.31625 1.4025,-0.57875 0.28625,-0.315 0.4575,-0.745 0.4575,-1.15125 0,-0.725 -0.4475,-1.26875 -1.33,-1.61125 -0.7725,-0.3 -1.15125,-0.60625 -1.1775,-0.935 -0.0312,-0.41375 0.38875,-0.6125 0.7175,-0.585 0.36125,0.0275 0.68875,0.2325 0.81,0.525 l 0.79,-0.385 c -0.28,-0.6375 -0.9,-1.02625 -1.6225,-1.015"
         id="path2880"
         style="fill:#ee3224;fill-opacity:1;fill-rule:nonzero;stroke:none" />
      <path
         d="m 404.20563,539.45783 0,5.39375 0.88375,0 c 0,0 0,-4.53125 0,-4.63125 0.0913,0 0.8475,0 0.8475,0 0.395,0 0.8175,0.32125 0.8175,0.80125 0,0.59125 -0.5025,0.8125 -0.81875,0.8125 l -0.73375,0 2.0175,3.0175 1.03625,0 c 0,0 -1.6125,-2.32 -1.68875,-2.42875 0.5625,-0.1975 1.055,-0.675 1.055,-1.48125 0,-0.80625 -0.69375,-1.48375 -1.5325,-1.48375 l -1.88375,0"
         id="path2882"
         style="fill:#ee3224;fill-opacity:1;fill-rule:nonzero;stroke:none" />
      <path
         d="m 366.10188,539.45783 c 0,0 0,1.99125 0,2.09 -0.095,0 -2.31625,0 -2.41,0 0,-0.0987 0,-2.09 0,-2.09 l -0.8875,0 0,5.39375 0.8875,0 c 0,0 0,-2.4 0,-2.49875 0.0937,0 2.315,0 2.41,0 0,0.0987 0,2.49875 0,2.49875 l 0.8875,0 0,-5.39375 -0.8875,0"
         id="path2884"
         style="fill:#ee3224;fill-opacity:1;fill-rule:nonzero;stroke:none" />
      <path
         d="m 373.70688,539.45783 0.88625,0 0,5.39375 -0.88625,0 0,-5.39375 z"
         id="path2886"
         style="fill:#ee3224;fill-opacity:1;fill-rule:nonzero;stroke:none" />
      <path
         d="m 402.17938,539.45783 0.88625,0 0,5.39375 -0.88625,0 0,-5.39375 z"
         id="path2888"
         style="fill:#ee3224;fill-opacity:1;fill-rule:nonzero;stroke:none" />
      <path
         d="m 412.22438,539.45783 0.88625,0 0,5.39375 -0.88625,0 0,-5.39375 z"
         id="path2890"
         style="fill:#ee3224;fill-opacity:1;fill-rule:nonzero;stroke:none" />
      <path
         d="m 375.67063,544.85158 0.87625,0 c 0,0 0,-3.37375 0,-3.60375 0.16625,0.165 4.14,3.83375 4.14,3.83375 l 0,-5.62375 -0.89875,0 c 0,0 0,3.345 0,3.575 -0.16625,-0.16625 -4.1175,-3.83375 -4.1175,-3.83375 l 0,5.6525"
         id="path2892"
         style="fill:#ee3224;fill-opacity:1;fill-rule:nonzero;stroke:none" />
      <path
         d="m 387.41813,544.85158 0.8775,0 c 0,0 0,-3.37375 0,-3.60375 0.1675,0.165 4.13875,3.83375 4.13875,3.83375 l 0,-5.62375 -0.89875,0 c 0,0 0,3.345 0,3.575 -0.16625,-0.16625 -4.1175,-3.83375 -4.1175,-3.83375 l 0,5.6525"
         id="path2894"
         style="fill:#ee3224;fill-opacity:1;fill-rule:nonzero;stroke:none" />
      <path
         d="m 414.25188,544.85158 0.87625,0 c 0,0 0,-3.37375 0,-3.60375 0.1675,0.165 4.14,3.83375 4.14,3.83375 l 0,-5.62375 -0.89875,0 c 0,0 0,3.345 0,3.575 -0.16625,-0.16625 -4.1175,-3.83375 -4.1175,-3.83375 l 0,5.6525"
         id="path2896"
         style="fill:#ee3224;fill-opacity:1;fill-rule:nonzero;stroke:none" />
      <path
         d="m 367.56563,544.85158 0.9725,0 c 0,0 0.6025,-1.24375 0.62875,-1.29875 0.0612,0 2.315,0 2.37625,0 0.0275,0.055 0.62875,1.29875 0.62875,1.29875 l 0.95875,0 -2.7825,-5.7475 -2.7825,5.7475 z m 2.7825,-3.85 c 0.085,0.1775 0.815,1.73875 0.82125,1.75125 -0.14,0 -1.4875,0 -1.62625,0 0.0588,-0.1275 0.7275,-1.57875 0.805,-1.75125"
         id="path2898"
         style="fill:#ee3224;fill-opacity:1;fill-rule:nonzero;stroke:none" />
      <path
         d="m 381.28813,544.85158 0.97125,0 c 0,0 0.605,-1.24375 0.63125,-1.29875 0.0613,0 2.31375,0 2.375,0 0.0275,0.055 0.62875,1.29875 0.62875,1.29875 l 0.96,0 -2.7825,-5.7475 -2.78375,5.7475 z m 2.78375,-3.85 c 0.0825,0.17625 0.8025,1.71125 0.82,1.75125 -0.13875,0 -1.48625,0 -1.62625,0 0.0588,-0.1275 0.7275,-1.57875 0.80625,-1.75125"
         id="path2900"
         style="fill:#ee3224;fill-opacity:1;fill-rule:nonzero;stroke:none" />
      <path
         d="m 396.01563,544.85158 0.97125,0 c 0,0 0.60375,-1.24375 0.63,-1.29875 0.0625,0 2.315,0 2.37625,0 0.0275,0.055 0.62875,1.29875 0.62875,1.29875 l 0.95875,0 -2.7825,-5.7475 -2.7825,5.7475 z m 2.78375,-3.85 c 0.0812,0.17 0.7675,1.64 0.82,1.75125 -0.14,0 -1.4875,0 -1.62625,0 0.0412,-0.09 0.72625,-1.5775 0.80625,-1.75125"
         id="path2902"
         style="fill:#ee3224;fill-opacity:1;fill-rule:nonzero;stroke:none" />
      <path
         d="m 408.93688,539.48408 0,5.3675 2.6625,0 0,-0.76 c 0,0 -1.67625,0 -1.77375,0 0,-0.1 0,-4.6075 0,-4.6075 l -0.88875,0"
         id="path2904"
         style="fill:#ee3224;fill-opacity:1;fill-rule:nonzero;stroke:none" />
      <path
         d="m 420.40438,539.45533 0,5.39625 3.3175,0 0,-0.76375 c 0,0 -2.3275,0 -2.42625,0 0,-0.095 0,-1.71375 0,-1.80875 0.0987,0 2.35625,0 2.35625,0 l 0,-0.76125 c 0,0 -2.2575,0 -2.35625,0 0,-0.0925 0,-1.20625 0,-1.3 0.0987,0 2.42625,0 2.42625,0 l 0,-0.7625 -3.3175,0"
         id="path2906"
         style="fill:#ee3224;fill-opacity:1;fill-rule:nonzero;stroke:none" />
    </g>
  </g>
</svg>
