<?xml version="1.0" encoding="UTF-8"?>
<!DOCTYPE svg PUBLIC "-//W3C//DTD SVG 1.0//EN" "http://www.w3.org/TR/2001/REC-SVG-20010904/DTD/svg10.dtd">
<!-- Creator: CorelDRAW X7 -->
<svg xmlns="http://www.w3.org/2000/svg" xml:space="preserve" width="300px" height="79px" version="1.0" style="shape-rendering:geometricPrecision; text-rendering:geometricPrecision; image-rendering:optimizeQuality; fill-rule:evenodd; clip-rule:evenodd"
viewBox="0 0 23810957 6237227"
 xmlns:xlink="http://www.w3.org/1999/xlink">
 <defs>
  <style type="text/css">
   <![CDATA[
    .fil1 {fill:#FB0102}
    .fil0 {fill:#FB0102}
   ]]>
  </style>
 </defs>
 <g id="Layer_x0020_1">
  <metadata id="CorelCorpID_0Corel-Layer"/>
  <g id="_335935808">
   <path class="fil0" d="M736074 1751411c-222078,631831 -444063,1263569 -666141,1895401 -14718,53621 -29436,107242 -40966,158989 -11531,51746 -19968,101618 -24749,153833 -4687,52215 -5624,106586 -1593,156927 4031,50340 13030,96556 30748,151677 17623,55215 43872,119429 78182,175300 34216,55871 76495,103493 126085,142865 49590,39373 106493,70496 174644,94588 68152,23998 147553,41059 214017,49496 66464,8531 119898,8531 173332,8531 510621,0 1021148,94 1531675,94 12750,-844 25592,-1688 37779,-5625 12187,-3843 23717,-10687 35998,-19030 12186,-8437 25029,-18280 36466,-31216 11343,-12843 21373,-28592 29717,-45185 8343,-16499 15186,-33748 22029,-50996 54747,-168083 109493,-336165 149521,-460562 40029,-124304 65433,-204924 79495,-251702 14155,-46872 16967,-59902 18280,-71620 1312,-11718 1125,-22030 -938,-32060 -2156,-10031 -5999,-19780 -12186,-28030 -6187,-8155 -14624,-14905 -22967,-19592 -8344,-4687 -16499,-7312 -25780,-8812 -9281,-1500 -19686,-1875 -29998,-2343 -372349,0 -744699,0 -1116954,93 -17530,0 -35060,0 -51091,-3937 -16030,-3843 -30654,-11624 -43778,-19967 -13124,-8250 -24748,-16968 -34497,-28123 -9656,-11250 -17437,-24842 -23343,-41810 -5812,-17061 -9655,-37497 -10686,-58309 -938,-20904 1031,-42372 6374,-68057 5344,-25780 14062,-55965 22780,-86057 185987,-546994 371974,-1093987 557962,-1640981 2343,-10030 4687,-20155 4218,-31873 -656,-11624 -4125,-24935 -9281,-35810 -5249,-10780 -12280,-19123 -19779,-25029 -7500,-5812 -15468,-9281 -24843,-11156 -9280,-1875 -20061,-2062 -30747,-2343 -336727,187 -673454,281 -1010087,375 -8343,468 -16687,937 -25123,2531 -8344,1500 -16781,4124 -25124,7593 -8249,3468 -16405,7874 -24092,12749 -7593,4875 -14718,10218 -21748,16874 -7031,6656 -14062,14624 -19499,23530 -5437,8905 -9374,18842 -13312,28779z"/>
   <path class="fil0" d="M3561505 2545325c-8812,469 -17530,1031 -26811,3375 -9374,2343 -19217,6562 -27279,10780 -8062,4219 -14249,8437 -20342,13312 -6000,4875 -11999,10405 -16593,16780 -4687,6468 -8062,13780 -11437,20999 -210735,682359 -421471,1364624 -632112,2046890 -1500,7125 -3000,14249 -3281,20999 -375,6843 562,13311 2624,19686 2157,6468 5438,12655 10593,18373 5250,5625 12375,10687 18937,13968 6562,3375 12561,5062 18280,6187 5812,1219 11249,1875 16686,2531 322197,0 644299,0 966402,0 9281,0 18468,0 27748,-2437 9187,-2437 18468,-7312 26249,-11905 7780,-4594 14061,-9000 20154,-18280 6000,-9281 11812,-23436 17531,-37685 215891,-682453 431782,-1364906 647674,-2047359 1593,-6188 3187,-12468 3937,-19124 750,-6656 656,-13780 -375,-19780 -1031,-6000 -3094,-10874 -6093,-15561 -3094,-4688 -7031,-9094 -11625,-12468 -4593,-3375 -9936,-5719 -14905,-7031 -4874,-1406 -9562,-1781 -14155,-2063 -330634,-93 -661173,-93 -991807,-187z"/>
   <path class="fil0" d="M6454525 3664904c-193393,408910 -1099237,458313 -905094,-85963 58683,-164332 279262,-314603 508653,-333820 254513,-21374 528901,139678 396441,419783zm1006337 -93368c277294,-962090 -1114142,-1597109 -2390179,-682922 -613739,439657 -827006,1302473 -187394,1693102 324353,198080 650299,243827 1098675,172395 570523,-90744 1292817,-537057 1478898,-1182575z"/>
   <ellipse class="fil0" transform="matrix(0.0943644 -0.0149457 0.0109701 0.177449 4.20671E+006 1.89344E+006)" rx="6894838" ry="2419334"/>
   <path class="fil0" d="M8074976 2533232c-219641,700639 -439282,1401185 -659017,2101824 -2531,13124 -5062,26249 -4687,38341 375,12000 3562,22874 8437,31592 4781,8718 11155,15280 18186,20436 7124,5062 14811,8812 21373,10781 6562,1968 11906,2062 17249,2249 319572,0 639238,0 958809,0 9468,0 18937,0 29248,-1781 10312,-1687 21468,-5156 30373,-8905 8906,-3656 15655,-7594 21749,-12937 6187,-5437 11718,-12374 16124,-19592 4312,-7125 7499,-14531 10686,-21936 120836,-410410 241671,-820819 362507,-1231134 8062,-21468 16124,-42935 30841,-56622 14624,-13592 35810,-19404 66558,-24935 30654,-5531 70870,-10781 123273,-14624 52496,-3844 117273,-6187 167239,-7594 49871,-1406 84837,-1968 110898,1782 25967,3656 43028,11530 55403,19592 12468,8062 20248,16311 27748,28498 7499,12187 14811,28217 18467,52309 3656,23998 3656,56059 -281,83525 -3844,27467 -11624,50341 -23061,85120 -11437,34778 -26436,81369 -81651,256107 -55215,174738 -150552,477623 -245983,780415 -1406,6468 -2812,12937 -3656,20155 -750,7218 -937,15186 282,22686 1218,7499 3749,14624 7874,21467 4125,6937 9843,13687 16968,18280 7124,4500 15749,6937 22779,8250 7031,1406 12562,1593 18093,1874 327727,0 655455,0 983088,0 11625,0 23155,0 32998,-2343 9843,-2437 17905,-7218 25311,-12843 7312,-5531 13874,-11905 18655,-17905 4781,-6000 7874,-11718 10874,-17436 113336,-372256 226578,-744605 339821,-1116861 7687,-26061 15373,-52215 23154,-94962 7781,-42747 15655,-102274 19593,-150459 3937,-48184 3937,-85119 281,-131334 -3656,-46122 -10874,-101618 -18655,-144834 -7781,-43310 -16030,-74339 -27936,-101806 -11905,-27467 -27467,-51277 -46684,-82681 -19217,-31311 -42091,-70214 -69276,-105274 -27280,-34967 -58871,-66090 -98244,-97213 -39372,-31029 -86525,-62152 -129272,-85494 -42747,-23342 -81182,-38903 -120086,-54465 -38903,-15561 -78275,-31123 -126366,-42747 -48090,-11718 -104993,-19498 -191518,-23342 -86525,-3937 -202674,-3937 -298948,-656 -96369,3281 -172770,9843 -240921,19124 -68152,9186 -127960,21092 -183550,33747 -55684,12656 -107055,26155 -159833,40404 -52684,14249 -106586,29248 -162926,36653 -56434,7406 -115117,7125 -156927,3563 -41809,-3563 -66558,-10312 -96462,-17624 -29904,-7312 -64870,-15093 -96275,-21936 -31310,-6750 -59058,-12562 -93556,-16499 -34497,-3843 -75838,-5812 -123460,-5531 -47715,375 -101712,2906 -155708,5531z"/>
   <path class="fil0" d="M20558712 2494047c-6000,375 -12000,656 -17905,2063 -6000,1406 -11906,3937 -17343,7499 -5437,3562 -10312,8156 -14343,12843 -4031,4593 -7124,9187 -9749,14530 -2719,5344 -4968,11343 -7312,17343 -216548,705889 -433002,1411684 -649549,2117573 -1219,6375 -2438,12843 -2344,19592 94,6844 1406,13968 4219,20249 2906,6187 7218,11437 13030,15561 5812,4125 13124,7125 20061,8719 6937,1593 13593,1874 20249,2062 336539,0 673079,0 1009618,0 9187,-656 18280,-1219 26248,-3750 7968,-2531 14812,-6937 20530,-12749 5625,-5718 10030,-12749 13124,-18936 3000,-6187 4781,-11531 6468,-16968 220673,-710295 441251,-1420590 661924,-2130884 937,-4313 1781,-8719 2062,-13218 281,-4594 -94,-9281 -1594,-14062 -1406,-4875 -3937,-9843 -7593,-13874 -3562,-4125 -8343,-7312 -13499,-9374 -5250,-2063 -11062,-3094 -16874,-3656 -5718,-469 -11530,-563 -17342,-563 -340665,0 -681422,0 -1022086,0z"/>
   <ellipse class="fil0" transform="matrix(0.0943644 -0.0149457 0.0109701 0.177449 2.12252E+007 1.85799E+006)" rx="6894838" ry="2419334"/>
   <path class="fil0" d="M18711964 3488854c-74527,248608 -219267,722481 -364100,1196355 -563,3750 -1219,7406 -469,12562 750,5156 2718,11811 6749,17342 4031,5437 10031,9750 15562,12281 5531,2531 10499,3375 14530,3843 3937,469 6937,656 10031,844 336258,0 672516,0 1008774,0 5718,-469 11530,-1031 16686,-1969 5250,-937 9843,-2343 14999,-4312 5250,-1875 11062,-4406 16874,-8062 5906,-3750 11812,-8812 16687,-14718 4968,-5999 8999,-12936 13030,-19873 222828,-713576 445751,-1427152 668579,-2140634 2437,-9187 4781,-18374 3468,-26623 -1406,-8156 -6468,-15468 -11811,-19218 -5250,-3656 -10687,-3750 -16218,-3843 -122991,0 -245889,0 -327727,-3375 -81745,-3375 -122336,-10218 -159927,-17999 -37497,-7781 -72089,-16499 -108367,-28217 -36373,-11624 -74527,-26248 -107805,-37778 -33279,-11531 -61777,-20061 -106868,-31967 -45091,-11905 -106774,-27186 -159364,-38997 -52684,-11812 -96181,-20061 -156552,-28030 -60371,-8062 -137709,-15842 -209892,-19686 -72182,-3937 -139303,-3937 -209985,94 -70777,4031 -145115,11999 -202955,20530 -57840,8531 -99181,17530 -139959,28967 -40872,11343 -81182,25217 -121211,40216 -39934,14905 -79588,30935 -120460,49965 -40872,19030 -83057,40966 -128991,66277 -45935,25310 -95619,53808 -146521,90181 -50997,36279 -103118,80432 -155333,126647 -52216,46310 -104431,94588 -154959,147178 -50434,52590 -99180,109305 -145677,176800 -46403,67496 -90650,145771 -128616,217017 -37873,71151 -69464,135365 -96087,194611 -26624,59246 -48278,113617 -69558,189081 -21280,75557 -42185,172301 -52496,253857 -10312,81651 -10125,148115 -6094,200799 4031,52684 11812,91588 19593,126460 7780,34873 15561,65714 23342,93088 7780,27373 15561,51184 25029,74338 9468,23249 20624,45841 33935,68902 13218,23061 28498,46684 46310,70120 17717,23436 37872,46778 55871,66277 17999,19404 33748,34966 53434,50527 19686,15562 43309,31123 70776,46403 27467,15374 58777,30373 94869,42185 36091,11812 76963,20249 118023,24561 41059,4218 82400,4218 121116,4218 38810,0 74995,0 107618,-4031 32529,-3937 61496,-11999 95337,-23623 33935,-11718 72839,-26998 107805,-42653 34967,-15749 66090,-31779 100868,-51466 34779,-19686 73120,-43028 108087,-66464 34872,-23436 66183,-47059 97024,-74151 30936,-27092 61309,-57652 84369,-84463 23061,-26717 38904,-49496 54653,-73026 15843,-23436 31592,-47434 47434,-74620 15749,-27092 31592,-57184 43216,-87931 11718,-30748 19217,-62152 26811,-93463 -15374,8250 -30655,16499 -51184,24467 -20530,7875 -46310,15374 -84276,26811 -37872,11437 -87931,26717 -132741,34310 -44903,7500 -84463,7218 -116054,3469 -31592,-3750 -55215,-11062 -79495,-22311 -24373,-11343 -49403,-26624 -70589,-46122 -21279,-19405 -38809,-43028 -50340,-67496 -11530,-24560 -17155,-50059 -19780,-87931 -2718,-37779 -2437,-87838 1406,-130116 3938,-42278 11437,-76776 19312,-112680 7874,-35810 16217,-73026 27935,-111555 11812,-38528 27186,-78369 46497,-121585 19311,-43310 42653,-89994 69745,-136772 27092,-46778 57934,-93650 100868,-144365 42841,-50621 97775,-105086 146240,-143990 48559,-38904 90556,-62246 131054,-77901 40497,-15655 79307,-23717 116523,-27561 37216,-3937 72651,-3656 106211,750 33560,4313 65152,12843 88494,24374 23342,11530 38435,26154 51184,41341 12749,15186 23155,30935 31123,50809 7874,19780 13218,43590 15655,67214 2438,23529 1875,46872 -375,70214 -2343,23342 -6468,46684 -80900,295292z"/>
   <path class="fil0" d="M21993925 2493954c-223859,719575 -447813,1439151 -671672,2158726 -2063,8531 -4031,17155 -3656,26436 281,9280 3093,19217 7874,26998 4781,7687 11718,13312 20999,17249 9187,3937 20811,6281 29154,7499 8437,1125 13687,1219 18843,1219 313009,0 626019,0 939029,0 7780,-94 15561,-188 26717,-2531 11155,-2344 25779,-6937 39653,-14624 13780,-7687 26905,-18374 36091,-31123 9187,-12655 14437,-27467 19780,-42185 99275,-344695 198643,-689296 298011,-1033991 9843,-28967 19686,-58027 31873,-82213 12187,-24186 26623,-43497 41903,-60183 15187,-16593 31217,-30373 47060,-42841 15748,-12374 31310,-23342 48184,-32904 16780,-9656 34966,-17999 56152,-25592 21186,-7593 45466,-14437 69277,-19218 23904,-4874 47153,-7780 69464,-8249 22311,-469 43590,1594 61308,4781 17624,3187 31779,7593 49215,13593 17530,5905 38435,13499 59340,20998 174175,-211298 348257,-422596 522433,-633894 -7781,-22404 -15562,-44715 -27186,-67120 -11718,-22311 -27279,-44716 -48184,-67027 -20905,-22404 -47153,-44715 -74807,-63277 -27749,-18467 -56903,-32997 -86526,-44715 -29716,-11625 -59808,-20343 -97212,-28686 -37497,-8249 -82213,-16030 -144834,-18842 -62714,-2813 -143333,-657 -216078,5718 -72745,6281 -137522,16968 -200612,26154 -62995,9187 -124304,16968 -185237,22686 -60933,5813 -121585,9656 -182237,10875 -60653,1218 -121305,-188 -167895,-4594 -46684,-4312 -79401,-11718 -141459,-15374 -61965,-3749 -153365,-3749 -244765,-3749z"/>
   <path class="fil1" d="M16160076 1564111c-13780,59527 -67589,138272 -94868,189831 -17155,-12562 -44716,-49309 -66089,-71058 -27467,-28029 -42466,-53152 -60465,-87087 46778,0 84182,-2907 117836,-8719 47715,-8343 63183,-19592 103586,-22967zm-1386560 3828300l-94 -469c-5625,-37123 -12374,-83526 -19218,-129929 39748,-2718 79495,-5343 119242,-8062l2156 -187 2156 -188c65527,-4687 174738,-20436 356601,-116804 111461,-59059 266044,-214767 337102,-316666 113523,-163020 174644,-365693 174363,-574648l93 -2718 -93 -2063 0 -5249c-469,-54184 -5062,-107337 -13687,-159083 -656,-4031 -1312,-8062 -1968,-12093l-469 -2625c-16687,-94868 -46497,-189081 -90181,-279450 -127398,-263419 -372256,-447625 -649925,-521214 -56621,-15280 -115210,-25873 -175300,-31216l-10406 -938 -9093 -656c-166207,-12280 -337008,14530 -495903,86807 -14999,6843 -29342,13780 -43122,20904 -122054,61684 -229953,146990 -317697,249733l-1687 2719 -16780 -8343c-316479,-151396 -782197,-1031742 -893002,-1432589 -136865,-495435 -223578,-1337252 -112304,-1851061 17248,-79682 38997,-191893 46590,-230421 -320790,-203330 -763260,73307 -812850,700920 -79963,1012431 540338,2070327 1264225,2699721 104806,91025 184863,149802 242984,194705l154958 113336c-22874,43685 -42654,89338 -59059,136491 -111086,-66089 -209610,-128616 -331008,-219173 -105837,-79025 -202674,-152333 -300636,-236140 -217391,-186081 -331289,-314134 -529463,-544275 -244765,-284230 -665392,-991900 -687047,-1483398 -475655,-63558 -770759,835068 119054,1655137 576523,531338 954872,690983 1686353,997525 -5999,36935 -9937,74432 -11811,112492l-1219 10218c-117648,10312 -555712,-130304 -680859,-175675 -1145453,-415378 -1411778,-912313 -1544801,-1052834 -187205,133116 -217672,516339 -52496,737105 280481,374600 888033,590866 1362469,644581 295011,33373 521214,47903 816975,34873l108180 -10312c7031,50809 17718,100399 31967,148583l-15937 3563 -20155 4312 -1218 281c-622739,127398 -1116111,100399 -1711289,-90650 -169957,-54559 -389411,-184581 -417815,-199393 -53246,44247 -154396,802258 878940,810788 258919,2157 519433,-48840 743105,-120460 210642,-67495 402441,-150458 615332,-232015 20530,39934 43779,78182 69277,114742l-29529 27373c-6750,6843 -14249,13780 -22405,20811 -142396,121867 -494685,271106 -675985,329415 -406566,130678 -585335,110149 -989838,62902 48747,537150 650955,471342 992651,337008 346101,-136210 575397,-395317 830192,-650112 29061,29904 59996,58121 92619,84370 -21373,48371 -46309,89618 -74526,130959 -148209,216360 -516058,495997 -733825,595178 -224422,102274 -352757,108555 -385848,114555 21280,140240 167332,216172 338789,214766 515308,-4406 849223,-663704 943810,-852879l52965 -106774c34779,19499 70777,37123 107899,52591l-38528 128334c-1688,5906 -3469,12000 -5438,18187l-374 1031c-22405,70495 -64871,163582 -135366,282449 -261920,441439 -499653,507809 -526933,521121 59715,104711 242421,132459 379193,77057 334852,-135647 385567,-630988 444344,-908750l14343 -74995c35904,9562 72558,17249 109961,22873l563 4219c61683,578960 -198174,858785 -214110,885220 178487,30748 332320,-1687 415002,-137334 79776,-130960 41997,-352570 21843,-512121 180925,-6562 391379,-67683 528244,-113336 436658,-145771 725669,-517089 845567,-951122 11343,-41060 29623,-84182 39935,-128710 69183,0 147646,-7218 147646,-94962 0,-18936 -17436,-76308 -25967,-89994 -26998,-43591 -142771,-116242 -142771,-236890 0,-26342 15186,-69277 21092,-94869 57371,-4780 137147,-63464 137147,-126553 0,-94869 -160864,-144459 -219173,-202580 -58214,-58121 -128803,-203705 -128803,-293042 0,-54091 -26998,-189737 52684,-189737 83806,0 421846,172581 421846,-347977 -132179,63371 -227422,105462 -360444,1875 -155146,-120741 -26061,-539681 265481,-539681 63465,0 108462,13686 140428,49403 28030,31216 48185,96930 49403,150927 58496,-39185 101431,-90557 144928,-150271 26529,-36466 76494,-173332 76494,-229297 0,-38622 -20061,-52496 -17530,-83057 4313,-50059 73027,-115961 -13686,-170988 -68433,-43403 -204080,36747 -436283,-79870 -30654,-15373 -63933,-38434 -91400,-45746 1313,-59153 21093,-68152 21093,-126554 0,-91775 -287606,-207923 -385661,-268013 -68714,-42091 -131991,-85588 -186550,-140334 -76213,-76401 -112773,-139116 -123366,-179988 -15562,-6937 -29905,-12655 -53059,-12655 -87088,0 -152146,65714 -168739,137053 -19123,-19499 -33279,-33935 -60464,-52590 -27186,-18749 -56528,-34029 -83807,-45747 -194330,-83057 -323322,-87275 -530589,-196955 -76401,51184 -141084,135084 -115960,242608 -97400,-51559 -185519,-42466 -290512,-26904 -63464,9374 -264544,37122 -316384,33372 -50622,-187 -121117,-9186 -162926,-17061 -4875,59152 -31592,106212 -31592,179238 0,71057 21561,116710 31592,137147 -118867,0 -179051,937 -275044,20154 -99649,19874 -172676,25499 -273262,22030 -29436,126085 -34404,190018 33653,314322 24468,44716 79120,126648 103400,149615 -52497,18093 -146990,36279 -200330,42185 0,148771 64589,359506 103118,497872 114460,410596 316759,753135 571741,1083863 24936,32435 48935,59995 73777,84369 26623,-25592 45184,-41247 73776,-63371 238390,-184956 465062,-263513 790914,-263513 154865,0 343945,55496 450063,108743 143146,71901 225641,129459 332883,236515 151771,151583 245702,333914 299042,544556 108930,429627 -43122,939873 -403097,1199449 -63089,45372 -120929,78838 -192924,115117 -113711,57183 -318635,109773 -480623,115961zm1386560 -3828300l0 0zm-1180981 -137053c0,40122 37123,111461 21092,115961 -85119,-7031 -126553,-88588 -126553,-179238 0,-171644 317603,-231640 369068,-10593 -38247,-19030 -113805,-42184 -158145,-42184 -50622,0 -105462,66464 -105462,116054z"/>
  </g>
 </g>
</svg>
