<?xml version="1.0" encoding="utf-8"?>
<!-- Generator: Adobe Illustrator 28.0.0, SVG Export Plug-In . SVG Version: 6.00 Build 0)  -->
<svg version="1.1" id="Слой_1" xmlns="http://www.w3.org/2000/svg" xmlns:xlink="http://www.w3.org/1999/xlink" x="0px" y="0px"
	 viewBox="0 0 1000.000061 171.5" enable-background="new 0 0 1000.000061 171.5" xml:space="preserve">
<path fill="#05164D" d="M117,78.125c-2.75,0-4.875,0-5.875,0.125c0.875-1.125,1.875-2.375,2.2500076-2.8750076h2.5
	c11.75,0,20.9999924,0.75,32.1250076,2.75l3.5-3.375c-12.375-2.25-23.5-3.2499924-35.75-3.2499924
	c0.75-1.25,1.375-2.125,1.6250076-2.75h1.4999924c10.125,0,25.8750153,1.625,35.125,3.5l3.625-3.5
	c-14.875-2.75-28.125-4.125-41.6249924-4.125c-6.6250076,0-12.1249924,0.2499924-17.2500076,1
	c-6.875,14.75-17.5,23.125-29.375,23.125c-5.3749924,0-11.2499962-1.875-18.9999962-6.25L41.25,77.375L43,76l17.5,7.625l2.25-1.75
	l-34.125-15.625l-3.625,2.875l-10.499999-4.4999924L14.6250038,68.625c15.5,6.875,22.375,10.75,42.2499962,24.1250076
	c20.625,13.9999924,45,24.125,68.25,28.5l5.625-5.375h-1.5c-16.125,0-32.625-6.875-42.75-17.75
	c10.625-6.4999924,20.8749924-9.375,33.9999924-9.375c5,0,10.7499924,0.3750076,15.5000076,0.875l3.5-3.375
	c-6.625-1-13.625-1.4999924-20.8750076-1.4999924c-5.125,0-9.5,0.2499924-13.3749924,0.625c0.5-0.625,2.25-2.5,3-3.25
	c3-0.125,6.25-0.25,9.125-0.25c8.25,0,17.375,0.625,24.75,1.875l3.5-3.3749924c-9.875-1.4999924-19-2.2500076-28.625-2.2500076
	 M166.25,85.75c0,44.5-36.125,80.625-80.625,80.625c-44.375,0-80.5-36.125-80.5-80.625s36.125-80.625,80.625-80.625
	S166.25,41.25,166.25,85.75 M171.375,85.75C171.375,38.3749962,133.0000153,0,85.6250076,0C38.375,0,0,38.3749962,0,85.75
	s38.375,85.75,85.75,85.75s85.625-38.3749847,85.625-85.7499924 M285.75,142.8750153h75.5v-22.9999924h-49.125v-91.25h-26.5
	v114.2499924H285.75z M422.25,142.8750153h23.125V60.5h-24.6250305v47c0,10.9999924-5.5,15.8750076-14.5,15.8750076
	c-10,0-14.75-4.8749924-14.75-15.875V60.5h-24.625v48.125c0,27.125,10.9999695,36.625,32,36.625
	c12.8749695,0,19.875-5.4999847,23.3750305-11.875V142.8750153z M488.9999695,80.6250076h18.125V60.5h-18.125v-3.2499962
	c0-7.1249962,4.125-9.7500038,11.75-9.7500038c3,0,6.375,0.3750038,6.375,0.3750038v-20c0,0-4.1249695-1-10.4999695-1
	c-19.75,0-32.375,10.6250038-32.375,30.4999962V60.5h-12.375v20.125h12.375v62.25h24.625V80.6249924L488.9999695,80.6250076z
	 M557.499939,144.2500153c6,0,11.75-1.25,11.75-1.25V123.25c0,0-4.124939,0.4999924-7,0.4999924
	c-7.125,0-11.75-2.2500076-11.75-11.125v-32h18.75V60.5h-18.75V36.4999962h-24.625V60.5h-12.375v20.125h12.375v34.7499924
	c0,20.0000076,11.875,28.8750076,31.625,28.8750076 M631.124939,142.875h24.624939V94.7499924c0-27.1249924-11-36.625-31.875-36.625
	c-11.625,0-18.25,4.375-22.5,10.5V28.75h-24.875v114.1250153H601.25v-47c0-11,5.5-15.875,14.875-15.875
	c10.25,0,15,4.8750076,15,15.875v47L631.124939,142.875z M718.6248779,110.875c0,9-8.5,15.6250076-21.5,15.6250076
	c-6.375,0-10.125-2.9999924-10.125-8.5000076c0-4.2499924,2.625-7.875,11-8.9999924l14.25-2c2.5-0.375,5-0.8749924,6.500061-1.25
	v5.125L718.6248779,110.875z M719.4998779,142.875h22.5v-54c0-22.75-13.249939-30.75-37.25-30.75
	c-24.375,0-36.125,9.25-37.125,26.75h24c0.375-4.6249924,3.000061-8,13.125-8c9.000061,0,13.25,3,13.25,7.375
	c0,3.875-2.5,5.3750076-8.5,6.0000076l-15.625,1.625c-21.25,2.2500076-30.875,11.1250076-30.875,27.125
	c0,14.8749924,9.125,26.2499924,28.625,26.2499924c13.25,0,21-4.2499847,27.875-12.7499847v10.375V142.875z M806.7498779,142.875
	h24.625V94.7499924c0-27.1249924-11-36.625-32.375-36.625c-13.25,0-20.25,5.5-23.625061,11.875v-9.5h-23.125V142.75h24.625061v-47
	c0-11.0000076,5.5-15.875,14.875-15.875c10.25,0,15,4.875,15,15.875V142.875z M865.7498779,83.6249924
	c0-3.625,3.125-6.375,11.25-6.375c8.375,0,10.875,3.0000076,11.750061,7.625h24C911.6248779,67.125,899.5,58.1249924,877,58.1249924
	c-24.375,0-35.875061,11.625-35.875061,27.25c0,16.375,10.500061,23.375,28.625061,25.75l8.625,1.125
	c8.5,1.1249924,11.750061,3.125,11.750061,7.3749924c0,4.625-3.875,6.875-13.5,6.875c-9.499939,0-13.75-2.9999924-14.375-8.9999924
	h-24.375c0.500061,16.4999924,10.500061,27.7499924,38.75,27.7499924c26,0,38.249939-10.25,38.249939-27.6250076
	c0-17.1249924-10.5-23.625-31.374939-26.4999924l-8.625061-1.125c-7.125-0.875-9.124939-2.8750076-9.124939-6.375
	 M976.5,110.8749847c0,9-8.5,15.625-21.5,15.625c-6.375,0-10.125-2.9999924-10.125-8.5c0-4.2499924,2.625-7.8750076,11-9
	l14.250061-1.9999924c2.5-0.3750076,5-0.875,6.5-1.25v5.1249924H976.5z M1000,142.875v-54c0-22.75-13.25-30.75-37.25-30.75
	c-24.375,0-36.125,9.25-36.999939,26.75h24c0.375-4.6249924,3.000061-8,13.000061-8c9,0,13.249939,2.875,13.249939,7.375
	c0,3.875-2.5,5.3750076-8.5,6.0000076l-15.625,1.625c-21.25,2.2500076-30.875,11.1250076-30.875,27.125
	c0,14.8749924,9.125,26.2499924,28.625061,26.2499924c13.249939,0,20.999939-4.2499847,27.874939-12.7499847V142.75h22.5
	L1000,142.875z"/>
</svg>
