<?xml version="1.0" encoding="UTF-8" standalone="no"?>
<!-- Generator: Adobe Illustrator 15.0.2, SVG Export Plug-In . SVG Version: 6.00 Build 0)  -->

<svg
   width="815.09454"
   height="235.8777"
   enable-background="new 0 0 105 30"
   version="1.1"
   viewBox="0 0 815.09457 235.8777"
   xml:space="preserve"
   id="svg40"
   xmlns="http://www.w3.org/2000/svg"
   xmlns:svg="http://www.w3.org/2000/svg"><defs
   id="defs44" />


<g
   id="g346"
   transform="translate(380.90107,136.80285)"><path
     d="m 128.33,-25.609 c -29.944,1.342 -56.244,-10.02 -41.623,-38.807 14.578,-28.765 86.185,-61.844 109.69,-72.327 0,0 -124.4,-0.0474 -131.94,-0.0474 -4.4976,0 -10.119,-0.7546 -13.549,9.4841 -2.5769,7.6189 -14.385,37.194 -40.723,46.429 -32.589,11.456 -59.785,-7.2845 -101.2,-40.067 -15.43,-12.284 -17.952,-13.385 -32.911,-10.929 -7.6704,1.2562 -24.285,-2.7955 -29.155,-3.9702 -4.8878,-1.2777 -12.434,-0.75461 -12.434,-0.6775 0,0.56171 30.017,4.9006 87.936,46.353 22.068,15.787 61.359,46.507 102.25,64.287 44.183,19.174 108.33,29.451 167.04,-11.422 0.0985,-0.81031 0.12437,-1.6207 0.19297,-2.4139 0,1.0547 -33.589,13.36 -63.576,14.106"
     fill="#0994dc"
     stroke-width="7.7497"
     id="path2" /><g
     fill="#12427d"
     stroke-width="7.8871"
     id="g22"><path
       d="M 12.59,39.396 H 24.552 V 98.011 H 12.59 V 39.396"
       id="path4" /><path
       d="m 290.58,98.01 h -7.5196 L 247.5634,57.149 V 98.01 h -11.962 V 39.395 h 11.239 l 31.782,36.778 V 39.395 h 11.957 z"
       id="path6" /><path
       d="M -55.011,98.01 -32.762,66.306 -51.667,39.395 h 13.399 L -26.07,56.767 -13.886,39.395 H -0.48 L -19.377,66.306 2.894,98.01 H -10.5 L -26.069,75.854 -41.623,98.01 Z"
       id="path8" /><path
       d="M 53.805,78.258 H 72.898 L 63.3428,54.025 Z m 22.181,7.8491 H 50.723 l -4.6763,11.903 h -11.942 l 23.056,-58.615 h 11.952 l 23.513,58.615 h -11.971 z"
       id="path10" /><path
       d="m 196.39,90.142 h 27.154 v 7.8686 h -39.116 v -58.615 h 37.142 v 7.8638 h -25.18 v 16.789 h 21.466 v 7.8638 H 196.39 Z"
       id="path12" /><path
       d="m 153.38,39.396 h 12.965 l 5.6086,58.615 h -11.966 l -3.8928,-40.73 -19.708,40.73 h -0.71513 l -20.03,-40.737 -3.8904,40.737 h -11.964 l 5.6208,-58.615 h 12.967 l 17.501,36.378 z"
       id="path14" /><path
       d="m 366.68,39.396 h 6.7289 V 98.011 H 366.68 Z"
       id="path16" /><path
       d="m 316.12,76.879 h 23.872 L 328.057,47.301 Z m 25.905,5.0473 h -27.95 l -6.4774,16.084 h -6.724 l 23.64,-58.615 h 6.7312 l 23.999,58.615 h -6.7313 z"
       id="path18" /><path
       d="m 396.66,64.744 h 14.673 c 6.4823,0 11.058,-4.4737 11.078,-10.117 -0.0158,-5.6184 -4.5957,-10.178 -11.078,-10.178 H 396.66 Z m 13.806,5.0619 H 396.66 v 28.204 h -6.7215 v -58.615 h 22.146 c 9.7138,0 16.462,6.7923 16.482,15.232 -0.0158,6.9778 -4.6299,12.798 -11.716,14.6 l 17.343,28.782 h -6.724 z"
       id="path20" /></g><g
     transform="matrix(1.8172,0,0,1.8172,-220.91,200.58)"
     fill="#12427d"
     stroke-width="4.0514"
     id="g38"><path
       d="m -40.997,-83.079 h 3.4316 v 26.302 h -3.4316 z m 13.88,-6.9361 h 15.083 c 0.76572,0 1.499,0.23904 2.123,0.69685 0.80218,0.60772 1.2235,1.499 1.2235,2.5767 v 26.958 c 0,2.1675 -1.4018,3.0021 -3.3465,3.0021 h -4.6186 l -1.3451,-2.7793 h 5.04 c 0.52264,0 0.83865,-0.34437 0.83865,-0.91968 v -25.848 c 0,-0.44971 -0.36464,-0.91562 -0.90752,-0.91562 h -14.091 z m -13.884,0.01214 h 3.4397 v 1.8596 c 0,0.44971 0.45781,0.75762 0.91157,0.75762 h 7.1832 v 2.5524 h -8.1758 c -2.5078,0 -3.3587,-1.6489 -3.3587,-3.1156 z"
       id="path24" /><path
       d="m 11.416,-63.223 c -0.67659,-2.208 -1.0372,-4.1487 -1.3046,-6.5876 h 2.8644 c 0.25928,2.4228 0.73736,4.57 1.3775,6.5876 z M 30.867,-79.25 c 2.516,0 3.3505,1.9001 3.3505,3.2776 v 15.874 c 0,0.39704 0.32007,0.70899 0.77384,0.70899 h 3.2452 l -1.2438,2.913 -2.6739,0.0044 c -1.3289,0 -2.2486,-0.37273 -2.7955,-1.1466 -0.47806,-0.64012 -0.709,-1.5395 -0.709,-2.7469 v -15.395 c 0,-0.22688 -0.1661,-0.62392 -0.69279,-0.62392 h -4.3391 c -0.46997,0 -0.72114,0.30386 -0.72114,0.66038 v 8.192 c 0,3.5977 -0.69686,7.718 -2.3661,11.06 h -4.1203 c 2.3174,-3.1358 3.0345,-7.2764 3.0345,-12.754 v -6.7456 c 0,-1.8961 1.4018,-3.2776 3.1156,-3.2776 z m -21.379,4.7442 h 5.7692 l -0.0077,-9.2737 c 0,-0.31197 -0.19447,-0.66444 -0.67254,-0.66444 h -4.4282 c -0.23498,0 -0.66038,0.16611 -0.66038,0.66038 z m 0.87916,-12.794 c 0.38894,-0.81029 0.71305,-1.7502 0.94804,-2.7145 h 3.6665 c -0.24307,0.89537 -0.51453,1.8191 -0.93183,2.7145 h 1.5922 c 1.6246,0 2.9535,1.0169 2.9535,2.9981 v 25.05 c 0,1.4383 -0.79813,2.7793 -2.9494,2.7793 h -3.1237 l -1.1628,-2.7631 h 3.075 c 0.46997,0 0.82244,-0.2998 0.82244,-0.7414 v -11.701 h -5.7692 c -0.04452,5.7773 -0.52264,10.85 -1.5436,15.205 h -3.6341 c 1.5963,-4.9711 1.8758,-10.242 1.9487,-15.205 h -1.9285 v -2.8279 h 1.9285 v -9.6829 c 0,-1.8677 1.1506,-3.1115 2.8239,-3.1115 z m 1.2033,10.927 c -0.64012,-2.2121 -0.99665,-3.9461 -1.2721,-5.7693 h 2.7388 c 0.2836,2.05 0.86702,3.9299 1.4302,5.7693 z m 14.622,-9.1927 c -0.47807,-1.2438 -1.0331,-2.4471 -1.6368,-4.4485 h 3.6828 c 0.37273,1.1182 1.0777,2.6213 1.9406,4.4485 h 7.4101 v 2.8198 h -18.021 v -2.8198 z"
       id="path26" /><path
       d="m -60.488,-71.162 v -0.95209 H -76.52 v 0.90348 c 0,0.43756 0.27145,0.68469 0.71305,0.68469 h 14.678 c 0.35652,0 0.64012,-0.30791 0.64012,-0.63607 m -0.76572,6.5755 h -13.293 c -0.37273,0.39299 -0.78598,0.81029 -1.2357,1.2519 h 5.1939 c 0,0 2.2283,1.1141 2.8806,1.4018 2.1554,-0.83055 4.2581,-1.6732 6.4539,-2.6537 m 0.76572,-11.202 h -16.032 v 1.5922 h 16.032 z m -16.032,-3.0021 v 0.95209 h 16.032 v -0.90348 c 0,-0.43351 -0.27145,-0.6847 -0.71305,-0.6847 h -14.678 c -0.35652,0 -0.64012,0.30792 -0.64012,0.63608 m -5.3357,-6.5836 h 26.675 v 2.2526 h -10.858 l -0.73737,1.5679 h 6.6444 c 1.9001,0 2.9981,1.5801 2.9981,2.9535 v 7.1832 c 0,1.7786 -1.4261,3.0224 -2.9049,3.0224 h -11.182 c -0.31601,0.42134 -0.64012,0.81029 -1.264,1.5395 h 13.597 c 1.0615,0 1.965,0.57125 2.2121,1.4545 0.05262,0.17421 0.08106,0.35652 0.07701,0.55099 0,0.8427 -0.52668,1.6165 -1.4221,2.0379 -1.3046,0.61583 -4.6592,1.9406 -6.0772,2.5281 0,0 6.4175,2.832 8.9091,3.6747 l -7.9854,-0.0044 c -0.84676,-0.24308 -4.7685,-2.1189 -4.7685,-2.1189 0,0 -4.0312,1.6206 -5.3074,2.127 0,0 -0.03238,-0.02833 -9.2089,-0.02833 2.9819,-0.83459 10.939,-3.8448 10.939,-3.8448 -1.6449,-0.82245 -3.2168,-1.6327 -4.7159,-2.4268 -0.42946,0.39704 -0.92778,0.83055 -1.4909,1.2965 h -4.7969 c 3.148,-2.1392 6.146,-5.5505 7.0819,-6.7862 h -1.5233 c -1.6044,0 -2.9535,-1.3896 -2.9535,-2.9819 v -7.1386 c 0,-1.5152 1.0979,-3.0386 3.0386,-3.0386 h 6.4134 c 0.2836,-0.5672 0.50643,-1.0493 0.7252,-1.5679 h -12.114 z m -1.1263,-3.8894 h 27.797 v 2.5524 h -27.161 c -0.49832,0 -0.79813,0.27144 -0.79813,0.7171 v 18.475 c 0,3.4437 -0.4335,7.5235 -1.1952,10.915 h -3.703 c 1.0979,-4.6835 1.5031,-8.2892 1.5031,-13.098 v -16.036 c 0,-2.2891 1.1425,-3.5247 3.5572,-3.5247"
       id="path28" /><path
       d="m 80.861,-72.237 v 2.8117 H 68.776 v 9.9584 h 14.857 v 2.7631 H 50.557 v -2.7631 h 14.857 v -9.9584 H 53.333 V -72.237 Z M 65.044,-90.015 h 4.0595 c 0.24309,0.72926 0.71711,1.8069 1.2316,2.6577 h 8.7227 c 3.1318,0 4.335,2.0905 4.335,4.0676 v 3.7314 h -3.3465 v -3.8529 c 0,-0.66444 -0.34032,-1.102 -1.0736,-1.102 h -6.4783 v 5.7976 c 0,0.5672 0.4011,0.90346 0.75763,0.90346 h 9.0144 l -1.1709,2.8603 h -8.9213 c -0.89942,0 -1.9974,-0.4254 -2.6172,-1.183 -0.52264,-0.59557 -0.78598,-1.5639 -0.78598,-2.3822 v -5.9961 h -3.2411 c -1.0817,3.7354 -3.8246,7.6289 -7.6127,10.534 h -6.5188 c 0,0 7.953,-3.8853 10.189,-10.534 h -6.3567 c -0.75762,0 -1.0939,0.36868 -1.0939,1.102 v 3.8529 h -3.3465 v -3.7314 c 0,-1.9204 1.0615,-4.0676 4.2459,-4.0676 h 11.121 c -0.47401,-0.93183 -0.85485,-1.7988 -1.1141,-2.6577"
       id="path30" /><path
       d="m -47.469,-55.858 v -34.158 h -1.2438 v 34.158 z"
       id="path32" /><path
       d="m 44.804,-55.858 v -34.158 h -1.2397 v 34.158 z"
       id="path34" /><path
       d="m -1.5646,-55.858 v -34.158 h -1.2478 v 34.158 z"
       id="path36" /></g></g></svg>
