<?xml version="1.0" encoding="UTF-8"?>
<!-- Generated by Pixelmator Pro 3.4.3 -->
<svg width="471" height="100" viewBox="0 0 471 100" xmlns="http://www.w3.org/2000/svg">
    <g id="g1">
        <path id="path1" fill="#1c1d80" stroke="none" d="M 122.281097 35.649849 C 81.138824 36.78804 41.32753 46.107872 37.630852 59.317223 C 37.29055 60.515942 37.204762 61.703697 37.204762 62.910854 C 37.204762 75.92395 64.420761 80.368484 93.883583 84.036804 C 94.389893 84.092102 94.367775 83.697083 94.201759 83.406921 C 94.085564 83.19989 93.642929 82.423676 93.341301 81.88501 C 93.225105 81.680504 93.103348 81.539726 92.679947 81.423729 C 76.556694 77.327179 60.190067 71.341339 60.190067 65.767044 C 60.190067 55.215107 87.616341 44.762642 118.850067 39.992214 C 119.873833 39.790569 120.371864 39.597191 121.063614 39.047573 C 121.921371 38.356995 123.830589 36.801868 124.66066 36.158169 C 125.186394 35.724533 124.992676 35.589149 124.798965 35.594711 C 123.941216 35.608543 123.111153 35.625069 122.281097 35.649849"/>
        <path id="path2" fill="#df0012" stroke="none" d="M 76.764252 99.348045 C 55.400379 94.003036 34.221947 76.1035 37.558907 59.524258 C 42.428818 35.329514 75.02932 11.888733 115.723351 0.878387 C 116.636513 0.607628 116.968529 0 115.806282 0 C 104.636024 0 68.377525 0 60.270287 0 C 50.65781 0 48.574299 1.242897 44.849922 6.26757 C 42.866058 8.946907 26.25033 31.81041 18.754627 42.121922 C 17.791656 43.351158 16.427588 44.666039 13.389382 44.666039 C 11.709842 44.666039 0 44.666039 0 44.666039 L 0.005573 44.685429 C 15.882434 89.445374 32.935394 100 50.015888 100 C 50.015888 100 76.606506 100 76.985657 100 C 77.3675 100 77.743774 99.594025 76.764252 99.348045"/>
    </g>
    <g id="g2">
        <path id="path3" fill="#df0012" stroke="none" d="M 195.471207 33.227455 L 195.275742 33.836327 L 194.801025 34.006691 L 182.011581 34.006691 L 182.011581 17.865974 L 194.689331 17.865974 C 194.968582 17.865974 195.164047 17.930214 195.275742 18.064278 L 195.415359 18.477638 L 195.415359 18.533508 L 195.471207 33.157623 L 195.471207 33.227455 Z M 176.203278 34.023453 C 175.840256 34.023453 163.330063 34.006691 163.330063 34.006691 C 163.274216 34.006691 162.771576 33.987144 162.715729 33.288895 L 162.715729 18.522324 L 162.88327 18.041931 L 163.38591 17.865974 C 163.38591 17.865974 175.840256 17.893906 176.203278 17.893906 L 176.203278 34.023453 Z M 197.453857 12.064926 C 197.453857 12.064926 182.402512 12.064926 182.039505 12.064926 L 182.039505 7.892189 C 182.039505 6.283417 180.727066 4.970711 179.107437 4.970711 C 177.515732 4.970711 176.203278 6.283417 176.203278 7.892189 L 176.203278 12.064926 C 175.840256 12.064926 160.872711 12.064926 160.872711 12.064926 C 158.666672 12.070503 156.851578 13.908295 156.851578 16.106384 L 156.879486 35.769081 C 156.879486 37.972752 158.666672 39.782619 160.872711 39.802162 C 160.872711 39.802162 174.471954 39.827297 176.203278 39.827297 L 176.203278 49.245281 C 176.203278 50.854046 177.515732 52.166756 179.107437 52.166756 C 180.727066 52.166756 182.039505 50.854046 182.039505 49.245281 L 182.039505 39.846851 C 182.402512 39.846851 197.453857 39.874783 197.453857 39.874783 C 199.68782 39.874783 201.502914 38.064922 201.502914 35.84449 L 201.502914 16.092422 C 201.502914 13.871986 199.68782 12.064926 197.453857 12.064926"/>
        <path id="path4" fill="#df0012" stroke="none" d="M 215.494156 51.376339 C 213.288132 51.328857 211.527817 49.518028 211.499908 47.303185 L 211.499908 11.454468 C 211.499908 9.264771 213.288132 7.454651 215.494156 7.423927 L 250.984436 7.413269 L 250.984436 7.420372 C 253.218414 7.420372 255.035507 9.224915 255.035507 11.450912 L 255.007095 47.335148 C 255.007095 49.544399 253.190475 51.359577 250.984436 51.376339 L 215.494156 51.376339 Z M 248.666 45.889835 C 249.140701 45.889835 249.393845 45.65086 249.393845 45.176056 L 249.475494 13.574493 L 249.308624 13.102188 C 249.19696 12.982094 249.030441 12.928185 248.751205 12.928185 L 217.642181 12.913979 L 217.141571 13.070229 L 216.974701 13.574493 L 216.974701 45.126339 C 216.974701 45.601147 217.170059 45.822361 217.588928 45.822361 L 248.666 45.889835 Z M 244.284744 45.264835 C 243.47493 45.264835 242.690018 44.820137 242.24324 44.110714 C 242.215302 44.091167 241.04454 42.341846 239.67627 39.710857 C 239.424927 40.118626 238.195724 41.944523 238.195724 41.944523 C 237.637283 42.852242 237.275803 43.451324 236.63353 44.096508 C 235.963333 44.758442 235.179092 45.070641 234.425156 44.970089 C 233.72702 44.880711 233.140747 44.466736 232.77774 43.815971 C 232.666031 43.637218 232.639267 43.35516 232.639267 43.03117 C 232.639267 42.221203 232.889999 41.147633 233.225098 40.815258 C 233.951141 39.915916 235.627945 37.655304 237.443024 34.831596 C 235.990952 30.985649 234.872345 26.544998 234.034607 21.266251 C 233.755356 21.266251 219.989029 21.227188 219.989029 21.227188 C 218.67659 21.227188 217.588928 20.178078 217.588928 18.929604 C 217.588928 17.566628 218.898346 16.621368 220.099091 16.621368 C 220.099091 16.621368 233.029434 16.585854 233.42038 16.585854 C 233.392471 16.292587 233.335159 15.822403 233.335159 15.783302 L 233.335159 15.719376 C 233.251389 14.956894 233.420456 14.333115 233.839325 13.883438 C 234.23027 13.436562 234.871231 13.190971 235.625198 13.190971 C 237.021408 13.190971 237.804977 13.987122 238.000458 15.559578 L 238.138916 16.557449 C 238.390244 16.557449 240.459351 16.533867 240.989929 16.52549 C 240.654831 16.112129 240.400558 15.627762 240.400558 15.172501 L 240.400558 15.144096 C 240.400558 14.722359 240.569138 14.37249 240.876312 14.107162 C 241.40686 13.682625 242.020416 13.476784 242.690598 13.535431 C 243.360794 13.577324 243.94754 13.890022 244.366409 14.398354 L 244.646896 14.739265 C 245.037827 15.188934 245.232712 15.755058 245.232712 16.344376 L 245.204315 16.585854 L 246.43277 16.585854 C 247.717255 16.585854 248.722809 17.630867 248.722809 18.929604 C 248.722809 20.217186 247.717255 21.266251 246.43277 21.266251 L 238.69989 21.266251 C 239.286301 24.673698 239.872375 27.322525 240.542572 29.526199 C 241.603683 27.291801 242.804214 23.623734 242.804214 23.595802 C 243.111374 22.654556 243.946503 21.986938 244.923828 21.933868 C 245.510254 21.889183 246.124924 22.095795 246.59964 22.509155 C 247.046417 22.928108 247.328445 23.497253 247.384293 24.128471 L 247.299072 24.991394 C 246.377533 28.306671 244.868195 31.70697 242.662186 35.371368 C 242.745956 35.499855 243.558624 37.384678 243.865784 38.077335 C 244.089188 37.17799 244.451614 35.438843 244.451614 35.438843 C 244.702942 34.327232 245.73494 33.798927 246.656448 33.840828 C 247.242844 33.874344 247.773972 34.104462 248.136978 34.526199 C 248.583786 35.051277 248.778671 35.793053 248.722809 36.69239 L 248.722809 36.710148 C 247.996765 40.905205 246.965256 42.926922 246.546387 43.681026 L 246.43277 43.901196 C 246.041794 44.727924 245.206253 45.264835 244.284744 45.264835 Z M 220.351166 43.432446 C 219.625153 43.426861 218.814896 43.037346 218.256409 42.445232 C 217.809616 41.992767 217.614258 41.451424 217.642181 40.9431 C 217.698029 39.792393 218.59288 38.552147 220.407974 38.574493 C 224.205719 38.616386 229.760818 36.840538 229.816666 36.823784 C 229.844589 36.812611 232.696243 35.79538 233.533981 37.906879 C 234.120422 39.317345 233.086884 40.689381 231.85817 41.259151 L 231.829773 41.259151 C 231.801849 41.289879 226.85759 43.482723 220.351166 43.432446 Z M 220.546448 35.882729 C 219.513245 35.882729 218.622314 35.145119 218.426834 34.128471 L 218.398422 33.68103 L 218.398422 24.820938 C 218.398422 24.304237 218.563461 23.810539 218.870636 23.41114 C 219.289505 22.902817 219.90419 22.608582 220.546448 22.608582 L 231.520889 22.608582 C 232.414474 22.608582 233.170517 23.134834 233.505585 23.961563 C 233.617279 24.226898 233.700851 24.530472 233.700851 24.820938 L 233.700851 33.688126 C 233.700851 34.648918 233.057068 35.517448 232.163513 35.793953 L 231.520889 35.882729 L 220.546448 35.882729 Z M 222.669617 31.497078 L 229.40126 31.497078 L 229.40126 26.990685 L 222.669617 26.990685 L 222.669617 31.497078 Z"/>
        <path id="path5" fill="#df0012" stroke="none" d="M 290.107513 31.761131 C 290.107513 31.456688 290.107513 29.216713 290.107513 28.920647 L 301.64032 28.920647 C 301.64032 29.216713 301.584473 31.456688 301.584473 31.761131 L 290.107513 31.761131 Z M 290.107513 21.572289 L 301.64032 21.572289 C 301.64032 21.871132 301.584473 24.122284 301.584473 24.421135 L 290.107513 24.421135 C 290.107513 24.122284 290.107513 21.871132 290.107513 21.572289 M 284.159576 24.429512 L 272.487122 24.429512 C 272.487122 24.130661 272.487122 21.882301 272.487122 21.580658 L 284.159576 21.580658 C 284.159576 21.887886 284.159576 24.130661 284.159576 24.429512 M 284.159576 31.789055 L 272.487122 31.789055 C 272.487122 31.484627 272.487122 29.247429 272.487122 28.940208 L 284.159576 28.940208 C 284.159576 29.247429 284.159576 31.495789 284.159576 31.789055 M 308.649384 45.117233 C 308.565613 45.089306 300.802582 41.841049 293.346741 36.620941 L 302.952789 36.620941 C 305.13089 36.620941 306.91806 34.83342 306.91806 32.640923 L 306.91806 32.059975 C 306.91806 30.23336 306.862213 20.985756 306.862213 20.985756 C 306.862213 18.843521 305.186768 17.1007 303.064484 17.016899 C 303.064484 17.016899 291.4758 17.011314 289.912018 17.011314 L 289.912018 14.302109 C 290.275055 14.302109 307.085632 14.2658 307.085632 14.2658 C 308.705261 14.2658 309.961823 13.048058 309.961823 11.481186 C 309.961823 9.922699 308.649384 8.651878 307.057678 8.651878 C 307.057678 8.651878 291.699188 8.651878 289.912018 8.651878 L 289.912018 8.104454 C 289.912018 6.518036 288.627502 5.227669 287.035797 5.227669 C 285.444092 5.227669 284.159576 6.518036 284.159576 8.104454 L 284.159576 8.651878 L 267.041809 8.651878 C 265.450104 8.651878 264.137665 9.922699 264.137665 11.481186 C 264.137665 13.036888 265.450104 14.302109 267.041809 14.302109 L 284.159576 14.302109 L 284.159576 17.011314 L 270.979156 17.011314 C 268.465973 17.1007 267.013885 18.553047 267.013885 21.01368 L 266.985962 32.58506 L 267.013885 32.646515 C 267.013885 34.847389 268.801056 36.632114 270.979156 36.632114 C 270.979156 36.632114 279.524078 36.620941 280.501434 36.620941 C 275.056152 40.670784 265.142944 44.874245 265.031281 44.916138 C 264.053894 45.43005 263.439575 46.415977 263.439575 47.51083 C 263.439575 49.105633 264.724091 50.3932 266.315765 50.3932 L 267.069763 50.28986 C 267.209351 50.28986 277.736908 47.108639 284.103729 40.182011 C 284.131622 41.003155 284.103729 49.775951 284.103729 49.775951 C 284.103729 51.373543 285.444092 52.655533 287.035797 52.655533 C 288.627502 52.655533 289.884064 51.373543 289.884064 49.775951 C 289.884064 49.775951 289.912018 41.958359 289.884064 39.950195 C 294.547485 45.161922 305.884827 50.28986 305.996582 50.34293 C 306.443329 50.608265 307.644073 50.775845 308.146759 50.775845 C 309.654663 50.775845 310.855408 49.465931 310.855408 47.801304 C 310.855408 46.597523 309.710541 45.622768 308.649384 45.117233"/>
        <path id="path6" fill="#df0012" stroke="none" d="M 336.266785 8.325096 C 336.266785 8.325096 336.266785 11.517494 336.266785 12.201782 L 319.204865 12.201782 C 317.613159 12.201782 316.328644 13.492142 316.328644 15.100906 C 316.328644 16.690117 317.613159 17.991661 319.204865 17.991661 C 319.204865 17.991661 326.353546 17.921837 327.554321 17.907875 C 327.554321 18.251404 327.526367 24.974144 327.526367 24.982529 C 327.135437 36.215954 321.88562 43.014111 319.651642 45.916031 L 319.037323 46.731586 C 318.339203 47.251083 317.920349 48.083397 317.920349 48.993912 C 317.920349 50.585918 319.232819 51.890247 320.824493 51.890247 C 321.718048 51.890247 322.667511 51.479679 323.19809 50.884769 L 323.253937 50.845669 C 325.320343 49.220142 332.106018 42.826977 333.418457 28.37043 C 333.697693 28.37043 351.429779 28.37043 351.792816 28.37043 C 351.792816 31.319839 351.709045 34.788734 351.541504 38.983822 C 351.234314 46.262363 346.207916 46.086407 343.778473 45.997028 L 343.638824 45.985855 C 341.516571 45.768002 338.333191 44.985966 338.305267 44.985966 L 337.523346 44.893795 C 335.931671 44.893795 334.647156 46.184162 334.647156 47.784546 C 334.647156 49.116802 335.540741 50.273106 336.825287 50.588711 C 336.825287 50.625023 339.896973 51.680775 342.74527 51.722668 L 343.331665 51.731049 C 346.93396 51.784115 351.038849 51.848354 353.942993 49.046982 C 356.372437 46.667347 357.601105 42.63147 357.684906 36.701939 C 357.7966 34.249687 357.852448 30.336708 357.852448 28.102303 C 357.852448 27.406853 357.852448 26.873383 357.852448 26.599678 C 357.712799 24.32618 355.981506 22.616859 353.859253 22.616859 C 353.859253 22.616859 335.540741 22.588928 333.697693 22.588928 L 333.697693 17.907875 C 334.06073 17.907875 359.527893 17.991661 359.527893 17.991661 C 361.119598 17.991661 362.432037 16.690117 362.432037 15.100906 C 362.432037 13.492142 361.119598 12.201782 359.527893 12.201782 L 342.326385 12.201782 C 342.326385 11.883377 342.326385 8.249695 342.326385 8.249695 C 342.326385 6.721916 340.902222 5.434349 339.2547 5.434349 C 337.63504 5.434349 336.266785 6.763809 336.266785 8.325096"/>
        <path id="path7" fill="#df0012" stroke="none" d="M 371.535675 52.624805 C 369.999817 52.624805 368.741486 51.37331 368.741486 49.837166 C 368.741486 49.451733 368.828125 49.066204 368.911896 48.67239 C 368.939819 48.650047 369.998688 46.49268 370.640961 41.026794 L 370.669373 40.756908 C 370.892761 38.882805 371.032471 36.838936 371.088318 34.6241 L 371.059906 34.524666 L 371.088318 34.237022 C 371.088318 34.237022 371.11673 32.91452 371.11673 32.621254 C 369.525024 32.610092 368.212463 31.370758 368.212463 29.851372 C 368.212463 28.320808 369.525024 27.077698 371.11673 27.063728 L 371.11673 14.300941 C 371.11673 12.708939 372.399933 11.396111 373.935791 11.396111 L 374.049408 11.417419 C 374.049408 11.417419 377.735565 11.396111 377.986847 11.396111 L 378.934814 7.596397 C 379.13028 6.864624 379.577789 6.253189 380.220062 5.870544 C 380.862305 5.482323 381.617218 5.372192 382.343231 5.550941 C 383.069275 5.735283 383.681335 6.195587 384.072296 6.843559 C 384.323639 7.279266 384.46286 7.771927 384.46286 8.274666 L 384.381195 8.963585 L 384.214325 9.393272 C 384.214325 9.393272 383.821838 11.010963 383.710175 11.371254 C 384.156952 11.371254 388.375458 11.3535 388.375458 11.3535 C 389.93924 11.3535 391.194519 12.648796 391.194519 14.254776 L 391.194519 27.017563 L 391.475006 27.017563 C 393.010834 27.017563 394.127167 28.190102 394.127167 29.801651 C 394.127167 31.413216 393.010834 32.585747 391.475006 32.585747 L 391.194519 32.585747 L 391.194519 45.394691 C 391.194519 48.014519 390.718781 49.649448 389.685577 50.67168 C 388.484833 51.84753 386.501984 52.280743 382.843842 52.138302 C 382.704254 52.146675 381.56131 52.099068 380.891113 51.50975 L 380.749084 51.406765 C 380.24646 50.996193 379.801117 50.600128 379.801117 49.368416 C 379.801117 47.818306 380.835297 46.730236 382.343231 46.666 L 382.64859 46.712166 C 383.234985 46.807129 384.742767 47.079441 385.329163 46.587875 L 385.581238 46.037449 L 385.581238 32.585747 C 385.274078 32.585747 383.65567 32.589294 383.376434 32.589294 L 383.376434 39.574379 C 383.376434 41.065834 382.369965 42.188015 381.029572 42.188015 C 379.745026 42.188015 378.796356 41.088177 378.796356 39.574379 L 378.796356 32.621254 C 378.489166 32.621254 377.009247 32.624809 376.72998 32.624809 C 376.72998 33.116379 376.701569 34.522858 376.701569 34.542419 C 376.617798 36.961151 376.449677 39.236732 376.254211 41.289577 L 376.197418 41.701511 C 375.471375 48.432621 374.217438 50.770874 374.077789 51.005489 C 373.630981 51.985825 372.624756 52.624805 371.535675 52.624805 Z M 394.379272 52.042419 C 392.815521 52.042419 391.556641 50.774445 391.556641 49.229919 C 391.556641 48.565189 392.004944 47.696667 392.060822 47.621254 L 392.114075 47.518272 L 392.227692 47.386879 C 392.730316 46.76125 395.133209 43.378895 395.412445 37.614155 L 395.412445 23.789581 C 395.496246 21.532852 397.115631 19.833611 399.126221 19.833611 L 399.264679 19.82296 L 399.403137 19.798103 L 399.768829 19.798103 C 401.137115 19.798103 407.947449 19.798103 408.059143 19.798103 C 411.828918 20.02433 411.914917 23.722076 411.914917 23.761169 L 411.914917 45.88475 C 412.25 45.881954 413.004913 45.877647 413.004913 45.877647 C 413.423767 45.849716 413.534668 45.566971 413.786011 44.762592 L 414.062958 43.94228 C 414.565582 42.651917 415.571655 42.110771 416.800354 42.493416 C 418.838806 43.113457 418.784088 44.337143 418.728241 44.915291 L 418.728241 45.096397 L 418.532959 46.165291 L 418.419342 46.594978 C 416.911438 51.784359 414.036652 51.542229 413.952881 51.531055 L 410.49118 51.534607 C 407.782532 51.542988 406.32959 49.185596 406.301666 46.850658 C 406.301666 46.451256 406.301666 43.942673 406.301666 40.778217 C 406.301666 34.954819 406.301666 26.921951 406.301666 25.653923 L 401.387848 25.653923 C 401.387848 25.653923 401.469025 36.662464 401.441101 37.905346 L 401.441101 37.983471 C 401.441101 45.884853 396.612488 50.909851 396.612488 50.923813 C 396.081909 51.636024 395.272827 52.042419 394.379272 52.042419 Z M 376.758392 27.060173 C 377.037628 27.057388 378.740601 27.056625 379.215302 27.056625 C 378.991882 26.735435 378.851685 26.374763 378.767944 25.91671 L 378.153717 21.960747 L 378.125305 21.545258 C 378.125305 20.324715 378.937195 19.265144 380.110016 19.04171 C 380.724335 18.918816 381.36438 19.043388 381.839081 19.389725 C 382.369629 19.763977 382.731689 20.34478 382.81546 21.037445 L 383.429688 24.989861 L 383.458069 25.433754 C 383.458069 26.059387 383.234802 26.606956 382.843842 27.056625 C 383.37442 27.056625 385.163544 27.049522 385.44278 27.049522 L 385.44278 17.184464 C 385.107697 17.184464 377.093445 17.202225 376.758392 17.202225 L 376.758392 27.060173 Z M 395.046753 17.177361 C 393.371277 17.177361 391.975616 15.906364 391.975616 14.350662 C 391.975616 12.806137 393.371277 11.531059 395.046753 11.531059 L 400.297852 11.531059 L 400.297852 8.150375 C 400.297852 6.583511 401.553131 5.309464 403.116913 5.309464 C 404.680695 5.309464 405.967926 6.586823 405.967926 8.139725 C 405.967926 8.139725 405.940002 11.218239 405.967926 11.531059 L 412.919708 11.531059 C 414.595154 11.531059 415.962433 12.806137 415.962433 14.350662 C 415.962433 15.906364 414.595154 17.177361 412.919708 17.177361 L 395.046753 17.177361 Z"/>
        <path id="path8" fill="#df0012" stroke="none" d="M 430.204956 32.478928 C 428.613251 32.478928 427.328705 33.777672 427.328705 35.375259 C 427.328705 36.967274 428.613251 38.277187 430.204956 38.277187 L 444.558167 38.277187 L 444.558167 45.631145 L 427.468323 45.631145 C 425.876617 45.631145 424.592102 46.932682 424.592102 48.521896 C 424.592102 50.116695 425.876617 51.418232 427.468323 51.418232 L 467.372498 51.418232 C 468.964203 51.418232 470.276672 50.116695 470.276672 48.521896 C 470.276672 46.932682 468.964203 45.631145 467.372498 45.631145 L 450.506073 45.631145 L 450.506073 38.277187 L 464.859283 38.277187 C 466.478912 38.277187 467.763458 36.967274 467.763458 35.375259 C 467.763458 33.777672 466.478912 32.478928 464.859283 32.478928 L 430.204956 32.478928 M 444.530243 8.422859 L 444.530243 10.363991 L 429.646454 10.363991 C 427.440399 10.389122 425.653259 12.187813 425.653259 14.385895 L 425.653259 20.287506 C 425.653259 21.887886 426.937775 23.178253 428.529449 23.178253 C 430.149078 23.178253 431.433594 21.887886 431.433594 20.287506 L 431.433594 16.145485 L 438.163422 16.145485 C 438.191345 16.327026 438.219269 16.651024 438.219269 17.078354 C 438.219269 17.676048 438.163422 18.472054 437.940033 19.298782 C 437.102295 22.22863 434.114349 24.270309 429.087952 25.362373 L 428.892487 25.401482 C 427.412506 25.557884 426.351349 26.733734 426.351349 28.194466 C 426.351349 29.755753 427.719666 31.088013 429.395111 31.088013 L 429.702271 31.065674 C 440.927979 30.035057 443.915863 24.178146 444.446472 19.449608 C 444.58606 18.134109 444.613983 16.690117 444.613983 16.145485 L 444.613983 16.109177 C 444.949066 16.109177 449.947601 16.145485 450.282684 16.145485 L 450.282684 26.658325 C 450.310608 28.831284 452.014008 30.579689 454.192139 30.632759 L 462.597412 30.638344 C 466.981567 30.638344 468.824585 27.593979 468.824585 27.571632 C 469.159668 27.088448 469.32724 26.325951 469.383057 25.775734 C 469.466827 24.384827 468.852478 24.013359 468.182343 23.599998 L 468.042725 23.499443 C 467.00946 22.851463 465.892517 23.058151 464.663818 24.099945 C 463.239685 25.334442 462.010986 25.144524 461.983063 25.144524 L 457.068329 25.127762 C 457.068329 25.127762 456.593628 25.144524 456.314392 24.851257 C 456.146851 24.68647 456.063049 24.432312 456.063049 24.111115 C 456.063049 24.111115 456.063049 16.494614 456.063049 16.145485 L 463.853973 16.145485 C 463.74231 16.525337 463.211731 18.472054 463.211731 18.472054 L 463.12796 19.156342 C 463.12796 19.659081 463.267578 20.150642 463.546814 20.597527 C 463.937775 21.248291 464.580017 21.709137 465.361969 21.887886 C 466.92572 22.256561 468.740814 21.153328 469.10379 19.617188 C 469.131744 19.494286 470.276672 16.419205 470.220795 14.645653 C 470.192902 11.82193 468.824585 10.408676 466.060059 10.347229 C 465.948334 10.347229 452.097748 10.363991 450.394409 10.363991 L 450.394409 8.422859 C 450.394409 6.853195 449.026062 5.520935 447.406464 5.520935 C 445.814728 5.520935 444.530243 6.825264 444.530243 8.422859"/>
    </g>
    <g id="g3">
        <path id="path9" fill="#1c1d80" stroke="none" d="M 160.39798 68.469475 C 158.052322 71.139572 156.851578 74.890564 156.851578 79.638657 C 156.851578 84.054382 158.052322 87.573563 160.370071 90.123566 C 162.68779 92.662399 165.927048 93.952759 169.976105 93.952759 C 171.902893 93.952759 173.606293 93.687431 175.058365 93.176308 C 176.538361 92.659607 177.934601 91.813324 179.219116 90.682167 C 180.001022 89.969955 180.643265 89.182327 181.117996 88.336052 C 181.592712 87.46743 181.84404 86.657455 181.84404 85.936867 C 181.84404 85.174377 181.564789 84.520821 180.978363 83.987358 C 180.419876 83.453896 179.721771 83.180183 178.911972 83.180183 C 178.381393 83.180183 177.878754 83.317039 177.459885 83.560028 C 177.041 83.800232 176.594208 84.244308 176.091583 84.875534 L 175.644775 85.635223 L 175.030457 86.596016 C 174.527802 87.185333 173.857605 87.651772 173.047806 87.975754 C 172.237991 88.288567 171.316467 88.450562 170.311188 88.450562 C 167.96553 88.450562 166.17836 87.651772 164.921753 86.054176 C 163.665161 84.459373 163.022888 82.141182 163.022888 79.183403 C 163.022888 76.289856 163.665161 73.994019 164.893845 72.35453 C 166.150452 70.737389 167.88176 69.91066 170.059875 69.91066 C 171.093094 69.91066 172.014587 70.081032 172.824402 70.418976 C 173.606293 70.742973 174.304413 71.259674 174.890823 71.93837 L 175.421387 72.717621 C 175.700638 73.153328 175.924026 73.463348 176.14743 73.670029 C 176.566299 74.07222 177.013092 74.376656 177.459885 74.569374 C 177.878754 74.762085 178.35347 74.871017 178.856094 74.871017 C 179.721771 74.871017 180.419876 74.600098 180.950455 74.07222 C 181.453094 73.547142 181.73233 72.837723 181.73233 71.971886 C 181.73233 71.184265 181.481018 70.363113 180.978363 69.516846 C 180.475723 68.678947 179.777618 67.938797 178.911972 67.28524 C 177.65535 66.318863 176.342896 65.595482 174.946671 65.145805 C 173.550461 64.682175 171.986664 64.45314 170.339127 64.45314 C 166.122513 64.45314 162.771576 65.810539 160.39798 68.469475"/>
        <path id="path10" fill="#1c1d80" stroke="none" d="M 203.653107 65.634583 C 203.150467 66.168045 202.899139 66.97242 202.899139 68.042145 L 202.899139 75.502235 L 191.868958 75.502235 L 191.868958 68.042145 C 191.868958 66.994766 191.589706 66.179214 191.114975 65.645752 C 190.584412 65.103912 189.83046 64.835785 188.825165 64.835785 C 187.819885 64.835785 187.065918 65.103912 186.563278 65.634583 C 186.060638 66.168045 185.809326 66.97242 185.809326 68.042145 L 185.809326 90.324661 C 185.809326 91.36087 186.060638 92.15966 186.563278 92.707092 C 187.065918 93.243347 187.819885 93.522644 188.825165 93.522644 C 189.83046 93.522644 190.612335 93.248932 191.114975 92.707092 C 191.617615 92.184792 191.868958 91.383209 191.868958 90.324661 L 191.868958 80.942993 L 202.899139 80.942993 L 202.899139 90.324661 C 202.899139 91.37204 203.150467 92.168037 203.653107 92.707092 C 204.18367 93.248932 204.937637 93.522644 205.914978 93.522644 C 206.948196 93.522644 207.702164 93.248932 208.204819 92.712669 C 208.707443 92.184792 208.958771 91.383209 208.958771 90.324661 L 208.958771 68.042145 C 208.958771 66.994766 208.707443 66.179214 208.204819 65.645752 C 207.674225 65.103912 206.920273 64.835785 205.914978 64.835785 C 204.909714 64.835785 204.155731 65.103912 203.653107 65.634583"/>
        <path id="path11" fill="#1c1d80" stroke="none" d="M 215.241806 65.634583 C 214.767059 66.168045 214.487808 66.97242 214.487808 68.042145 L 214.487808 90.324661 C 214.487808 91.36087 214.767059 92.15966 215.269714 92.707092 C 215.772354 93.248932 216.526321 93.522644 217.531601 93.522644 C 218.508957 93.522644 219.290848 93.248932 219.793488 92.707092 C 220.296143 92.184792 220.54744 91.383209 220.54744 90.324661 L 220.54744 68.042145 C 220.54744 66.994766 220.268204 66.179214 219.793488 65.645752 C 219.262939 65.103912 218.508957 64.835785 217.531601 64.835785 C 216.526321 64.835785 215.744446 65.103912 215.241806 65.634583"/>
        <path id="path12" fill="#1c1d80" stroke="none" d="M 243.976151 65.718369 C 243.501434 66.299316 243.278046 67.193077 243.278046 68.385674 L 243.278046 83.708054 C 242.635773 82.655098 234.342178 68.678947 234.342178 68.678947 C 232.834259 66.126144 231.298416 64.835785 229.734634 64.835785 C 228.394241 64.835785 227.444809 65.162567 226.886322 65.802155 C 226.355759 66.44455 226.104431 67.600845 226.104431 69.329712 L 226.104431 89.958778 C 226.104431 91.173737 226.327835 92.084251 226.802551 92.645638 C 227.277267 93.226585 228.059158 93.522644 229.064438 93.522644 C 230.097641 93.522644 230.851608 93.221001 231.326324 92.631676 C 231.828964 92.053528 232.080307 91.154182 232.080307 89.958778 L 232.080307 74.686684 C 232.694626 75.731262 241.379166 90.338623 241.379166 90.338623 C 242.216904 91.740715 242.915039 92.606544 243.501434 92.972427 C 244.115784 93.329926 244.953522 93.522644 245.986725 93.522644 C 247.159561 93.522644 248.025208 93.179108 248.499924 92.522751 C 249.002548 91.858017 249.225952 90.735229 249.225952 89.084579 L 249.225952 68.385674 C 249.225952 67.1819 249.002548 66.279762 248.499924 65.707199 C 248.025208 65.129044 247.27124 64.835785 246.265961 64.835785 C 245.232758 64.835785 244.47879 65.129044 243.976151 65.718369"/>
        <path id="path13" fill="#1c1d80" stroke="none" d="M 261.177643 82.487518 C 261.317291 82.057396 264.444855 72.438324 264.752014 71.502663 C 265.059174 72.427147 268.186737 82.057396 268.326355 82.487518 L 261.177643 82.487518 Z M 277.150513 90.14592 C 277.066742 89.869408 276.927094 89.377838 276.927094 89.377838 L 269.164093 67.860596 C 268.689362 66.578613 268.158813 65.7882 267.600311 65.422318 C 267.013885 65.062019 266.120331 64.891647 264.863678 64.891647 C 263.523315 64.891647 262.62973 65.067604 262.043335 65.453033 C 261.456909 65.827301 260.954285 66.645645 260.507477 67.938797 L 252.884079 89.38063 L 252.660675 90.14592 L 252.57692 90.905609 C 252.57692 91.704407 252.856171 92.363548 253.414627 92.841148 C 253.945221 93.329926 254.643326 93.578506 255.509003 93.578506 C 256.262939 93.578506 256.877289 93.391373 257.35199 93.039452 C 257.826691 92.673576 258.189728 92.123352 258.441071 91.394379 C 258.441071 91.394379 259.474274 88.162888 259.669739 87.567978 L 270.113525 87.567978 L 271.370117 91.397171 C 271.62146 92.137321 271.984467 92.690331 272.459167 93.053421 C 272.933899 93.399757 273.520325 93.578506 274.274292 93.578506 C 275.139954 93.578506 275.865997 93.329926 276.396545 92.841148 C 276.955048 92.341202 277.234283 91.690437 277.234283 90.905609 C 277.234283 90.905609 277.234283 90.422417 277.150513 90.14592"/>
        <path id="path14" fill="#1c1d80" stroke="none" d="M 295.832031 65.20166 C 294.463715 65.20166 293.542206 65.528442 292.983704 66.176422 C 292.453156 66.824402 292.201813 67.98349 292.201813 69.731903 L 292.201813 88.671211 C 292.201813 90.411247 292.453156 91.561958 292.983704 92.204346 C 293.542206 92.849533 294.463715 93.176308 295.832031 93.176308 L 310.40863 93.176308 C 311.441833 93.176308 312.251648 92.950081 312.81015 92.492027 C 313.368622 92.025597 313.647858 91.355278 313.647858 90.46431 C 313.647858 89.567764 313.396576 88.872307 312.81015 88.4366 C 312.279572 87.981339 311.469788 87.760689 310.40863 87.760689 L 298.177704 87.760689 L 298.177704 80.976509 L 308.481842 80.976509 C 309.515045 80.976509 310.32486 80.764236 310.855408 80.336914 C 311.41391 79.903992 311.721069 79.269989 311.721069 78.45723 C 311.721069 77.596985 311.441833 76.946213 310.883362 76.521675 C 310.352814 76.099937 309.542969 75.893257 308.481842 75.893257 L 298.177704 75.893257 L 298.177704 70.363113 L 309.682587 70.363113 C 310.71582 70.363113 311.525604 70.145264 312.084106 69.720734 C 312.642609 69.282234 312.921814 68.659393 312.921814 67.818695 C 312.921814 66.96405 312.642609 66.304901 312.084106 65.863602 C 311.525604 65.42511 310.71582 65.20166 309.682587 65.20166 L 295.832031 65.20166"/>
        <path id="path15" fill="#1c1d80" stroke="none" d="M 325.459961 82.487518 C 325.599579 82.057396 328.727112 72.438324 329.034302 71.502663 C 329.341461 72.427147 332.496948 82.057396 332.636566 82.487518 L 325.459961 82.487518 Z M 341.460724 90.14592 C 341.34903 89.869408 341.209381 89.377838 341.209381 89.377838 L 333.446411 67.860596 C 332.971649 66.578613 332.441101 65.7882 331.882599 65.422318 C 331.296204 65.062019 330.402618 64.891647 329.145996 64.891647 C 327.833557 64.891647 326.912048 65.067604 326.325623 65.453033 C 325.739227 65.827301 325.264526 66.645645 324.789764 67.938797 L 317.166351 89.38063 L 316.942993 90.14592 L 316.887146 90.905609 C 316.887146 91.704407 317.166351 92.363548 317.69693 92.841148 C 318.227539 93.329926 318.925598 93.578506 319.79129 93.578506 C 320.545227 93.578506 321.159576 93.391373 321.662231 93.039452 C 322.136932 92.673576 322.472076 92.123352 322.723328 91.394379 C 322.723328 91.394379 323.756561 88.162888 323.952057 87.567978 L 334.395813 87.567978 L 335.652435 91.397171 C 335.903748 92.137321 336.266785 92.690331 336.741486 93.053421 C 337.216187 93.399757 337.802612 93.578506 338.556549 93.578506 C 339.422241 93.578506 340.148285 93.329926 340.678833 92.841148 C 341.237335 92.341202 341.516571 91.690437 341.516571 90.905609 C 341.516571 90.905609 341.516571 90.422417 341.460724 90.14592"/>
        <path id="path16" fill="#1c1d80" stroke="none" d="M 347.157318 66.715469 C 345.258484 68.206932 344.309052 70.296089 344.309052 72.963402 C 344.309052 75.317894 344.979218 77.136131 346.263763 78.376228 C 347.520355 79.607941 350.005646 80.63855 353.579987 81.459702 L 353.99884 81.554657 C 358.522644 82.593643 360.812439 83.900772 360.812439 85.450882 C 360.812439 86.568085 360.393555 87.392014 359.527893 87.961784 C 358.662262 88.542732 357.377747 88.833206 355.646393 88.833206 C 354.557343 88.833206 353.60791 88.674004 352.82605 88.358398 C 352.072052 88.039993 351.401855 87.559601 350.871277 86.908829 L 350.089417 85.805595 C 349.195831 84.453781 348.218475 83.763916 347.157318 83.763916 C 346.347534 83.763916 345.677338 84.054382 345.174713 84.607407 C 344.672058 85.152031 344.420715 85.878212 344.420715 86.738457 C 344.420715 87.559601 344.672058 88.403084 345.174713 89.260529 C 345.677338 90.112396 346.375458 90.855331 347.213165 91.461411 C 348.441864 92.335625 349.754303 92.972427 351.038849 93.357857 C 352.351318 93.760048 353.942993 93.952759 355.730194 93.952759 C 359.109039 93.952759 361.817719 93.126038 363.77243 91.508896 C 365.727173 89.886162 366.732452 87.654556 366.732452 84.861557 C 366.732452 83.344971 366.453217 82.035049 365.894714 80.982086 C 365.336212 79.912369 364.442627 79.032578 363.269775 78.367851 C 362.599579 78.007553 361.817719 77.664017 360.868286 77.356781 C 359.974731 77.049553 358.49469 76.647369 356.512054 76.1558 L 354.752808 75.734055 C 351.709045 75.019043 350.173187 73.97168 350.173187 72.619865 C 350.173187 71.614388 350.564117 70.849106 351.318085 70.28212 C 352.100006 69.734695 353.216949 69.452614 354.641113 69.452614 C 355.646393 69.452614 356.512054 69.581085 357.238098 69.863174 C 357.936218 70.139687 358.550537 70.555832 358.997345 71.100479 L 359.555847 71.801514 C 360.50528 73.04998 361.510529 73.681206 362.543762 73.681206 C 363.353577 73.681206 364.023773 73.432625 364.526428 72.94944 C 365.029022 72.455078 365.252472 71.801514 365.252472 70.994339 C 365.252472 70.27095 365.001129 69.502884 364.498474 68.678947 C 363.995819 67.877357 363.353577 67.1819 362.543762 66.626099 C 361.538483 65.908295 360.393555 65.363663 359.136993 65.011742 C 357.880341 64.665405 356.484131 64.486664 354.976196 64.486664 C 351.625305 64.486664 349.000366 65.240768 347.157318 66.715469"/>
        <path id="path17" fill="#1c1d80" stroke="none" d="M 370.837341 65.257523 C 369.887909 65.257523 369.133972 65.489349 368.659241 65.919464 C 368.156586 66.374725 367.877319 67.022705 367.877319 67.894119 C 367.877319 68.759949 368.128662 69.416298 368.631317 69.852005 C 369.106018 70.279335 369.860016 70.494392 370.837341 70.494392 L 376.422272 70.494392 L 376.422272 90.321869 C 376.422272 91.358078 376.673584 92.162453 377.176239 92.704292 C 377.678864 93.248932 378.460785 93.522644 379.466034 93.522644 C 380.44339 93.522644 381.197327 93.248932 381.700012 92.704292 C 382.202637 92.184792 382.453979 91.380417 382.453979 90.321869 L 382.453979 70.494392 L 388.038879 70.494392 C 388.988312 70.494392 389.742279 70.268158 390.21701 69.832451 C 390.719604 69.396751 390.970947 68.743187 390.970947 67.894119 C 390.970947 67.022705 390.719604 66.374725 390.21701 65.919464 C 389.742279 65.489349 388.988312 65.257523 388.038879 65.257523 L 370.837341 65.257523"/>
        <path id="path18" fill="#1c1d80" stroke="none" d="M 398.035858 65.20166 C 396.695496 65.20166 395.746033 65.528442 395.187561 66.176422 C 394.684906 66.824402 394.405701 67.98349 394.405701 69.731903 L 394.405701 88.671211 C 394.405701 90.411247 394.684906 91.561958 395.187561 92.204346 C 395.746033 92.849533 396.695496 93.176308 398.035858 93.176308 L 412.612488 93.176308 C 413.673615 93.176308 414.483429 92.950081 415.041901 92.492027 C 415.600403 92.025597 415.879639 91.355278 415.879639 90.46431 C 415.879639 89.567764 415.600403 88.872307 415.069824 88.428223 C 414.511353 87.981339 413.673615 87.760689 412.612488 87.760689 L 400.3815 87.760689 L 400.3815 80.976509 L 410.713593 80.976509 C 411.746796 80.976509 412.528687 80.764236 413.087189 80.336914 C 413.645691 79.903992 413.924927 79.269989 413.924927 78.45443 C 413.924927 77.596985 413.673615 76.946213 413.115112 76.521675 C 412.55661 76.099937 411.77475 75.893257 410.713593 75.893257 L 400.3815 75.893257 L 400.3815 70.363113 L 411.886444 70.363113 C 412.947571 70.363113 413.757385 70.145264 414.287933 69.720734 C 414.874359 69.282234 415.153595 68.659393 415.153595 67.818695 C 415.153595 66.96405 414.874359 66.304901 414.287933 65.863602 C 413.757385 65.419525 412.947571 65.20166 411.886444 65.20166 L 398.035858 65.20166"/>
        <path id="path19" fill="#1c1d80" stroke="none" d="M 435.343048 76.437889 C 434.700806 76.99369 433.667572 77.275787 432.271362 77.275787 L 425.764954 77.275787 L 425.764954 70.32402 L 432.522675 70.32402 C 433.779266 70.32402 434.728729 70.625664 435.370972 71.209396 C 435.985291 71.78476 436.29248 72.658966 436.29248 73.804092 C 436.29248 75.013458 435.985291 75.89325 435.343048 76.437889 M 441.821533 88.065132 C 441.765717 87.760689 441.709839 87.204887 441.681915 86.394913 L 441.570221 84.37838 C 441.458527 83.09639 441.123444 82.065781 440.564972 81.294907 C 440.09024 80.613419 439.364197 80.130226 438.498505 79.758759 C 439.671326 79.311882 440.592865 78.574532 441.263031 77.532745 C 441.989075 76.390411 442.352112 74.938049 442.352112 73.228729 C 442.352112 70.527908 441.598175 68.489021 440.118134 67.179108 C 438.638153 65.863602 436.348328 65.20446 433.304565 65.20446 L 423.363434 65.20446 C 422.023041 65.20446 421.045685 65.531242 420.515137 66.179214 C 419.984528 66.827179 419.733246 67.986282 419.733246 69.734695 L 419.733246 90.324661 C 419.733246 91.360863 419.984528 92.15966 420.487213 92.707092 C 420.989838 93.251724 421.743774 93.522644 422.749084 93.522644 C 423.754364 93.522644 424.508331 93.251724 425.03891 92.707092 C 425.513611 92.184792 425.764954 91.377625 425.764954 90.324661 L 425.764954 82.440033 L 431.601166 82.440033 C 432.997406 82.440033 434.002686 82.688614 434.50531 83.171799 C 435.035889 83.652199 435.398895 84.990036 435.538513 87.140648 C 435.733978 90.011848 436.069092 91.7435 436.627594 92.461304 C 437.158142 93.184692 438.051727 93.561745 439.280426 93.561745 C 440.201935 93.561745 440.927979 93.310371 441.486481 92.816017 C 442.016998 92.321655 442.296234 91.648544 442.296234 90.802261 C 442.296234 90.545303 442.240417 90.109604 442.100769 89.467209 L 441.821533 88.065132"/>
        <path id="path20" fill="#1c1d80" stroke="none" d="M 465.026825 65.718369 C 464.552124 66.299316 464.300781 67.193077 464.300781 68.385674 L 464.300781 83.708054 C 463.658539 82.655098 455.36499 68.678947 455.36499 68.678947 C 453.884949 66.126144 452.321198 64.835785 450.757416 64.835785 C 449.417023 64.835785 448.46756 65.162567 447.937012 65.802155 C 447.406464 66.44455 447.127197 67.600845 447.127197 69.329712 L 447.127197 89.958778 C 447.127197 91.196083 447.37851 92.075874 447.85321 92.645638 C 448.327972 93.226585 449.08194 93.522644 450.115143 93.522644 C 451.120453 93.522644 451.87439 93.221001 452.377014 92.631676 C 452.851715 92.045151 453.103058 91.154182 453.103058 89.958778 L 453.103058 74.686684 C 453.717407 75.722878 462.401947 90.338623 462.401947 90.338623 C 463.239685 91.740715 463.937775 92.606544 464.552124 92.966835 C 465.138519 93.329926 465.976227 93.522644 467.00946 93.522644 C 468.182281 93.522644 469.047974 93.179108 469.522705 92.522751 C 470.025299 91.858017 470.248718 90.735229 470.248718 89.084579 L 470.248718 68.385674 C 470.248718 67.1819 470.025299 66.279762 469.550659 65.707199 C 469.047974 65.129044 468.294006 64.835785 467.288727 64.835785 C 466.255493 64.835785 465.501526 65.129044 465.026825 65.718369"/>
    </g>
</svg>
