<?xml version="1.0" encoding="UTF-8" standalone="no"?>
<!-- Generator: Adobe Illustrator 14.0.0, SVG Export Plug-In . SVG Version: 6.00 Build 43363)  -->
<svg
   xmlns:dc="http://purl.org/dc/elements/1.1/"
   xmlns:cc="http://web.resource.org/cc/"
   xmlns:rdf="http://www.w3.org/1999/02/22-rdf-syntax-ns#"
   xmlns:svg="http://www.w3.org/2000/svg"
   xmlns="http://www.w3.org/2000/svg"
   xmlns:sodipodi="http://sodipodi.sourceforge.net/DTD/sodipodi-0.dtd"
   xmlns:inkscape="http://www.inkscape.org/namespaces/inkscape"
   version="1.0"
   id="Layer_1"
   x="0px"
   y="0px"
   width="651"
   height="166"
   viewBox="0 0 609.449 793.701"
   enable-background="new 0 0 609.449 793.701"
   xml:space="preserve"
   sodipodi:version="0.32"
   inkscape:version="0.45.1">
<polyline
   style="fill:#00a7ea"
   points="349.803,708.34 335.281,733.487 339.322,733.487 353.842,708.34 349.803,708.34 "
   id="polyline871"
   transform="matrix(31.562453,0,0,31.562453,-9307.0944,-22356.948)" /><polyline
   style="fill:#0d318f"
   points="335.281,733.487 349.803,708.34 333.642,708.34 319.122,733.487 335.281,733.487 "
   id="polyline873"
   transform="matrix(31.562453,0,0,31.562453,-9307.0944,-22356.948)" /><path
   style="fill:#0d318f"
   d="M -363.17897,264.3355 C -361.75866,257.95989 -355.69867,252.75208 -348.9443,252.75208 C -342.88431,252.75208 -337.17151,257.29707 -335.15151,262.66269 L -189.36454,793.6694 L 49.342292,793.6694 L 171.11024,103.49324 L 65.91258,103.49324 L -27.701656,634.94183 C -28.806341,641.63307 -34.519145,646.77774 -41.52601,646.77774 C -47.996313,646.77774 -53.551305,642.20119 -55.097865,636.17276 L -201.35827,103.49324 L -440.00198,103.49324 L -561.64367,793.6694 L -456.50914,793.6694 L -363.17897,264.3355"
   id="path875" /><path
   style="fill:#0d318f"
   d="M -770.87117,559.53912 L -791.32364,250.54271 C -791.48146,243.69366 -796.08957,237.16023 -802.97019,235.36117 C -810.48205,233.37274 -818.24642,237.38117 -821.27641,244.19866 L -1132.5769,793.6694 L -1251.5989,793.6694 L -860.5401,103.49324 L -630.57607,103.49324 L -584.68426,793.6694 L -755.18463,793.6694 L -760.13994,718.48764 C -761.02369,702.23297 -773.11211,689.60799 -789.08271,689.60799 L -1047.1689,689.57643 L -988.93616,586.61971 L -795.42676,586.61971 C -781.34991,586.65127 -769.79805,574.12098 -770.87117,559.53912"
   id="path877" /><path
   style="fill:#0d318f"
   d="M 526.59814,561.11725 L 499.35975,254.86677 C 498.63381,246.88147 491.97413,240.66366 483.83102,240.66366 C 478.37072,240.66366 473.38385,243.63053 470.54323,247.89146 L 190.30021,793.70096 L 73.992568,793.70096 L 428.15485,103.5248 L 657.96107,103.5248 L 719.03442,793.70096 L 547.23999,793.70096 L 540.45406,718.36139 C 539.31781,702.16985 527.54502,689.60799 511.63754,689.60799 L 269.61665,689.60799 L 322.54689,586.65127 L 501.79006,586.65127 C 516.40347,586.65127 527.95533,573.99473 526.59814,561.11725"
   id="path879" />



</svg>