<?xml version="1.0" encoding="UTF-8"?>
<svg xmlns="http://www.w3.org/2000/svg" xmlns:xlink="http://www.w3.org/1999/xlink" width="75pt" height="58pt" viewBox="0 0 75 58" version="1.1">
<g id="surface1">
<path style=" stroke:none;fill-rule:evenodd;fill:rgb(0%,32.499695%,19.599915%);fill-opacity:1;" d="M 33.316406 47.140625 C 36.910156 45.589844 42.496094 43.894531 46.417969 44.5 C 48.105469 44.761719 48.050781 45.53125 46.375 45.351563 C 41.679688 44.847656 37.753906 45.628906 33.316406 47.140625 "/>
<path style=" stroke:none;fill-rule:nonzero;fill:rgb(13.699341%,12.199402%,12.5%);fill-opacity:1;" d="M 24.582031 40.71875 L 25.132813 40.796875 C 24.960938 41.277344 24.703125 41.640625 24.371094 41.886719 C 24.035156 42.136719 23.660156 42.257813 23.246094 42.257813 C 22.738281 42.257813 22.335938 42.105469 22.039063 41.796875 C 21.742188 41.484375 21.59375 41.042969 21.59375 40.46875 C 21.59375 39.71875 21.820313 39.097656 22.269531 38.605469 C 22.671875 38.167969 23.171875 37.949219 23.769531 37.949219 C 24.210938 37.949219 24.570313 38.066406 24.84375 38.304688 C 25.117188 38.542969 25.277344 38.859375 25.320313 39.257813 L 24.800781 39.304688 C 24.746094 39.003906 24.628906 38.78125 24.457031 38.632813 C 24.285156 38.484375 24.066406 38.410156 23.792969 38.410156 C 23.285156 38.410156 22.871094 38.636719 22.554688 39.089844 C 22.285156 39.480469 22.148438 39.941406 22.148438 40.480469 C 22.148438 40.90625 22.253906 41.234375 22.464844 41.460938 C 22.671875 41.683594 22.949219 41.796875 23.285156 41.796875 C 23.574219 41.796875 23.835938 41.703125 24.070313 41.515625 C 24.304688 41.328125 24.472656 41.0625 24.582031 40.71875 Z M 25.554688 41.039063 C 25.554688 40.453125 25.726563 39.964844 26.074219 39.578125 C 26.359375 39.261719 26.734375 39.101563 27.199219 39.101563 C 27.5625 39.101563 27.855469 39.214844 28.078125 39.441406 C 28.300781 39.667969 28.414063 39.976563 28.414063 40.363281 C 28.414063 40.707031 28.34375 41.03125 28.203125 41.328125 C 28.0625 41.625 27.863281 41.855469 27.605469 42.011719 C 27.34375 42.171875 27.074219 42.253906 26.785156 42.253906 C 26.550781 42.253906 26.339844 42.203125 26.148438 42.101563 C 25.953125 42.003906 25.808594 41.859375 25.707031 41.675781 C 25.605469 41.492188 25.554688 41.28125 25.554688 41.039063 Z M 26.066406 40.988281 C 26.066406 41.273438 26.136719 41.488281 26.273438 41.636719 C 26.410156 41.78125 26.582031 41.855469 26.792969 41.855469 C 26.90625 41.855469 27.015625 41.832031 27.121094 41.789063 C 27.230469 41.746094 27.332031 41.675781 27.425781 41.585938 C 27.519531 41.496094 27.597656 41.390625 27.664063 41.273438 C 27.730469 41.160156 27.785156 41.03125 27.824219 40.898438 C 27.882813 40.710938 27.910156 40.53125 27.910156 40.359375 C 27.910156 40.085938 27.84375 39.875 27.707031 39.722656 C 27.566406 39.574219 27.390625 39.5 27.183594 39.5 C 27.019531 39.5 26.875 39.535156 26.738281 39.613281 C 26.605469 39.691406 26.484375 39.800781 26.378906 39.949219 C 26.269531 40.097656 26.191406 40.269531 26.140625 40.464844 C 26.089844 40.660156 26.066406 40.835938 26.066406 40.988281 Z M 28.699219 42.1875 L 29.332031 39.167969 L 29.84375 39.167969 L 29.738281 39.664063 C 29.929688 39.453125 30.101563 39.304688 30.25 39.222656 C 30.402344 39.144531 30.566406 39.101563 30.742188 39.101563 C 30.929688 39.101563 31.085938 39.152344 31.214844 39.253906 C 31.339844 39.351563 31.421875 39.488281 31.460938 39.667969 C 31.617188 39.480469 31.777344 39.335938 31.949219 39.242188 C 32.117188 39.148438 32.296875 39.101563 32.484375 39.101563 C 32.738281 39.101563 32.925781 39.160156 33.050781 39.28125 C 33.179688 39.402344 33.242188 39.566406 33.242188 39.78125 C 33.242188 39.875 33.21875 40.027344 33.175781 40.242188 L 32.761719 42.1875 L 32.25 42.1875 L 32.667969 40.195313 C 32.703125 40.03125 32.722656 39.914063 32.722656 39.84375 C 32.722656 39.746094 32.691406 39.667969 32.628906 39.613281 C 32.566406 39.554688 32.476563 39.527344 32.363281 39.527344 C 32.207031 39.527344 32.050781 39.574219 31.890625 39.664063 C 31.730469 39.757813 31.609375 39.878906 31.519531 40.03125 C 31.429688 40.179688 31.351563 40.410156 31.285156 40.722656 L 30.980469 42.1875 L 30.46875 42.1875 L 30.894531 40.152344 C 30.925781 40.015625 30.941406 39.914063 30.941406 39.855469 C 30.941406 39.757813 30.910156 39.679688 30.847656 39.617188 C 30.785156 39.558594 30.707031 39.527344 30.609375 39.527344 C 30.460938 39.527344 30.308594 39.574219 30.148438 39.664063 C 29.988281 39.757813 29.855469 39.886719 29.757813 40.054688 C 29.65625 40.21875 29.574219 40.453125 29.507813 40.761719 L 29.210938 42.1875 Z M 35.773438 41.164063 L 36.273438 41.210938 C 36.203125 41.457031 36.035156 41.691406 35.777344 41.917969 C 35.519531 42.140625 35.207031 42.253906 34.847656 42.253906 C 34.625 42.253906 34.417969 42.199219 34.234375 42.097656 C 34.046875 41.992188 33.902344 41.84375 33.804688 41.648438 C 33.707031 41.449219 33.660156 41.226563 33.660156 40.976563 C 33.660156 40.644531 33.734375 40.328125 33.886719 40.015625 C 34.042969 39.707031 34.238281 39.476563 34.480469 39.328125 C 34.726563 39.175781 34.988281 39.101563 35.273438 39.101563 C 35.632813 39.101563 35.921875 39.214844 36.136719 39.4375 C 36.351563 39.660156 36.460938 39.964844 36.460938 40.347656 C 36.460938 40.496094 36.445313 40.648438 36.417969 40.800781 L 34.1875 40.800781 C 34.179688 40.859375 34.175781 40.914063 34.175781 40.960938 C 34.175781 41.246094 34.242188 41.460938 34.371094 41.609375 C 34.503906 41.757813 34.664063 41.832031 34.851563 41.832031 C 35.027344 41.832031 35.203125 41.777344 35.375 41.660156 C 35.546875 41.546875 35.679688 41.378906 35.773438 41.164063 Z M 34.269531 40.40625 L 35.972656 40.40625 C 35.976563 40.355469 35.976563 40.316406 35.976563 40.292969 C 35.976563 40.035156 35.910156 39.839844 35.78125 39.703125 C 35.652344 39.566406 35.484375 39.5 35.28125 39.5 C 35.0625 39.5 34.859375 39.574219 34.679688 39.722656 C 34.496094 39.875 34.363281 40.101563 34.269531 40.40625 Z M 38.472656 42.1875 L 39.347656 38.019531 L 42.058594 38.019531 L 41.960938 38.492188 L 39.800781 38.492188 L 39.523438 39.824219 L 41.71875 39.824219 L 41.617188 40.296875 L 39.421875 40.296875 L 39.027344 42.1875 Z M 41.929688 42.1875 L 42.796875 38.019531 L 43.308594 38.019531 L 42.441406 42.1875 Z M 43.0625 43.351563 L 43.089844 42.863281 C 43.199219 42.894531 43.300781 42.910156 43.402344 42.910156 C 43.507813 42.910156 43.589844 42.886719 43.65625 42.839844 C 43.738281 42.777344 43.832031 42.660156 43.929688 42.488281 L 44.09375 42.195313 L 43.589844 39.167969 L 44.097656 39.167969 L 44.324219 40.683594 C 44.371094 40.984375 44.410156 41.285156 44.441406 41.585938 L 45.792969 39.167969 L 46.324219 39.167969 L 44.402344 42.585938 C 44.214844 42.917969 44.050781 43.140625 43.90625 43.246094 C 43.765625 43.355469 43.597656 43.410156 43.410156 43.410156 C 43.292969 43.410156 43.175781 43.390625 43.0625 43.351563 Z M 48.574219 42.1875 L 48.316406 38.019531 L 48.882813 38.019531 L 48.976563 40.082031 C 48.980469 40.179688 48.988281 40.449219 49 40.882813 C 49.007813 41.003906 49.011719 41.089844 49.011719 41.140625 C 49.007813 41.171875 49.011719 41.265625 49.011719 41.425781 C 49.242188 40.949219 49.410156 40.613281 49.511719 40.417969 L 50.777344 38.019531 L 51.351563 38.019531 L 51.488281 40.457031 C 51.5 40.734375 51.511719 41.074219 51.523438 41.464844 C 51.554688 41.367188 51.617188 41.222656 51.707031 41.03125 C 51.84375 40.722656 51.945313 40.5 52.015625 40.367188 L 53.195313 38.019531 L 53.765625 38.019531 L 51.644531 42.1875 L 51.046875 42.1875 L 50.914063 39.664063 C 50.898438 39.449219 50.886719 39.179688 50.875 38.863281 C 50.761719 39.128906 50.664063 39.332031 50.585938 39.480469 L 49.148438 42.1875 Z M 53.96875 38.601563 L 54.09375 38.019531 L 54.605469 38.019531 L 54.480469 38.601563 Z M 53.21875 42.1875 L 53.851563 39.167969 L 54.363281 39.167969 L 53.730469 42.1875 Z M 55.722656 41.769531 L 55.636719 42.191406 C 55.515625 42.222656 55.394531 42.238281 55.277344 42.238281 C 55.074219 42.238281 54.910156 42.191406 54.789063 42.089844 C 54.699219 42.011719 54.65625 41.910156 54.65625 41.777344 C 54.65625 41.710938 54.679688 41.558594 54.726563 41.320313 L 55.09375 39.5625 L 54.6875 39.5625 L 54.769531 39.167969 L 55.175781 39.167969 L 55.332031 38.425781 L 55.921875 38.074219 L 55.6875 39.167969 L 56.195313 39.167969 L 56.109375 39.5625 L 55.609375 39.5625 L 55.257813 41.234375 C 55.214844 41.445313 55.195313 41.574219 55.195313 41.617188 C 55.195313 41.675781 55.210938 41.722656 55.246094 41.753906 C 55.28125 41.785156 55.339844 41.804688 55.417969 41.804688 C 55.53125 41.804688 55.632813 41.792969 55.722656 41.769531 Z M 56.140625 42.1875 L 57.015625 38.019531 L 57.527344 38.019531 L 57.191406 39.621094 C 57.378906 39.4375 57.554688 39.304688 57.71875 39.222656 C 57.878906 39.140625 58.046875 39.101563 58.21875 39.101563 C 58.464844 39.101563 58.65625 39.167969 58.792969 39.300781 C 58.929688 39.429688 58.996094 39.605469 58.996094 39.820313 C 58.996094 39.925781 58.964844 40.121094 58.898438 40.40625 L 58.503906 42.1875 L 57.992188 42.1875 L 58.398438 40.363281 C 58.453125 40.097656 58.484375 39.929688 58.484375 39.863281 C 58.484375 39.765625 58.449219 39.683594 58.382813 39.621094 C 58.316406 39.558594 58.21875 39.527344 58.09375 39.527344 C 57.910156 39.527344 57.738281 39.574219 57.570313 39.671875 C 57.40625 39.769531 57.277344 39.902344 57.183594 40.074219 C 57.089844 40.242188 57.003906 40.515625 56.925781 40.894531 L 56.652344 42.1875 Z M 61.960938 38.019531 L 62.515625 38.019531 L 61.980469 40.582031 C 61.9375 40.796875 61.914063 40.953125 61.914063 41.054688 C 61.914063 41.277344 62.003906 41.457031 62.179688 41.59375 C 62.355469 41.730469 62.574219 41.796875 62.84375 41.796875 C 63.054688 41.796875 63.253906 41.75 63.433594 41.652344 C 63.617188 41.554688 63.761719 41.410156 63.867188 41.222656 C 63.972656 41.03125 64.066406 40.730469 64.152344 40.316406 L 64.636719 38.019531 L 65.191406 38.019531 L 64.675781 40.464844 C 64.589844 40.878906 64.472656 41.210938 64.332031 41.453125 C 64.191406 41.695313 63.996094 41.890625 63.746094 42.039063 C 63.492188 42.183594 63.203125 42.257813 62.871094 42.257813 C 62.554688 42.257813 62.285156 42.207031 62.054688 42.101563 C 61.824219 41.996094 61.652344 41.855469 61.535156 41.671875 C 61.421875 41.488281 61.363281 41.28125 61.363281 41.046875 C 61.363281 40.902344 61.402344 40.652344 61.480469 40.296875 Z M 65.25 41.152344 L 65.765625 41.121094 C 65.765625 41.269531 65.789063 41.394531 65.835938 41.5 C 65.878906 41.605469 65.964844 41.691406 66.085938 41.757813 C 66.207031 41.824219 66.347656 41.855469 66.507813 41.855469 C 66.734375 41.855469 66.90625 41.8125 67.019531 41.71875 C 67.132813 41.628906 67.1875 41.523438 67.1875 41.398438 C 67.1875 41.308594 67.152344 41.226563 67.085938 41.144531 C 67.015625 41.066406 66.847656 40.96875 66.578125 40.851563 C 66.308594 40.734375 66.136719 40.65625 66.058594 40.605469 C 65.933594 40.53125 65.835938 40.4375 65.769531 40.332031 C 65.707031 40.226563 65.671875 40.109375 65.671875 39.96875 C 65.671875 39.734375 65.769531 39.527344 65.957031 39.359375 C 66.148438 39.1875 66.410156 39.101563 66.75 39.101563 C 67.128906 39.101563 67.417969 39.191406 67.613281 39.363281 C 67.8125 39.539063 67.914063 39.769531 67.921875 40.058594 L 67.421875 40.09375 C 67.414063 39.910156 67.347656 39.765625 67.226563 39.65625 C 67.109375 39.550781 66.9375 39.5 66.71875 39.5 C 66.539063 39.5 66.402344 39.539063 66.304688 39.621094 C 66.207031 39.703125 66.15625 39.792969 66.15625 39.886719 C 66.15625 39.980469 66.199219 40.066406 66.285156 40.136719 C 66.339844 40.1875 66.484375 40.261719 66.722656 40.363281 C 67.113281 40.535156 67.359375 40.667969 67.460938 40.765625 C 67.625 40.921875 67.707031 41.113281 67.707031 41.339844 C 67.707031 41.488281 67.660156 41.636719 67.566406 41.777344 C 67.476563 41.921875 67.335938 42.035156 67.148438 42.121094 C 66.960938 42.210938 66.738281 42.253906 66.484375 42.253906 C 66.136719 42.253906 65.839844 42.164063 65.597656 41.992188 C 65.351563 41.820313 65.238281 41.539063 65.25 41.152344 "/>
<path style=" stroke:none;fill-rule:evenodd;fill:rgb(72.499084%,61.599731%,7.499695%);fill-opacity:1;" d="M 17.6875 14.828125 C 18.011719 14.847656 18.210938 14.488281 18.382813 14.3125 C 18.609375 14.082031 18.796875 13.925781 19.023438 13.703125 C 19.304688 13.417969 19.414063 13.3125 19.789063 13.621094 C 20.375 14.109375 21.144531 15.53125 21.039063 16.136719 C 20.84375 17.253906 18.226563 18.074219 18.917969 18.832031 C 19.21875 19.15625 23.308594 20.042969 24.003906 21.417969 C 24.34375 22.09375 24.058594 22.90625 23.675781 23.292969 C 23.253906 23.710938 22.695313 23.984375 22.023438 24.195313 C 19.738281 24.898438 13.003906 25.0625 10.675781 23.917969 C 9.996094 23.585938 9.507813 23.21875 9.777344 22.535156 C 10.5 22.464844 15.113281 22.519531 16.242188 22.519531 C 19.175781 22.519531 18.457031 22.660156 20.34375 20.914063 C 20.570313 20.703125 20.601563 20.695313 20.53125 20.375 C 20.140625 20.355469 20.015625 20.636719 19.398438 20.625 C 16.214844 20.570313 12.71875 20.613281 9.523438 20.613281 C 8.707031 20.613281 7.46875 20.800781 7.265625 20.066406 C 6.929688 18.859375 8.582031 19.136719 9.167969 19.136719 C 10.101563 19.136719 10.957031 19.261719 11.570313 18.738281 C 11.84375 18.503906 12.0625 18.242188 12.285156 18.027344 C 12.484375 17.839844 12.96875 17.558594 12.695313 17.210938 L 12.597656 17.175781 C 12.59375 17.175781 12.511719 17.109375 12.324219 17.226563 C 11.914063 17.492188 12.234375 17.582031 11.246094 17.574219 C 10.136719 17.566406 8.875 17.414063 8.070313 18.273438 L 6.542969 19.660156 C 6.367188 19.84375 6.199219 19.9375 6.046875 20.113281 C 5.160156 21.140625 6.550781 22.019531 7.285156 22.261719 C 7.957031 22.484375 9.011719 22.34375 9.007813 22.582031 L 8.734375 23.453125 C 8.425781 24.785156 8.75 25.410156 9.859375 26.105469 C 11.109375 26.886719 12.496094 26.949219 14.148438 27.117188 C 14.089844 27.484375 12.78125 29.679688 15.585938 30.730469 C 17.121094 31.300781 19.097656 31.226563 20.710938 30.847656 C 22.210938 30.496094 23.574219 29.851563 24.863281 29.238281 C 26.382813 28.519531 27.125 27.929688 28.15625 26.703125 C 29.847656 24.683594 30.351563 22.832031 28.359375 20.75 C 27.296875 19.640625 26.996094 19.925781 27.542969 19.128906 C 27.867188 18.65625 28.585938 17.742188 28.714844 17.382813 C 29.128906 16.199219 28.140625 15.128906 27.4375 14.472656 C 26.960938 14.03125 26.746094 14.433594 26.464844 14.664063 C 26.199219 14.882813 25.957031 15.105469 25.699219 15.324219 C 25.167969 15.773438 25.066406 15.84375 25.152344 16.167969 C 25.851563 16.40625 25.820313 15.527344 26.867188 17.304688 C 27.699219 18.707031 26.789063 19.132813 26.015625 19.984375 C 25.828125 20.191406 24.953125 20.84375 25.621094 21.289063 C 26.582031 21.9375 27.511719 22.066406 28.253906 22.878906 C 29.160156 23.875 28.542969 25.214844 27.867188 25.875 C 25.585938 28.097656 21.113281 28.585938 17.785156 28.460938 C 16.511719 28.410156 15.328125 28.074219 14.941406 27.097656 C 15.109375 26.992188 15.972656 26.976563 16.257813 26.949219 C 17.5 26.816406 18.8125 26.570313 19.964844 26.183594 C 21.542969 25.660156 22.929688 24.917969 23.796875 24.007813 C 24.554688 23.21875 25.753906 21.140625 24.71875 19.753906 C 23.703125 18.398438 21.367188 17.925781 20.953125 17.53125 C 20.964844 16.757813 23.070313 16.460938 22.167969 13.800781 C 21.949219 13.152344 21.554688 12.492188 21.113281 12.175781 C 20.28125 11.578125 20.183594 12.050781 19.539063 12.671875 C 19.355469 12.851563 19.0625 13.171875 18.738281 13.179688 C 18.339844 13.1875 18.023438 12.914063 17.976563 12.578125 C 17.910156 12.097656 18.132813 11.890625 18.257813 11.5625 C 18.636719 10.566406 16.738281 11.691406 16.71875 13.121094 C 16.699219 14.128906 17.304688 14.128906 17.464844 14.339844 C 17.601563 14.519531 17.453125 14.5625 17.6875 14.828125 "/>
<path style=" stroke:none;fill-rule:evenodd;fill:rgb(0%,32.499695%,19.599915%);fill-opacity:1;" d="M 57.804688 20.199219 C 57.796875 19.84375 58.679688 17.738281 58.867188 17.269531 C 59.050781 16.820313 59.832031 14.667969 60.011719 14.445313 C 60.140625 14.503906 60.148438 14.527344 60.242188 14.734375 L 62.492188 20.199219 C 62.070313 20.464844 58.257813 20.449219 57.804688 20.199219 Z M 58.285156 11.160156 C 58.515625 11.621094 59.289063 11.300781 58.609375 13.089844 C 58.109375 14.414063 53.65625 25.820313 53.445313 26.121094 C 53.214844 26.449219 53.015625 26.449219 52.71875 26.75 L 55.648438 26.722656 C 55.660156 26.664063 55.667969 26.714844 55.640625 26.589844 C 55.59375 26.402344 55.351563 26.253906 55.570313 25.6875 L 56.648438 22.960938 C 57.167969 21.632813 56.964844 21.734375 57.878906 21.636719 C 59.460938 21.46875 61.085938 21.457031 62.667969 21.65625 C 63.199219 21.71875 63.179688 21.800781 63.363281 22.257813 L 64.503906 24.921875 C 65.027344 26.144531 65.070313 25.929688 64.726563 26.734375 C 65.566406 26.8125 67.925781 26.804688 68.710938 26.699219 C 68.636719 26.355469 68.324219 26.257813 68.089844 25.859375 C 67.785156 25.339844 65.464844 19.730469 65.148438 18.988281 C 64.21875 16.804688 62.75 13.007813 61.804688 11.097656 C 61.378906 11.058594 58.464844 11.050781 58.285156 11.160156 Z M 46.871094 11.09375 C 47.285156 11.652344 47.582031 11.558594 47.582031 12.585938 L 47.582031 24.777344 C 47.582031 25.230469 47.613281 25.722656 47.390625 26.074219 C 47.226563 26.324219 46.941406 26.449219 46.882813 26.65625 C 48.296875 26.660156 50.117188 26.707031 51.453125 26.621094 C 51.246094 26.300781 50.636719 26.230469 50.636719 24.839844 L 50.636719 12.527344 C 50.636719 11.691406 50.871094 11.550781 51.199219 11.097656 Z M 37.257813 12.714844 C 37.914063 12.257813 40.238281 12.417969 41.054688 13.644531 C 41.851563 14.839844 41.574219 16.53125 40.792969 17.515625 C 40.109375 18.378906 38.90625 18.433594 37.828125 18.40625 C 37.324219 18.390625 37.246094 18.257813 37.253906 17.765625 C 37.273438 16.085938 37.253906 14.394531 37.257813 12.714844 Z M 36.105469 11.121094 C 35.445313 11.121094 34.207031 11.089844 33.582031 11.148438 C 33.589844 11.164063 33.597656 11.1875 33.601563 11.199219 C 33.609375 11.210938 33.617188 11.234375 33.625 11.246094 C 33.632813 11.257813 33.640625 11.277344 33.648438 11.289063 C 33.65625 11.300781 33.664063 11.316406 33.675781 11.328125 C 33.84375 11.554688 34.183594 11.640625 34.183594 12.585938 L 34.183594 24.777344 C 34.179688 26.617188 33.929688 26.160156 33.449219 26.738281 C 34.820313 26.765625 36.722656 26.789063 38.046875 26.726563 C 37.152344 25.804688 37.257813 25.203125 37.257813 23.589844 C 37.257813 22.59375 37.140625 20.582031 37.277344 19.703125 C 37.714844 19.644531 38.296875 19.738281 38.78125 19.726563 C 40.050781 19.695313 41.457031 19.441406 42.539063 18.847656 C 43.992188 18.046875 44.945313 16.558594 44.785156 14.851563 C 44.375 10.535156 39.28125 11.121094 36.105469 11.121094 "/>
<path style=" stroke:none;fill-rule:evenodd;fill:rgb(72.499084%,61.599731%,7.499695%);fill-opacity:1;" d="M 24.546875 12.488281 C 24.507813 13.085938 23.097656 13.363281 23.15625 14.726563 C 23.167969 15.085938 23.203125 17.191406 23.125 17.507813 C 23.050781 17.800781 22.894531 17.976563 22.980469 18.277344 C 23.398438 18.378906 23.589844 18.019531 23.792969 17.816406 C 24.894531 16.722656 24.648438 16.4375 24.648438 14.726563 C 24.648438 14.125 24.507813 13.300781 24.851563 12.988281 L 26.230469 11.753906 C 26.410156 11.589844 26.394531 11.492188 26.316406 11.257813 C 26.140625 11.195313 24.519531 11.085938 24.21875 11.101563 C 23.414063 11.148438 23.09375 11.425781 22.667969 11.816406 C 22.558594 11.917969 22.132813 12.324219 22.09375 12.378906 C 21.804688 12.757813 22.179688 12.851563 22.558594 12.65625 C 22.996094 12.433594 24.023438 12.242188 24.546875 12.488281 "/>
<path style=" stroke:none;fill-rule:evenodd;fill:rgb(72.499084%,61.599731%,7.499695%);fill-opacity:1;" d="M 18.273438 18 C 18.273438 17.644531 18.238281 15.738281 18.304688 15.480469 C 18.386719 15.175781 18.550781 15.144531 18.488281 14.796875 C 18.113281 14.707031 18.175781 14.808594 17.613281 15.386719 C 17.417969 15.585938 17.03125 15.898438 16.902344 16.160156 C 16.574219 16.828125 16.902344 19.132813 16.738281 19.746094 C 16.710938 19.859375 16.554688 20.269531 16.558594 20.328125 C 16.609375 20.863281 17.210938 20.160156 17.347656 19.996094 C 18.414063 18.734375 18.273438 19.582031 18.273438 18 "/>
<path style=" stroke:none;fill-rule:evenodd;fill:rgb(72.499084%,61.599731%,7.499695%);fill-opacity:1;" d="M 30.871094 19.105469 C 30.429688 18.917969 30.242188 18.316406 29.800781 18.210938 C 29.570313 18.289063 29.457031 18.460938 29.261719 18.648438 C 29.105469 18.792969 28.929688 18.964844 28.902344 19.246094 C 29.003906 19.476563 29.546875 20.078125 29.800781 20.167969 C 30.214844 20.058594 30.464844 19.398438 30.820313 19.371094 C 31.273438 19.332031 31.433594 19.964844 31.824219 20.15625 C 32.238281 20.148438 32.40625 19.742188 32.625 19.515625 C 32.988281 19.148438 32.78125 19.042969 32.410156 18.605469 C 32.183594 18.335938 31.972656 17.988281 31.605469 18.375 C 31.378906 18.613281 31.167969 18.980469 30.871094 19.105469 "/>
<path style=" stroke:none;fill-rule:evenodd;fill:rgb(72.499084%,61.599731%,7.499695%);fill-opacity:1;" d="M 30.632813 20.140625 C 30.402344 20.3125 29.773438 20.851563 29.980469 21.207031 C 30.003906 21.25 30.339844 21.625 30.398438 21.6875 C 30.554688 21.847656 30.707031 22.105469 30.992188 21.933594 C 30.996094 21.929688 31.390625 21.539063 31.445313 21.484375 C 32.019531 20.882813 31.59375 20.789063 31.246094 20.363281 C 31.09375 20.171875 30.953125 19.90625 30.632813 20.140625 "/>
<path style=" stroke:none;fill-rule:nonzero;fill:rgb(13.699341%,12.199402%,12.5%);fill-opacity:1;" d="M 33.449219 31.40625 L 33.449219 28.734375 L 34.457031 28.734375 C 34.636719 28.734375 34.769531 28.742188 34.863281 28.761719 C 34.996094 28.78125 35.105469 28.824219 35.195313 28.886719 C 35.285156 28.945313 35.355469 29.03125 35.410156 29.140625 C 35.464844 29.253906 35.488281 29.375 35.488281 29.507813 C 35.488281 29.734375 35.417969 29.925781 35.273438 30.082031 C 35.128906 30.238281 34.867188 30.316406 34.488281 30.316406 L 33.800781 30.316406 L 33.800781 31.40625 Z M 33.800781 30.003906 L 34.492188 30.003906 C 34.722656 30.003906 34.882813 29.960938 34.980469 29.875 C 35.078125 29.789063 35.125 29.671875 35.125 29.515625 C 35.125 29.40625 35.097656 29.308594 35.039063 29.230469 C 34.984375 29.152344 34.910156 29.097656 34.816406 29.074219 C 34.757813 29.058594 34.648438 29.046875 34.488281 29.046875 L 33.800781 29.046875 Z M 37.160156 31.164063 C 37.039063 31.269531 36.921875 31.339844 36.808594 31.382813 C 36.699219 31.425781 36.578125 31.449219 36.445313 31.449219 C 36.234375 31.449219 36.070313 31.398438 35.957031 31.292969 C 35.84375 31.191406 35.785156 31.054688 35.785156 30.894531 C 35.785156 30.800781 35.808594 30.714844 35.847656 30.636719 C 35.894531 30.558594 35.949219 30.496094 36.019531 30.449219 C 36.089844 30.402344 36.167969 30.363281 36.257813 30.339844 C 36.320313 30.324219 36.417969 30.308594 36.546875 30.292969 C 36.8125 30.261719 37.007813 30.222656 37.132813 30.179688 C 37.136719 30.136719 37.136719 30.105469 37.136719 30.09375 C 37.136719 29.960938 37.105469 29.867188 37.042969 29.8125 C 36.957031 29.738281 36.832031 29.703125 36.667969 29.703125 C 36.511719 29.703125 36.398438 29.730469 36.324219 29.785156 C 36.25 29.835938 36.195313 29.933594 36.160156 30.070313 L 35.839844 30.027344 C 35.871094 29.890625 35.917969 29.777344 35.984375 29.695313 C 36.050781 29.609375 36.148438 29.542969 36.277344 29.496094 C 36.402344 29.453125 36.550781 29.429688 36.71875 29.429688 C 36.882813 29.429688 37.015625 29.449219 37.121094 29.488281 C 37.222656 29.527344 37.300781 29.574219 37.347656 29.632813 C 37.398438 29.695313 37.429688 29.769531 37.453125 29.859375 C 37.460938 29.914063 37.46875 30.015625 37.46875 30.160156 L 37.46875 30.59375 C 37.46875 30.898438 37.472656 31.09375 37.488281 31.171875 C 37.5 31.253906 37.527344 31.332031 37.570313 31.40625 L 37.226563 31.40625 C 37.191406 31.339844 37.171875 31.257813 37.160156 31.164063 Z M 37.136719 30.4375 C 37.015625 30.484375 36.835938 30.527344 36.597656 30.558594 C 36.464844 30.578125 36.367188 30.601563 36.308594 30.625 C 36.253906 30.648438 36.210938 30.683594 36.179688 30.730469 C 36.152344 30.777344 36.136719 30.828125 36.136719 30.886719 C 36.136719 30.972656 36.167969 31.046875 36.234375 31.105469 C 36.300781 31.160156 36.398438 31.191406 36.527344 31.191406 C 36.652344 31.191406 36.765625 31.164063 36.863281 31.109375 C 36.960938 31.054688 37.035156 30.976563 37.082031 30.882813 C 37.117188 30.808594 37.132813 30.699219 37.132813 30.554688 Z M 37.972656 31.40625 L 37.972656 28.734375 L 38.300781 28.734375 L 38.300781 30.257813 L 39.078125 29.46875 L 39.503906 29.46875 L 38.765625 30.191406 L 39.578125 31.40625 L 39.171875 31.40625 L 38.53125 30.417969 L 38.300781 30.640625 L 38.300781 31.40625 Z M 39.839844 29.109375 L 39.839844 28.734375 L 40.167969 28.734375 L 40.167969 29.109375 Z M 39.839844 31.40625 L 39.839844 29.46875 L 40.167969 29.46875 L 40.167969 31.40625 Z M 40.535156 30.828125 L 40.859375 30.777344 C 40.878906 30.90625 40.929688 31.007813 41.015625 31.074219 C 41.097656 31.144531 41.214844 31.179688 41.363281 31.179688 C 41.515625 31.179688 41.625 31.148438 41.699219 31.085938 C 41.773438 31.027344 41.808594 30.953125 41.808594 30.871094 C 41.808594 30.796875 41.777344 30.738281 41.710938 30.695313 C 41.664063 30.667969 41.554688 30.632813 41.375 30.585938 C 41.136719 30.527344 40.96875 30.472656 40.875 30.429688 C 40.78125 30.382813 40.710938 30.324219 40.664063 30.246094 C 40.617188 30.167969 40.59375 30.082031 40.59375 29.984375 C 40.59375 29.898438 40.613281 29.820313 40.652344 29.746094 C 40.691406 29.671875 40.746094 29.613281 40.8125 29.5625 C 40.863281 29.527344 40.933594 29.496094 41.023438 29.46875 C 41.109375 29.441406 41.203125 29.429688 41.304688 29.429688 C 41.457031 29.429688 41.589844 29.449219 41.703125 29.496094 C 41.820313 29.539063 41.902344 29.597656 41.957031 29.671875 C 42.011719 29.75 42.050781 29.847656 42.070313 29.972656 L 41.75 30.019531 C 41.734375 29.917969 41.691406 29.839844 41.625 29.78125 C 41.554688 29.726563 41.457031 29.699219 41.328125 29.699219 C 41.179688 29.699219 41.070313 29.722656 41.007813 29.773438 C 40.941406 29.824219 40.910156 29.882813 40.910156 29.949219 C 40.910156 29.988281 40.921875 30.027344 40.949219 30.0625 C 40.976563 30.097656 41.019531 30.125 41.074219 30.148438 C 41.109375 30.160156 41.203125 30.191406 41.363281 30.234375 C 41.59375 30.292969 41.757813 30.347656 41.851563 30.386719 C 41.941406 30.425781 42.015625 30.480469 42.066406 30.558594 C 42.117188 30.632813 42.144531 30.726563 42.144531 30.835938 C 42.144531 30.945313 42.113281 31.050781 42.050781 31.144531 C 41.984375 31.242188 41.894531 31.316406 41.773438 31.371094 C 41.652344 31.421875 41.515625 31.449219 41.363281 31.449219 C 41.113281 31.449219 40.921875 31.394531 40.789063 31.292969 C 40.65625 31.1875 40.574219 31.035156 40.535156 30.828125 Z M 43.246094 31.113281 L 43.289063 31.402344 C 43.199219 31.421875 43.117188 31.433594 43.042969 31.433594 C 42.925781 31.433594 42.832031 31.414063 42.765625 31.375 C 42.703125 31.339844 42.65625 31.289063 42.628906 31.226563 C 42.601563 31.167969 42.589844 31.035156 42.589844 30.839844 L 42.589844 29.722656 L 42.347656 29.722656 L 42.347656 29.46875 L 42.589844 29.46875 L 42.589844 28.992188 L 42.917969 28.792969 L 42.917969 29.46875 L 43.246094 29.46875 L 43.246094 29.722656 L 42.917969 29.722656 L 42.917969 30.859375 C 42.917969 30.953125 42.921875 31.011719 42.933594 31.039063 C 42.945313 31.066406 42.964844 31.085938 42.992188 31.105469 C 43.015625 31.121094 43.054688 31.128906 43.101563 31.128906 C 43.140625 31.128906 43.1875 31.121094 43.246094 31.113281 Z M 44.835938 31.164063 C 44.714844 31.269531 44.59375 31.339844 44.484375 31.382813 C 44.371094 31.425781 44.25 31.449219 44.121094 31.449219 C 43.90625 31.449219 43.742188 31.398438 43.628906 31.292969 C 43.515625 31.191406 43.457031 31.054688 43.457031 30.894531 C 43.457031 30.800781 43.480469 30.714844 43.523438 30.636719 C 43.566406 30.558594 43.621094 30.496094 43.691406 30.449219 C 43.761719 30.402344 43.839844 30.363281 43.929688 30.339844 C 43.992188 30.324219 44.089844 30.308594 44.222656 30.292969 C 44.484375 30.261719 44.683594 30.222656 44.808594 30.179688 C 44.808594 30.136719 44.808594 30.105469 44.808594 30.09375 C 44.808594 29.960938 44.777344 29.867188 44.714844 29.8125 C 44.632813 29.738281 44.507813 29.703125 44.339844 29.703125 C 44.1875 29.703125 44.074219 29.730469 44 29.785156 C 43.925781 29.835938 43.871094 29.933594 43.835938 30.070313 L 43.515625 30.027344 C 43.542969 29.890625 43.589844 29.777344 43.65625 29.695313 C 43.726563 29.609375 43.824219 29.542969 43.949219 29.496094 C 44.074219 29.453125 44.222656 29.429688 44.390625 29.429688 C 44.554688 29.429688 44.691406 29.449219 44.792969 29.488281 C 44.898438 29.527344 44.972656 29.574219 45.023438 29.632813 C 45.070313 29.695313 45.105469 29.769531 45.125 29.859375 C 45.136719 29.914063 45.140625 30.015625 45.140625 30.160156 L 45.140625 30.59375 C 45.140625 30.898438 45.148438 31.09375 45.160156 31.171875 C 45.175781 31.253906 45.203125 31.332031 45.242188 31.40625 L 44.898438 31.40625 C 44.867188 31.339844 44.84375 31.257813 44.835938 31.164063 Z M 44.808594 30.4375 C 44.691406 30.484375 44.511719 30.527344 44.273438 30.558594 C 44.136719 30.578125 44.039063 30.601563 43.984375 30.625 C 43.929688 30.648438 43.886719 30.683594 43.855469 30.730469 C 43.824219 30.777344 43.808594 30.828125 43.808594 30.886719 C 43.808594 30.972656 43.84375 31.046875 43.910156 31.105469 C 43.976563 31.160156 44.074219 31.191406 44.199219 31.191406 C 44.324219 31.191406 44.4375 31.164063 44.535156 31.109375 C 44.636719 31.054688 44.707031 30.976563 44.753906 30.882813 C 44.789063 30.808594 44.808594 30.699219 44.808594 30.554688 Z M 45.644531 31.40625 L 45.644531 29.46875 L 45.941406 29.46875 L 45.941406 29.746094 C 46.082031 29.535156 46.289063 29.429688 46.554688 29.429688 C 46.671875 29.429688 46.78125 29.449219 46.878906 29.492188 C 46.976563 29.535156 47.046875 29.589844 47.097656 29.65625 C 47.144531 29.722656 47.179688 29.804688 47.199219 29.898438 C 47.210938 29.960938 47.21875 30.066406 47.21875 30.21875 L 47.21875 31.40625 L 46.886719 31.40625 L 46.886719 30.230469 C 46.886719 30.097656 46.875 29.996094 46.851563 29.929688 C 46.824219 29.863281 46.78125 29.8125 46.714844 29.773438 C 46.648438 29.734375 46.574219 29.714844 46.488281 29.714844 C 46.347656 29.714844 46.226563 29.757813 46.125 29.847656 C 46.023438 29.933594 45.972656 30.101563 45.972656 30.351563 L 45.972656 31.40625 Z M 48.859375 31.40625 L 48.859375 28.734375 L 49.214844 28.734375 L 49.214844 31.40625 Z M 49.796875 31.40625 L 49.796875 29.46875 L 50.089844 29.46875 L 50.089844 29.746094 C 50.230469 29.535156 50.4375 29.429688 50.703125 29.429688 C 50.820313 29.429688 50.929688 29.449219 51.027344 29.492188 C 51.125 29.535156 51.199219 29.589844 51.246094 29.65625 C 51.292969 29.722656 51.328125 29.804688 51.347656 29.898438 C 51.359375 29.960938 51.367188 30.066406 51.367188 30.21875 L 51.367188 31.40625 L 51.039063 31.40625 L 51.039063 30.230469 C 51.039063 30.097656 51.027344 29.996094 51 29.929688 C 50.972656 29.863281 50.929688 29.8125 50.863281 29.773438 C 50.800781 29.734375 50.722656 29.714844 50.636719 29.714844 C 50.496094 29.714844 50.378906 29.757813 50.273438 29.847656 C 50.171875 29.933594 50.121094 30.101563 50.121094 30.351563 L 50.121094 31.40625 Z M 52.582031 31.113281 L 52.628906 31.402344 C 52.535156 31.421875 52.453125 31.433594 52.382813 31.433594 C 52.261719 31.433594 52.171875 31.414063 52.105469 31.375 C 52.039063 31.339844 51.992188 31.289063 51.964844 31.226563 C 51.941406 31.167969 51.925781 31.035156 51.925781 30.839844 L 51.925781 29.722656 L 51.683594 29.722656 L 51.683594 29.46875 L 51.925781 29.46875 L 51.925781 28.992188 L 52.253906 28.792969 L 52.253906 29.46875 L 52.582031 29.46875 L 52.582031 29.722656 L 52.253906 29.722656 L 52.253906 30.859375 C 52.253906 30.953125 52.261719 31.011719 52.273438 31.039063 C 52.285156 31.066406 52.300781 31.085938 52.328125 31.105469 C 52.355469 31.121094 52.390625 31.128906 52.441406 31.128906 C 52.476563 31.128906 52.523438 31.121094 52.582031 31.113281 Z M 54.226563 30.78125 L 54.566406 30.824219 C 54.515625 31.023438 54.414063 31.175781 54.273438 31.285156 C 54.128906 31.394531 53.945313 31.449219 53.71875 31.449219 C 53.4375 31.449219 53.210938 31.359375 53.046875 31.1875 C 52.882813 31.015625 52.796875 30.769531 52.796875 30.453125 C 52.796875 30.128906 52.882813 29.878906 53.050781 29.699219 C 53.21875 29.519531 53.433594 29.429688 53.699219 29.429688 C 53.960938 29.429688 54.167969 29.515625 54.332031 29.695313 C 54.496094 29.867188 54.578125 30.117188 54.578125 30.433594 C 54.578125 30.453125 54.578125 30.484375 54.578125 30.523438 L 53.136719 30.523438 C 53.148438 30.734375 53.207031 30.898438 53.316406 31.011719 C 53.421875 31.121094 53.558594 31.179688 53.71875 31.179688 C 53.839844 31.179688 53.941406 31.148438 54.027344 31.085938 C 54.109375 31.019531 54.179688 30.917969 54.226563 30.78125 Z M 53.152344 30.253906 L 54.230469 30.253906 C 54.21875 30.089844 54.175781 29.96875 54.109375 29.886719 C 54.003906 29.761719 53.867188 29.699219 53.703125 29.699219 C 53.550781 29.699219 53.425781 29.75 53.324219 29.847656 C 53.222656 29.949219 53.164063 30.085938 53.152344 30.253906 Z M 54.980469 31.40625 L 54.980469 29.46875 L 55.273438 29.46875 L 55.273438 29.765625 C 55.347656 29.628906 55.417969 29.539063 55.484375 29.496094 C 55.546875 29.449219 55.617188 29.429688 55.695313 29.429688 C 55.804688 29.429688 55.917969 29.464844 56.03125 29.53125 L 55.914063 29.835938 C 55.835938 29.789063 55.753906 29.769531 55.675781 29.769531 C 55.605469 29.769531 55.539063 29.789063 55.484375 29.832031 C 55.425781 29.875 55.386719 29.9375 55.363281 30.011719 C 55.324219 30.128906 55.308594 30.257813 55.308594 30.394531 L 55.308594 31.40625 Z M 56.226563 31.40625 L 56.226563 29.46875 L 56.519531 29.46875 L 56.519531 29.746094 C 56.664063 29.535156 56.867188 29.429688 57.136719 29.429688 C 57.253906 29.429688 57.359375 29.449219 57.457031 29.492188 C 57.554688 29.535156 57.628906 29.589844 57.675781 29.65625 C 57.726563 29.722656 57.757813 29.804688 57.78125 29.898438 C 57.789063 29.960938 57.796875 30.066406 57.796875 30.21875 L 57.796875 31.40625 L 57.46875 31.40625 L 57.46875 30.230469 C 57.46875 30.097656 57.457031 29.996094 57.429688 29.929688 C 57.40625 29.863281 57.359375 29.8125 57.292969 29.773438 C 57.230469 29.734375 57.152344 29.714844 57.066406 29.714844 C 56.925781 29.714844 56.808594 29.757813 56.707031 29.847656 C 56.605469 29.933594 56.554688 30.101563 56.554688 30.351563 L 56.554688 31.40625 Z M 59.566406 31.164063 C 59.445313 31.269531 59.328125 31.339844 59.214844 31.382813 C 59.101563 31.425781 58.980469 31.449219 58.851563 31.449219 C 58.640625 31.449219 58.476563 31.398438 58.359375 31.292969 C 58.246094 31.191406 58.191406 31.054688 58.191406 30.894531 C 58.191406 30.800781 58.210938 30.714844 58.253906 30.636719 C 58.296875 30.558594 58.355469 30.496094 58.425781 30.449219 C 58.492188 30.402344 58.574219 30.363281 58.660156 30.339844 C 58.726563 30.324219 58.824219 30.308594 58.953125 30.292969 C 59.21875 30.261719 59.414063 30.222656 59.539063 30.179688 C 59.539063 30.136719 59.539063 30.105469 59.539063 30.09375 C 59.539063 29.960938 59.507813 29.867188 59.449219 29.8125 C 59.363281 29.738281 59.238281 29.703125 59.074219 29.703125 C 58.917969 29.703125 58.804688 29.730469 58.730469 29.785156 C 58.65625 29.835938 58.601563 29.933594 58.566406 30.070313 L 58.246094 30.027344 C 58.273438 29.890625 58.324219 29.777344 58.390625 29.695313 C 58.457031 29.609375 58.554688 29.542969 58.679688 29.496094 C 58.804688 29.453125 58.953125 29.429688 59.121094 29.429688 C 59.285156 29.429688 59.421875 29.449219 59.527344 29.488281 C 59.628906 29.527344 59.707031 29.574219 59.753906 29.632813 C 59.800781 29.695313 59.835938 29.769531 59.855469 29.859375 C 59.867188 29.914063 59.871094 30.015625 59.871094 30.160156 L 59.871094 30.59375 C 59.871094 30.898438 59.878906 31.09375 59.894531 31.171875 C 59.90625 31.253906 59.933594 31.332031 59.972656 31.40625 L 59.628906 31.40625 C 59.597656 31.339844 59.574219 31.257813 59.566406 31.164063 Z M 59.539063 30.4375 C 59.421875 30.484375 59.242188 30.527344 59.003906 30.558594 C 58.867188 30.578125 58.773438 30.601563 58.714844 30.625 C 58.660156 30.648438 58.617188 30.683594 58.585938 30.730469 C 58.554688 30.777344 58.539063 30.828125 58.539063 30.886719 C 58.539063 30.972656 58.574219 31.046875 58.640625 31.105469 C 58.707031 31.160156 58.804688 31.191406 58.929688 31.191406 C 59.054688 31.191406 59.167969 31.164063 59.269531 31.109375 C 59.367188 31.054688 59.441406 30.976563 59.484375 30.882813 C 59.519531 30.808594 59.539063 30.699219 59.539063 30.554688 Z M 61.089844 31.113281 L 61.132813 31.402344 C 61.042969 31.421875 60.960938 31.433594 60.886719 31.433594 C 60.769531 31.433594 60.675781 31.414063 60.609375 31.375 C 60.546875 31.339844 60.5 31.289063 60.472656 31.226563 C 60.445313 31.167969 60.433594 31.035156 60.433594 30.839844 L 60.433594 29.722656 L 60.191406 29.722656 L 60.191406 29.46875 L 60.433594 29.46875 L 60.433594 28.992188 L 60.761719 28.792969 L 60.761719 29.46875 L 61.089844 29.46875 L 61.089844 29.722656 L 60.761719 29.722656 L 60.761719 30.859375 C 60.761719 30.953125 60.765625 31.011719 60.777344 31.039063 C 60.789063 31.066406 60.808594 31.085938 60.835938 31.105469 C 60.859375 31.121094 60.898438 31.128906 60.945313 31.128906 C 60.980469 31.128906 61.03125 31.121094 61.089844 31.113281 Z M 61.414063 29.109375 L 61.414063 28.734375 L 61.742188 28.734375 L 61.742188 29.109375 Z M 61.414063 31.40625 L 61.414063 29.46875 L 61.742188 29.46875 L 61.742188 31.40625 Z M 62.121094 30.4375 C 62.121094 30.082031 62.21875 29.816406 62.417969 29.644531 C 62.585938 29.5 62.789063 29.429688 63.027344 29.429688 C 63.292969 29.429688 63.511719 29.515625 63.679688 29.691406 C 63.847656 29.863281 63.933594 30.105469 63.933594 30.410156 C 63.933594 30.660156 63.894531 30.855469 63.820313 30.996094 C 63.746094 31.140625 63.636719 31.25 63.496094 31.332031 C 63.351563 31.410156 63.195313 31.449219 63.027344 31.449219 C 62.757813 31.449219 62.539063 31.363281 62.371094 31.1875 C 62.203125 31.015625 62.121094 30.765625 62.121094 30.4375 Z M 62.457031 30.441406 C 62.457031 30.6875 62.511719 30.871094 62.617188 30.996094 C 62.726563 31.117188 62.863281 31.179688 63.027344 31.179688 C 63.191406 31.179688 63.328125 31.117188 63.433594 30.992188 C 63.542969 30.871094 63.597656 30.683594 63.597656 30.429688 C 63.597656 30.191406 63.542969 30.007813 63.433594 29.886719 C 63.324219 29.761719 63.1875 29.703125 63.027344 29.703125 C 62.863281 29.703125 62.726563 29.761719 62.617188 29.886719 C 62.511719 30.007813 62.457031 30.191406 62.457031 30.441406 Z M 64.320313 31.40625 L 64.320313 29.46875 L 64.613281 29.46875 L 64.613281 29.746094 C 64.753906 29.535156 64.960938 29.429688 65.226563 29.429688 C 65.34375 29.429688 65.453125 29.449219 65.550781 29.492188 C 65.648438 29.535156 65.71875 29.589844 65.769531 29.65625 C 65.816406 29.722656 65.851563 29.804688 65.871094 29.898438 C 65.882813 29.960938 65.890625 30.066406 65.890625 30.21875 L 65.890625 31.40625 L 65.5625 31.40625 L 65.5625 30.230469 C 65.5625 30.097656 65.546875 29.996094 65.523438 29.929688 C 65.496094 29.863281 65.453125 29.8125 65.386719 29.773438 C 65.324219 29.734375 65.246094 29.714844 65.160156 29.714844 C 65.019531 29.714844 64.898438 29.757813 64.796875 29.847656 C 64.699219 29.933594 64.648438 30.101563 64.648438 30.351563 L 64.648438 31.40625 Z M 67.660156 31.164063 C 67.535156 31.269531 67.417969 31.339844 67.304688 31.382813 C 67.195313 31.425781 67.074219 31.449219 66.945313 31.449219 C 66.730469 31.449219 66.566406 31.398438 66.453125 31.292969 C 66.339844 31.191406 66.28125 31.054688 66.28125 30.894531 C 66.28125 30.800781 66.304688 30.714844 66.347656 30.636719 C 66.390625 30.558594 66.445313 30.496094 66.515625 30.449219 C 66.585938 30.402344 66.664063 30.363281 66.753906 30.339844 C 66.816406 30.324219 66.914063 30.308594 67.042969 30.292969 C 67.308594 30.261719 67.507813 30.222656 67.632813 30.179688 C 67.632813 30.136719 67.632813 30.105469 67.632813 30.09375 C 67.632813 29.960938 67.601563 29.867188 67.539063 29.8125 C 67.457031 29.738281 67.332031 29.703125 67.164063 29.703125 C 67.011719 29.703125 66.894531 29.730469 66.824219 29.785156 C 66.75 29.835938 66.695313 29.933594 66.660156 30.070313 L 66.339844 30.027344 C 66.367188 29.890625 66.414063 29.777344 66.480469 29.695313 C 66.550781 29.609375 66.648438 29.542969 66.773438 29.496094 C 66.898438 29.453125 67.046875 29.429688 67.214844 29.429688 C 67.378906 29.429688 67.515625 29.449219 67.617188 29.488281 C 67.722656 29.527344 67.796875 29.574219 67.847656 29.632813 C 67.894531 29.695313 67.929688 29.769531 67.949219 29.859375 C 67.960938 29.914063 67.964844 30.015625 67.964844 30.160156 L 67.964844 30.59375 C 67.964844 30.898438 67.972656 31.09375 67.984375 31.171875 C 68 31.253906 68.027344 31.332031 68.066406 31.40625 L 67.722656 31.40625 C 67.691406 31.339844 67.667969 31.257813 67.660156 31.164063 Z M 67.632813 30.4375 C 67.511719 30.484375 67.335938 30.527344 67.09375 30.558594 C 66.960938 30.578125 66.863281 30.601563 66.808594 30.625 C 66.753906 30.648438 66.710938 30.683594 66.679688 30.730469 C 66.648438 30.777344 66.632813 30.828125 66.632813 30.886719 C 66.632813 30.972656 66.664063 31.046875 66.730469 31.105469 C 66.796875 31.160156 66.894531 31.191406 67.023438 31.191406 C 67.148438 31.191406 67.261719 31.164063 67.359375 31.109375 C 67.460938 31.054688 67.53125 30.976563 67.578125 30.882813 C 67.613281 30.808594 67.632813 30.699219 67.632813 30.554688 Z M 68.460938 31.40625 L 68.460938 28.734375 L 68.789063 28.734375 L 68.789063 31.40625 L 68.460938 31.40625 "/>
</g>
</svg>
