<?xml version="1.0" encoding="utf-8"?>
<!-- Generator: Adobe Illustrator 28.0.0, SVG Export Plug-In . SVG Version: 6.00 Build 0)  -->
<svg version="1.1" id="Слой_1" xmlns="http://www.w3.org/2000/svg" xmlns:xlink="http://www.w3.org/1999/xlink" x="0px" y="0px"
	 viewBox="0 0 1000 808.5665283" enable-background="new 0 0 1000 808.5665283" xml:space="preserve">
<g>
	<path fill="#323232" d="M293.7470703,807.3876953L293.7470703,807.3876953
		c-40.3162384,0-65.8698273-20.8700562-65.8698273-47.0667725c0-26.6347656,27.0843048-47.0654907,67.0090485-47.0654907
		c39.9659729,0,67.0499573,20.5646362,67.0499573,46.0172729c0,11.4390259-5.0826111,20.78302-14.8154297,28.6420898h23.7131348
		l-5.6551819,9.6487427c-3.5931396,6.1129761-8.0213623,9.8241577-17.4853821,9.8241577H293.7470703z M294.8862915,786.0374146
		L294.8862915,786.0374146c22.0013733,0,40.5385742-10.828186,40.5385742-25.7164917
		c0-14.8883667-18.5372009-25.7145386-40.5385742-25.7145386c-22.0013428,0-40.4917145,10.8261719-40.4917145,25.7145386
		C254.394577,775.2092285,272.8849487,786.0374146,294.8862915,786.0374146z"/>
	<path fill="#323232" d="M469.8285217,791.4511719L469.8285217,791.4511719h-63.4571533l-9.0260315,15.9365234h-26.2953491
		l43.9967957-75.8843384c3.4644775-6.0239258,8.4593506-10.611145,18.4085388-10.611145h9.8614807
		c9.9432373,0,14.8975525,4.5872192,18.4026184,10.611145l43.9971008,75.8843384h-26.8619995L469.8285217,791.4511719z
		 M417.1500549,772.4584961L417.1500549,772.4584961h41.8997498l-19.4603577-34.4938354
		c-0.4380188-0.8265381-0.7886353-1.0475464-1.489502-1.0475464c-0.7012024,0-1.0518188,0.2210083-1.5366516,1.0475464
		L417.1500549,772.4584961z"/>
	<path fill="#323232" d="M630.9655762,720.8922119L630.9655762,720.8922119v86.4954834h-23.5321045l-68.9777832-57.3276367
		v57.3276367h-23.4911499v-86.4954834h14.6811523c7.5365601,0,11.3513184,1.9677734,15.6453247,5.6347656l62.1424561,51.5635986
		v-57.1983643H630.9655762z"/>
	<polygon fill="#323232" points="714.5368042,740.3684082 714.5368042,740.3684082 714.5368042,807.3876953 
		691.0455933,807.3876953 691.0455933,740.3684082 642.8834839,740.3684082 642.8834839,720.8922119 762.6992798,720.8922119 
		762.6992798,740.3684082 	"/>
	<path fill="#323232" d="M840.9659424,791.4511719L840.9659424,791.4511719h-63.4568481l-9.026001,15.9365234H742.187439
		l43.9970703-75.8843384c3.4644775-6.0239258,8.4593506-10.611145,18.4085693-10.611145h9.8614502
		c9.9432983,0,14.8972778,4.5872192,18.4026489,10.611145l43.9967651,75.8843384h-26.8619995L840.9659424,791.4511719z
		 M788.2878418,772.4584961L788.2878418,772.4584961h41.8994141l-19.460083-34.4938354
		c-0.4379883-0.8265381-0.7885742-1.0475464-1.489502-1.0475464c-0.7011719,0-1.0518188,0.2210083-1.5366211,1.0475464
		L788.2878418,772.4584961z"/>
	<path fill="#323232" d="M884.9221191,801.144104L884.9221191,801.144104l-2.190979-0.6550293l5.9121094-18.8178711
		c16.8722534,5.4137573,34.9710693,7.5965576,51.2763672,7.5965576c26.7333374,0,33.3466797-3.0990601,33.3466797-6.4613037
		c0-1.3536377-0.9172363-2.4017944-3.0202026-3.1003418c-2.6759033-0.9169312-10.0834351-2.4011841-31.9505615-5.9810791
		c-24.1864624-3.9302368-35.0584717-5.8946533-43.0795288-9.605835
		c-7.9745483-3.6676636-12.8355103-9.5616455-12.8355103-18.2090454c0-6.5892334,3.2425537-11.8743896,8.4537964-16.0189819
		c9.2479858-7.1651001,25.1152344-10.0465088,42.3786621-10.0465088c22.2173462,0,40.8422852,1.8338623,61.5698853,6.8973389
		l1.8869019,0.6115112l-4.994873,18.3409424c-23.140564-4.9764404-36.0222168-6.3735352-53.5953369-6.5945435
		c-12.402771-0.1279907-20.9498901,0.8324585-25.4658813,2.1828003c-2.5413208,0.8324585-3.5931396,1.9671021-3.5931396,3.3641968
		c0,1.2632446,0.7889404,2.3984985,3.3302612,3.2303467c2.8098145,0.9142456,7.3201904,1.961792,31.0274048,5.7626953
		c25.7286987,4.1478882,34.1821289,5.8946533,41.2394409,8.6453857C994.2161865,765.996521,1000,772.7645874,1000,781.3222046
		c0,10.7404785-8.3251343,18.6866455-22.7902832,23.0528564c-8.9382935,2.6636963-20.8562012,4.1914673-34.2695923,4.1914673
		C921.8616333,808.5665283,899.3810425,805.7722168,884.9221191,801.144104z"/>
	<g>
		
			<linearGradient id="SVGID_1_" gradientUnits="userSpaceOnUse" x1="583.0687866" y1="188.4210663" x2="135.8154144" y2="841.8599854" gradientTransform="matrix(1 0 0 -1 0 839.8753662)">
			<stop  offset="0" style="stop-color:#BE0000"/>
			<stop  offset="0.3898" style="stop-color:#DE0000"/>
			<stop  offset="0.768" style="stop-color:#F60000"/>
			<stop  offset="1" style="stop-color:#FF0000"/>
		</linearGradient>
		<path fill="url(#SVGID_1_)" d="M249.280838,653.8313599h670.829895l-537.557251-539.6767578
			C310.9186096,42.5522156,213.7745209,0,112.4753418,0H0l8.3805494,21.9747276l37.240097,97.6785889L249.280838,653.8313599z"/>
		<path fill="#FFFFFF" d="M45.62043,119.6544113c73.4455338,125.3710861,266.1765137,138.6046143,287.1470642,333.5607605
			c0.8608704,8.0192566,7.011261,14.4464111,14.9890747,15.6985168
			c111.0663147,17.347229,219.2471008,63.0631104,313.2397156,138.3866577l0.0838623,0.0675659
			c0.6200562,0.4968872,1.2630615,0.7322998,2.09552,0.7322998c0.828186,0,1.6607666-0.3018799,2.3091431-0.9229736
			c1.3425293-1.2739258,1.3927002-3.392334,0.1177368-4.7337646
			c-65.0878296-68.3831177-144.6220703-123.0227356-233.8951111-158.9474792l-27.171051-10.9309998
			c-13.9767456-5.6229248-23.6708679-19.4819946-23.2578735-35.4212952
			c1.5266724-58.2509155,139.3216553-46.4024048,153.2929077-74.4016418l2.4050293-4.8176575
			c-28.374115-24.2386169-62.0856323-42.4685059-99.2199707-52.6628418
			c-0.3291321,1.4035645-1.2303162,8.1990356,6.3236084,20.4943542c8.2186584,13.3730164-8.9901733,34.6388855-34.037384,11.697052
			l-2.1075134-1.9288025C221.7458191,124.9744186,82.1449738,213.4160004,8.3804073,21.9752712L45.62043,119.6544113z"/>
		
			<linearGradient id="SVGID_00000106839232317294551960000015394405784905713566_" gradientUnits="userSpaceOnUse" x1="459.4231873" y1="483.3335266" x2="465.4503479" y2="552.2528687" gradientTransform="matrix(1 0 0 -1 0 839.8753662)">
			<stop  offset="0.65" style="stop-color:#FFFFFF;stop-opacity:0"/>
			<stop  offset="0.7285" style="stop-color:#E0E0E0;stop-opacity:0.2617"/>
			<stop  offset="0.8148" style="stop-color:#C5C5C5;stop-opacity:0.5493"/>
			<stop  offset="0.8914" style="stop-color:#B5B5B5;stop-opacity:0.8047"/>
			<stop  offset="0.95" style="stop-color:#AFAFAF"/>
		</linearGradient>
		<path fill="url(#SVGID_00000106839232317294551960000015394405784905713566_)" d="M493.3691406,314.7587585
			c0,0-30.5317383,1.5201721-49.2879639-29.0050354c5.5793762,9.0806274-0.5710144,21.806366-12.9317017,21.8456116v46.4699402
			c20.0758972-5.8288879,42.9763184-9.3999023,62.2196655-13.4460144V314.7587585z"/>
		
			<linearGradient id="SVGID_00000031901441922021522030000015899647592678995858_" gradientUnits="userSpaceOnUse" x1="370.8074036" y1="301.4658813" x2="660.9962769" y2="301.4658813" gradientTransform="matrix(1 0 0 -1 0 839.8753662)">
			<stop  offset="0" style="stop-color:#FFFFFF;stop-opacity:0"/>
			<stop  offset="0.0839" style="stop-color:#F1F1F1;stop-opacity:0.0932"/>
			<stop  offset="0.2921" style="stop-color:#D4D4D4;stop-opacity:0.3246"/>
			<stop  offset="0.4993" style="stop-color:#C0C0C0;stop-opacity:0.5548"/>
			<stop  offset="0.7032" style="stop-color:#B3B3B3;stop-opacity:0.7814"/>
			<stop  offset="0.9" style="stop-color:#AFAFAF"/>
		</linearGradient>
		<path fill="url(#SVGID_00000031901441922021522030000015899647592678995858_)" d="M370.8074036,472.9238586
			c102.943573,19.8056641,202.7160339,64.2640076,290.1888733,134.368866
			C465.9845581,440.7499084,377.1310425,470.8610229,370.8074036,472.9238586z"/>
		
			<linearGradient id="SVGID_00000047024885541310130910000009503077390425019577_" gradientUnits="userSpaceOnUse" x1="8.3804073" y1="602.3112183" x2="332.7620239" y2="602.3112183" gradientTransform="matrix(1 0 0 -1 0 839.8753662)">
			<stop  offset="0.25" style="stop-color:#FFFFFF;stop-opacity:0"/>
			<stop  offset="0.4615" style="stop-color:#EDEDED;stop-opacity:0.282"/>
			<stop  offset="0.886" style="stop-color:#BDBDBD;stop-opacity:0.848"/>
			<stop  offset="1" style="stop-color:#AFAFAF"/>
		</linearGradient>
		<path fill="url(#SVGID_00000047024885541310130910000009503077390425019577_)" d="M84.8340683,128.3721619
			C54.5321503,106.8338623,28.9041424,75.241066,8.3804073,21.9752712L45.62043,119.6544113
			c73.4400864,125.3601761,266.1372681,138.6046143,287.1416016,333.4986572
			C311.5615234,204.4062042,202.2572784,241.5830688,84.8340683,128.3721619z"/>
	</g>
</g>
</svg>
