<?xml version="1.0" encoding="UTF-8"?>
<!-- Generated by Pixelmator Pro 3.5.11 -->
<svg width="358" height="128" viewBox="0 0 358 128" xmlns="http://www.w3.org/2000/svg">
    <g id="Page-1">
        <g id="desktop-footer">
            <g id="Singapore-Airlines-Group">
                <g id="Group-4">
                    <g id="SIA-stk-linearFC-RGB">
                        <path id="Fill-1" fill="#ff9f00" fill-rule="evenodd" stroke="none" d="M 1.656273 121.770668 L 1.656273 127.251694 L 245.943832 127.251694 L 249.80545 121.770668 L 1.656273 121.770668"/>
                        <path id="Fill-2" fill="#ff9f00" fill-rule="evenodd" stroke="none" d="M 282.637421 116.404518 C 282.637421 116.404518 299.579254 91.132721 301.107483 88.641647 C 302.970917 85.582771 303.056366 80.722046 301.376984 78.116104 C 300.522461 76.750763 275.262543 36.854156 275.262543 36.854156 C 272.991608 32.541534 273.556885 29.600822 275.07193 27.493744 C 277.56308 23.824409 281.953827 17.319389 281.953827 17.319389 C 281.953827 17.319389 312.623322 65.368614 313.898468 67.505234 C 317.191528 72.986252 316.274597 78.362259 313.566528 82.95385 C 311.292267 86.839798 291.425507 116.404518 291.425507 116.404518 L 282.637421 116.404518"/>
                        <path id="Fill-3" fill="#ff9f00" fill-rule="evenodd" stroke="none" d="M 277.181854 119.135178 C 277.181854 119.135178 296.785767 90.469742 298.244965 88.096825 C 299.957214 85.198776 299.769867 81.112617 298.244965 78.644516 C 297.429901 77.341537 270.204651 34.546875 270.204651 34.546875 C 270.204651 34.546875 265.373535 41.826462 263.851898 44.074661 C 262.323669 46.313019 261.426453 49.099495 264.035919 53.582771 C 264.035919 53.582771 283.531342 84.315903 284.352966 85.618866 C 285.94693 88.123077 285.871338 92.731079 284.096619 95.62912 C 282.640717 97.972511 262.534027 127.251694 262.534027 127.251694 C 262.534027 127.251694 314.739807 127.251694 320.556885 127.251694 C 326.456116 127.251694 329.690002 124.967384 332.532837 120.871391 C 335.004242 117.39241 344.548187 103.538864 346.013977 101.36615 C 347.456757 99.193436 350.365265 97.739487 351.663422 97.739487 C 352.971466 97.739487 356.198792 97.739487 356.198792 97.739487 L 347.351593 84.302765 C 347.351593 84.302765 335.9935 84.302765 333.23941 84.302765 C 330.544495 84.302765 327.284302 86.692108 325.568787 89.225845 C 324.234467 91.221336 314.578766 105.662361 312.84024 107.986053 C 311.850983 109.295586 311.009644 109.587692 310.220886 109.590973 C 309.790344 109.594254 308.548065 109.587692 308.387024 109.587692 C 308.962158 108.429131 325.177704 84.873848 328.368866 79.684921 C 332.21405 73.304611 333.091553 64.869743 328.510162 56.77948 C 326.827515 53.842049 293.134491 0.748306 293.134491 0.748306 C 293.134491 0.748306 288.648438 7.200821 286.778412 9.964302 C 285.263336 12.219078 284.796661 15.166359 286.978882 19.478973 C 286.978882 19.478973 315.265656 64.406975 316.616394 66.468102 C 319.899597 71.591385 319.492065 78.431183 316.616394 83.101532 C 314.266571 86.938263 294.725128 116.404518 294.725128 116.404518 C 294.725128 116.404518 308.94574 116.404518 310.207733 116.404518 C 315.811218 116.404518 317.191528 114.326973 318.739441 112.603897 C 320.287415 110.877541 328.707367 98.123489 329.663727 96.777847 C 330.63324 95.451897 333.091553 91.687378 336.322113 91.687378 C 338.156006 91.687378 346.487244 91.687378 346.487244 91.687378 L 346.487244 91.979485 C 344.321442 92.416 342.188507 93.718979 340.637268 95.845749 C 339.092621 97.936417 328.868408 113.050262 327.642548 114.809433 C 326.094604 117.031387 324.323181 119.135178 319.876587 119.135178 C 317.237518 119.135178 277.181854 119.135178 277.181854 119.135178"/>
                        <path id="Fill-4" fill="#00266b" fill-rule="evenodd" stroke="none" d="M 147.033844 108.698257 L 152.518997 108.698257 L 152.518997 83.738251 L 147.033844 83.738251 Z"/>
                        <path id="Fill-5" fill="#00266b" fill-rule="evenodd" stroke="none" d="M 143.162369 108.698257 L 143.162369 104.132919 L 130.37796 104.132919 L 130.37796 83.738251 L 124.866524 83.738251 L 124.866524 108.698257 L 143.162369 108.698257"/>
                        <path id="Fill-6" fill="#00266b" fill-rule="evenodd" stroke="none" d="M 58.74577 101.454765 L 70.396355 101.461334 L 73.630241 108.698257 L 79.621506 108.698257 L 67.385933 83.738251 L 61.723324 83.738251 L 49.487747 108.698257 L 55.518444 108.698257 L 58.74577 101.454765 Z M 64.556267 88.044312 L 68.519768 97.063385 L 60.61578 97.079788 L 64.556267 88.044312 Z"/>
                        <path id="Fill-7" fill="#00266b" fill-rule="evenodd" stroke="none" d="M 101.828278 88.300308 L 110.442146 88.300308 C 112.456757 88.300308 113.735199 90.239998 113.735199 91.979485 C 113.735199 93.718979 112.456757 95.599594 110.442146 95.599594 L 103.701569 95.599594 L 114.619263 108.698257 L 121.119934 108.698257 L 113.376976 99.390358 L 113.386833 99.390358 C 116.71933 98.313843 118.855537 95.268097 118.855537 91.825226 C 118.855537 87.522461 115.529617 83.738251 110.678772 83.738251 L 96.428581 83.738251 L 96.428581 108.698257 L 101.828278 108.698257 L 101.828278 88.300308"/>
                        <path id="Fill-8" fill="#00266b" fill-rule="evenodd" stroke="none" d="M 83.305656 108.698257 L 88.790794 108.698257 L 88.790794 83.738251 L 83.305656 83.738251 Z"/>
                        <path id="Fill-9" fill="#00266b" fill-rule="evenodd" stroke="none" d="M 222.718262 98.579689 C 225.15683 98.579689 229.74147 98.579689 229.74147 98.579689 C 231.358414 98.579689 232.442978 99.508514 232.442978 101.297226 C 232.442978 103.085945 231.358414 104.018051 229.74147 104.018051 C 229.74147 104.018051 217.019501 104.018051 214.630234 104.018051 L 214.630234 108.704819 C 214.630234 108.704819 226.783646 108.704819 229.215652 108.704819 C 234.874969 108.704819 237.661911 104.973129 237.661911 101.188919 C 237.661911 97.401436 234.874969 93.705841 229.215652 93.705841 C 226.783646 93.705841 222.146408 93.718979 222.146408 93.718979 C 220.582047 93.718979 219.523804 92.813133 219.523804 91.0802 C 219.523804 89.334152 220.582047 88.431595 222.146408 88.431595 C 222.146408 88.431595 234.980133 88.431595 237.290527 88.431595 L 237.290527 83.744827 C 237.290527 83.744827 225.15683 83.744827 222.718262 83.744827 C 217.114807 83.744827 214.357452 87.046562 214.357452 91.178665 C 214.357452 95.31076 217.114807 98.579689 222.718262 98.579689"/>
                        <path id="Fill-10" fill="#00266b" fill-rule="evenodd" stroke="none" d="M 209.079361 108.698257 L 209.079361 104.132919 L 194.444656 104.132919 L 194.444656 97.742767 L 207.196213 97.742767 L 207.196213 93.20697 L 194.444656 93.20697 L 194.444656 88.300308 L 209.079361 88.30687 L 209.079361 83.738251 L 188.936508 83.738251 L 188.936508 108.698257 L 209.079361 108.698257"/>
                        <path id="Fill-11" fill="#00266b" fill-rule="evenodd" stroke="none" d="M 164.728287 88.300308 C 164.728287 88.300308 172.760437 88.300308 173.815399 88.300308 C 176.043625 88.300308 177.466675 90.328613 177.466675 92.212509 L 177.466675 108.698257 L 182.941956 108.698257 L 182.941956 91.513435 C 182.941956 87.263184 179.911819 83.738251 175.051117 83.738251 C 171.652893 83.738251 167.860291 83.738251 167.860291 83.738251 L 164.728287 87.896622 L 164.728287 83.738251 L 159.246414 83.738251 L 159.246414 108.698257 L 164.728287 108.698257 L 164.728287 88.300308"/>
                        <path id="Fill-12" fill="#00266b" fill-rule="evenodd" stroke="none" d="M 10.020372 67.350975 C 12.458942 67.350975 17.043587 67.350975 17.043587 67.350975 C 18.657249 67.350975 19.745075 68.279793 19.745075 70.068512 C 19.745075 71.857224 18.657249 72.786049 17.043587 72.786049 C 17.043587 72.786049 4.318324 72.786049 1.932337 72.786049 L 1.932337 77.476105 C 1.932337 77.476105 14.085752 77.476105 16.51775 77.476105 C 22.177074 77.476105 24.96401 73.744415 24.96401 69.956924 C 24.96401 66.169434 22.177074 62.477127 16.51775 62.477127 C 14.085752 62.477127 9.451811 62.486969 9.451811 62.486969 C 7.880872 62.486969 6.825911 61.584412 6.825911 59.848206 C 6.825911 58.105438 7.880872 57.202873 9.451811 57.202873 C 9.451811 57.202873 22.28224 57.202873 24.592638 57.202873 L 24.592638 52.512825 C 24.592638 52.512825 12.458942 52.512825 10.020372 52.512825 C 4.416918 52.512825 1.656273 55.811287 1.656273 59.946671 C 1.656273 64.078766 4.416918 67.350975 10.020372 67.350975"/>
                        <path id="Fill-13" fill="#00266b" fill-rule="evenodd" stroke="none" d="M 85.100075 77.466263 C 89.201599 77.466263 96.257683 77.466263 96.257683 77.466263 L 96.257683 61.180717 L 90.772545 61.180717 L 90.772545 72.648201 C 85.008049 72.648201 84.400055 72.648201 84.350754 72.648201 C 79.710236 72.648201 76.601227 69.973335 76.601227 64.856613 C 76.601227 59.713638 79.710236 57.068306 84.350754 57.068306 C 84.350754 57.068306 95.636543 57.068306 96.257683 57.068306 L 96.257683 52.509537 C 96.257683 52.509537 89.201599 52.509537 85.100075 52.509537 C 75.69088 52.509537 71.050362 59.25087 71.050362 65.014153 C 71.050362 70.777435 75.69088 77.466263 85.100075 77.466263"/>
                        <path id="Fill-14" fill="#00266b" fill-rule="evenodd" stroke="none" d="M 30.574036 77.469543 L 36.055889 77.469543 L 36.055889 52.509537 L 30.574036 52.509537 Z"/>
                        <path id="Fill-15" fill="#00266b" fill-rule="evenodd" stroke="none" d="M 48.324333 57.068306 C 48.324333 57.068306 56.359783 57.068306 57.414745 57.068306 C 59.642979 57.068306 61.06274 59.09333 61.06274 60.980515 L 61.06274 77.466263 L 66.538025 77.466263 L 66.538025 60.284721 C 66.538025 56.03447 63.507885 52.509537 58.650463 52.509537 C 55.248955 52.509537 51.456352 52.509537 51.456352 52.509537 L 48.324333 56.6679 L 48.324333 52.509537 L 42.84248 52.509537 L 42.84248 77.466263 L 48.324333 77.466263 L 48.324333 57.068306"/>
                        <path id="Fill-16" fill="#00266b" fill-rule="evenodd" stroke="none" d="M 194.014114 57.071594 L 202.62471 57.071594 C 204.639313 57.071594 205.91777 59.008003 205.91777 60.750771 C 205.91777 62.490257 204.639313 64.367592 202.62471 64.367592 L 195.887421 64.367592 L 206.801834 77.466263 L 213.30249 77.466263 L 205.56282 68.161644 L 205.569397 68.161644 C 208.901886 67.081848 211.038101 64.036102 211.038101 60.593231 C 211.038101 56.290459 207.715469 52.509537 202.861328 52.509537 L 188.614426 52.509537 L 188.614426 77.466263 L 194.014114 77.466263 L 194.014114 57.071594"/>
                        <path id="Fill-17" fill="#00266b" fill-rule="evenodd" stroke="none" d="M 237.283966 77.466263 L 237.283966 72.900925 L 222.649246 72.904205 L 222.649246 66.510773 L 235.400803 66.510773 L 235.400803 61.974976 L 222.649246 61.974976 L 222.649246 57.068306 L 237.283966 57.074875 L 237.283966 52.509537 L 217.137817 52.509537 L 217.137817 77.466263 L 237.283966 77.466263"/>
                        <path id="Fill-18" fill="#00266b" fill-rule="evenodd" stroke="none" d="M 108.414391 70.226051 L 120.061676 70.229332 L 123.298866 77.466263 L 129.286835 77.466263 L 117.051262 52.509537 L 111.391937 52.509537 L 99.156364 77.466263 L 105.187057 77.466263 L 108.414391 70.226051 Z M 114.224892 56.812309 L 118.188385 65.834671 L 110.284393 65.851074 L 114.224892 56.812309 Z"/>
                        <path id="Fill-19" fill="#00266b" fill-rule="evenodd" stroke="none" d="M 137.591782 65.352203 L 137.591782 65.339081 L 140.723801 69.494156 C 140.723801 69.494156 143.247818 69.494156 146.327255 69.494156 C 151.04007 69.494156 154.362701 65.572098 154.362701 61.052719 C 154.362701 56.507072 151.04007 52.509537 146.327255 52.509537 L 132.080353 52.509537 L 132.080353 77.466263 L 137.591782 77.466263 L 137.591782 65.352203 Z M 137.591782 57.068306 L 146.093918 57.068306 C 148.10524 57.068306 149.390244 59.165543 149.390244 61.052719 C 149.390244 62.930046 148.10524 64.96492 146.093918 64.96492 C 145.12439 64.96492 137.591782 64.96492 137.591782 64.96492 L 137.591782 57.068306 Z"/>
                        <path id="Fill-20" fill="#00266b" fill-rule="evenodd" stroke="none" d="M 170.929871 78.509949 C 178.413193 78.509949 184.499756 72.428307 184.499756 64.955078 C 184.499756 57.452309 178.413193 51.373947 170.929871 51.373947 C 163.420242 51.373947 157.366547 57.452309 157.366547 64.955078 C 157.366547 72.428307 163.420242 78.509949 170.929871 78.509949 Z M 170.929871 56.411896 C 175.626236 56.411896 179.455002 60.235489 179.455002 64.955078 C 179.455002 69.645126 175.626236 73.462151 170.929871 73.462151 C 166.203903 73.462151 162.378433 69.645126 162.378433 64.955078 C 162.378433 60.235489 166.203903 56.411896 170.929871 56.411896 Z"/>
                    </g>
                </g>
            </g>
        </g>
    </g>
</svg>
