<?xml version="1.0" encoding="UTF-8"?>
<!-- Generated by Pixelmator Pro 3.3.6 -->
<svg width="1354" height="250" viewBox="0 0 1354 250" xmlns="http://www.w3.org/2000/svg">
    <path id="path1" fill="#0033a0" fill-rule="evenodd" stroke="none" d="M 1104 250 L 1104 242.816406 C 1124.545044 232.955307 1136.84375 223.515625 1136.84375 223.515625 L 1154.314453 248.451172 C 1154.314453 248.451172 1167.732178 239.998352 1181.289063 228.728516 L 1160.464844 204.919922 C 1168.431152 197.876282 1175.69873 190.409882 1182.267578 182.802734 C 1182.267578 182.802734 1203.930664 202.24408 1206.306641 204.498047 C 1213.154907 196.750031 1219.442871 188.579575 1225.033203 179.986328 C 1213.852295 170.970459 1199.177979 160.826416 1198.898438 160.685547 C 1198.898438 160.685547 1207.704102 146.59935 1211.337891 137.865234 C 1211.337891 137.865234 1225.733398 145.613297 1239.150391 154.488281 C 1242.364868 147.022018 1245.160645 139.273651 1247.117188 131.384766 C 1238.312378 126.031593 1218.605469 117.15625 1218.605469 117.15625 C 1220.282593 110.535217 1221.259521 104.054123 1221.539063 97.714844 C 1221.539063 97.714844 1235.93457 102.22345 1250.330078 109.548828 C 1250.469849 103.350418 1250.190308 97.43425 1249.072266 91.517578 C 1236.773315 85.600922 1220.5625 81.65625 1220.5625 81.65625 C 1219.723877 76.725677 1218.325684 71.935425 1216.369141 67.568359 C 1216.369141 67.568359 1231.183838 70.38707 1244.181641 75.740234 C 1240.967163 68.414856 1236.914063 64.328125 1236.914063 64.328125 C 1228.528442 59.679321 1209.519531 56.158203 1209.519531 56.158203 C 1207.562866 53.481613 1205.1875 51.085999 1202.671875 48.832031 C 1208.681519 49.677277 1218.044922 51.791016 1218.044922 51.791016 C 1207.842285 46.719589 1196.243286 43.761719 1196.103516 43.761719 C 1196.103516 43.761719 1193.867554 42.211456 1191.072266 40.802734 C 1191.072266 40.802734 1219.723633 46.719421 1235.376953 58.552734 C 1236.774658 59.679733 1238.170654 60.94696 1239.568359 62.214844 C 1241.245483 63.764435 1242.503906 65.455994 1243.761719 67.146484 C 1274.788696 109.971863 1247.953979 192.523849 1171.923828 250 L 1104 250 Z M 1238.841797 250 L 1200.035156 249.859375 C 1198.488525 248.030991 1194.693359 243.810608 1194.271484 243.388672 C 1203.27002 235.231247 1211.565796 226.229858 1219.298828 216.806641 L 1238.138672 235.654297 C 1245.449951 227.215591 1252.34082 218.214233 1258.386719 208.791016 C 1258.386719 208.791016 1248.402588 199.366547 1238.138672 190.224609 C 1246.574707 176.582031 1251.777344 162.939453 1251.777344 162.939453 C 1252.620972 163.502029 1262.884644 171.098206 1273.429688 180.943359 C 1278.631958 169.832397 1281.726563 155.626953 1281.726563 155.626953 C 1270.759644 145.641144 1259.511719 138.466797 1259.511719 138.466797 C 1261.198975 130.871933 1262.181763 123.137833 1262.462891 115.402344 C 1262.462891 115.402344 1274.41394 122.57489 1284.677734 131.576172 C 1284.677734 124.825218 1284.116821 118.213837 1282.710938 111.603516 C 1272.447021 102.742859 1261.056641 96.835938 1261.056641 96.835938 C 1261.056641 96.835938 1259.932861 89.382141 1256.277344 80.380859 C 1256.417847 80.380859 1256.417969 80.380859 1256.417969 80.380859 C 1257.120972 80.802811 1262.605103 83.475555 1272.166016 90.367188 C 1264.573486 80.662659 1251.777344 71.097656 1251.777344 71.097656 C 1250.511963 68.987991 1249.107178 66.879181 1247.560547 64.910156 C 1258.105591 72.083069 1267.665527 80.522095 1276.242188 90.085938 C 1279.335449 94.024017 1282.287476 99.087067 1284.537109 104.853516 C 1285.099487 106.54129 1285.662109 108.087646 1286.083984 109.634766 C 1293.114014 133.263168 1288.75647 159.846481 1280.882813 181.646484 C 1271.743774 206.68132 1256.557495 230.028397 1238.841797 250 Z M 1272.316406 250 C 1275.550171 245.358734 1278.502441 240.998749 1281.455078 235.935547 C 1279.205444 232.560074 1268.941406 220.605469 1268.941406 220.605469 C 1274.565552 211.463562 1279.627563 201.477951 1283.564453 191.632813 C 1283.564453 191.632813 1290.454102 199.227432 1295.796875 206.962891 C 1301.139771 194.304871 1303.529297 181.224609 1303.529297 181.224609 C 1299.873657 175.176895 1291.859375 165.894531 1291.859375 165.894531 C 1293.546631 158.018417 1294.671875 149.719894 1294.8125 141.5625 C 1298.74939 146.344406 1304.232422 153.939453 1304.232422 153.939453 C 1303.248169 139.031097 1295.515503 125.387108 1293.828125 122.574219 C 1293.828125 122.292931 1293.6875 121.871124 1293.6875 121.589844 C 1292.703247 116.385986 1290.874878 110.619537 1289.890625 107.806641 C 1298.467285 120.605331 1304.091797 134.951172 1304.091797 134.951172 C 1307.747437 144.233704 1309.857422 155.908386 1309.857422 168.566406 C 1309.857422 175.317368 1308.591187 210.338181 1281.736328 250 L 1272.316406 250 Z M 1290.025391 250 C 1295.087158 240.576874 1300.570923 229.044281 1304.226563 219.199219 C 1304.36731 219.480515 1306.195557 224.403625 1307.601563 229.466797 C 1310.554199 219.481094 1312.521606 209.071747 1313.646484 198.242188 C 1313.224609 196.835754 1312.521362 194.586121 1312.099609 193.179688 C 1312.099609 193.179688 1313.927856 184.038483 1314.630859 173.630859 C 1315.615112 180.80368 1316.177734 188.116211 1316.177734 195.429688 C 1316.177734 208.087616 1314.770874 220.605804 1311.818359 232.701172 C 1310.412231 238.6082 1308.585571 244.514893 1306.476563 250 L 1290.025391 250 Z M 1313.898438 250 C 1319.92749 232.613586 1323.013672 214.385483 1323.013672 196.017578 C 1323.013672 105.5802 1249.682251 31.96875 1159.525391 31.96875 C 1140.59668 31.96875 1121.947632 35.194336 1104.140625 41.503906 L 1104 41.642578 L 1104 0 L 1354 0 L 1354 250 L 1313.898438 250 Z M 1104 231.068359 L 1104 183.669922 C 1105.537476 182.544754 1107.214478 181.420105 1108.751953 180.294922 C 1110.988281 183.951736 1125.384399 207.017517 1125.664063 207.439453 C 1126.782227 206.736221 1129.857056 204.766006 1133.630859 202.234375 C 1137.823975 199.280807 1142.99585 195.483017 1147.748047 191.544922 C 1147.887817 191.404282 1148.168823 191.123062 1148.308594 190.982422 L 1126.363281 165.666016 C 1128.599609 163.415665 1136.008545 155.962006 1141.878906 148.929688 C 1143.276489 150.054855 1161.585327 164.260727 1168.853516 170.871094 C 1174.584106 164.542023 1179.895508 157.930664 1184.228516 151.460938 C 1174.164917 144.7099 1153.199219 132.755859 1153.199219 132.755859 C 1156.693604 127.270653 1159.768433 121.643402 1162.144531 116.158203 C 1162.144531 116.158203 1186.605469 125.723862 1196.529297 130.646484 C 1199.184937 125.301918 1201.280518 119.955902 1203.097656 114.611328 C 1203.237427 113.767456 1203.517334 113.06459 1203.796875 112.220703 C 1191.496948 107.15744 1169.413696 101.812561 1167.457031 101.390625 C 1168.714966 96.608627 1169.553467 91.967499 1169.972656 87.466797 C 1187.863403 89.154572 1204.21582 93.374863 1207.570313 94.21875 C 1208.129395 89.014832 1208.130493 84.090546 1207.431641 79.449219 C 1187.584106 75.792404 1171.928589 75.792969 1169.832031 75.792969 C 1169.41272 72.27681 1168.574463 68.900879 1167.316406 65.666016 C 1167.316406 65.666016 1185.067749 64.118805 1203.517578 66.228516 C 1202.539185 64.25946 1201.421997 62.150665 1200.164063 60.322266 C 1199.185669 59.056458 1197.087891 56.384766 1197.087891 56.384766 C 1197.087891 56.384766 1181.432861 55.259369 1163.402344 57.931641 C 1161.725098 55.400009 1159.769287 53.289337 1157.8125 51.601563 C 1158.231812 51.460922 1171.928711 48.367188 1188.421875 48.367188 C 1183.949097 45.272964 1179.197266 43.164063 1179.197266 43.164063 C 1166.338257 43.445343 1153.05957 46.960907 1151.941406 47.242188 C 1148.307373 45.132507 1145.513062 44.289093 1145.09375 44.148438 C 1146.211914 43.867142 1155.995483 40.912231 1163.263672 40.068359 C 1153.479614 38.66188 1139.922241 41.755783 1138.384766 42.177734 C 1136.148438 41.755783 1133.211792 41.334015 1131.115234 41.193359 C 1131.115234 41.193359 1138.383179 39.084198 1148.027344 37.677734 C 1156.833008 36.552551 1186.185547 32.8965 1205.054688 58.353516 C 1222.805664 82.544678 1216.376953 119.957428 1192.056641 155.822266 C 1185.766968 165.526855 1178.079102 174.949768 1169.273438 184.091797 C 1161.865601 191.827347 1154.317749 198.436615 1147.189453 204.203125 C 1136.007813 213.204498 1123.987427 220.940475 1111.6875 227.128906 C 1109.171631 228.53537 1106.515869 229.802551 1104 231.068359 Z M 1104 172.632813 L 1104 161.662109 C 1107.745972 159.130463 1111.630981 156.316879 1115.376953 153.222656 L 1104 139.720703 L 1104 121.71875 C 1109.272095 125.375572 1117.874146 131.563828 1123.701172 135.642578 C 1125.504761 137.049042 1127.584961 138.595459 1129.666016 140.142578 C 1129.666016 140.142578 1137.019653 132.407104 1140.626953 126.78125 C 1132.302612 121.999268 1110.244141 112.294922 1110.244141 112.294922 C 1112.186523 109.341339 1113.71228 106.246552 1114.960938 103.152344 C 1119.678101 104.277512 1137.713013 108.638123 1149.505859 112.294922 C 1151.586914 108.075531 1153.391846 103.856125 1154.779297 99.496094 C 1137.020508 96.26123 1117.457031 95.558594 1117.457031 95.558594 C 1118.428223 91.901794 1118.568359 87.962891 1118.568359 87.962891 C 1119.678223 87.822235 1146.455444 86.415924 1157.693359 86.978516 C 1158.109619 83.462341 1158.248169 79.94577 1157.970703 76.851563 C 1138.963257 77.414139 1118.429688 82.054688 1118.429688 82.054688 C 1118.429688 82.054688 1118.150879 79.805176 1117.179688 76.710938 C 1139.100586 69.678619 1156.027344 67.708984 1156.027344 67.708984 C 1155.056152 65.177338 1153.946045 62.92804 1152.419922 60.818359 C 1152.419922 60.818359 1133.412964 64.756622 1115.654297 72.492188 C 1115.654297 72.492188 1115.515625 72.632813 1115.376953 72.632813 C 1114.683228 71.226349 1113.850098 70.099792 1112.878906 68.974609 C 1112.878906 68.974609 1129.667236 60.114044 1147.009766 55.191406 C 1145.206055 53.784943 1143.124146 52.519699 1140.904297 51.535156 C 1124.949219 57.020386 1110.382813 66.162094 1110.244141 66.302734 C 1110.105469 66.162094 1108.717529 65.037277 1107.191406 64.052734 C 1107.88501 63.490143 1118.984863 55.473648 1133.96875 49.003906 C 1131.748779 48.58197 1129.389893 48.160187 1127.03125 48.019531 C 1117.041992 52.379578 1104.416016 62.505859 1104.416016 62.505859 L 1104.277344 62.365234 L 1104.277344 58.287109 C 1108.717041 54.63031 1114.405762 50.691833 1119.400391 47.878906 C 1116.209229 48.019562 1112.878662 48.58194 1109.410156 49.285156 C 1107.606567 50.410355 1105.803467 51.675568 1104.138672 53.082031 L 1104.138672 47.878906 C 1105.248535 47.45697 1107.051392 46.753983 1109.6875 46.191406 C 1111.074951 45.910095 1112.462158 45.628937 1113.710938 45.347656 C 1114.127075 45.206985 1114.68335 45.205093 1115.099609 45.064453 C 1132.303345 42.532837 1147.147949 46.049194 1156.027344 56.457031 C 1175.450928 79.101135 1159.357178 125.656815 1119.955078 160.255859 C 1114.960449 164.756561 1109.826782 168.694748 1104.416016 172.351563 C 1104.277222 172.492203 1104.138672 172.492157 1104 172.632813 Z M 1104 109.373047 L 1104 68.164063 C 1104.920776 68.726654 1105.710815 69.429565 1106.5 70.132813 C 1114.918945 78.149673 1113.471191 94.886429 1104 109.373047 Z"/>
    <g id="g1">
        <path id="path2" fill="#0033a0" stroke="none" d="M 998.482361 79.192978 C 992.295776 73.707748 984.562683 69.488327 975.00177 66.534744 C 965.440735 63.581161 954.052002 62.034042 940.694824 62.034042 L 873.065063 62.034042 L 873.065063 187.209854 L 940.694824 187.209854 C 964.737793 187.209854 983.297241 182.00592 996.513855 171.598038 C 1009.730469 161.190155 1016.338867 145.437698 1016.338867 124.621948 C 1016.338867 115.339249 1014.9328 106.759796 1011.980164 99.0242 C 1009.168091 91.28862 1004.668823 84.678223 998.482361 79.192978 M 975.845337 140.233765 C 974.439331 144.453171 972.189697 147.828705 969.096436 150.360352 C 966.003235 152.891998 961.92572 154.720398 957.004639 155.845581 C 952.083557 156.970749 946.037659 157.53334 939.007568 157.53334 L 909.481079 157.53334 L 909.481079 91.42926 L 939.007568 91.42926 C 946.178223 91.42926 952.364807 91.991837 957.285889 93.257675 C 962.206909 94.523499 966.284424 96.492554 969.237061 99.164841 C 972.330322 101.837143 974.439331 105.212662 975.845337 109.432083 C 977.110779 113.651489 977.813782 118.574127 977.813782 124.4813 C 977.954407 130.81041 977.251343 136.014343 975.845337 140.233765"/>
        <path id="path3" fill="#0033a0" stroke="none" d="M 729.590332 135.801559 L 798.06366 135.801559 L 798.06366 111.328979 L 729.730896 111.328979 L 729.730896 90.653885 L 810.999023 90.653885 L 810.296021 62.102524 L 693.31488 62.102524 L 693.31488 187.278351 L 813.529846 187.278351 L 814.23291 159.008301 L 729.590332 159.008301 L 729.590332 135.801559 Z"/>
        <path id="path4" fill="#0033a0" stroke="none" d="M 508.661224 62.083969 L 507.677002 91.619843 L 555.48175 91.619843 L 555.48175 187.259781 L 592.038391 187.259781 L 592.038391 91.619843 L 639.84314 91.619843 L 638.999512 62.083969 L 508.661224 62.083969 Z"/>
        <path id="path5" fill="#0033a0" stroke="none" d="M 415.198517 187.132233 L 452.176941 187.132233 L 452.176941 61.956421 L 415.198517 61.956421 L 415.198517 187.132233 Z"/>
        <path id="path6" fill="#0033a0" stroke="none" d="M 312.409271 124.295647 L 312.69046 137.657104 L 312.409271 137.9384 L 302.848328 128.233765 L 235.078003 61.989044 L 204.989136 61.989044 L 204.989136 187.164841 L 238.030655 187.164841 L 238.030655 121.482712 L 237.749466 107.980606 L 238.311859 107.839951 L 247.872833 117.403946 L 321.548431 187.305496 L 345.450806 187.305496 L 345.450806 62.129684 L 312.409271 62.129684 L 312.409271 124.295647 L 312.409271 124.295647 Z"/>
        <path id="path7" fill="#0033a0" stroke="none" d="M 104.646065 132.624054 C 104.646065 142.047409 101.974609 149.079742 96.631737 153.7211 C 91.288841 158.362457 82.712105 160.612808 70.901512 160.612808 C 58.950317 160.612808 50.232979 158.362457 44.749489 153.7211 C 39.125401 149.079742 36.453953 142.047409 36.453953 132.624054 L 36.453953 62.019272 L 0.037971 62.019272 L 0.037971 132.202118 C 0.037971 151.611389 6.083852 165.957397 18.316267 175.521393 C 30.548662 185.085388 47.983337 189.72673 70.901512 189.72673 C 93.960289 189.72673 111.254364 184.944733 123.064957 175.521393 C 134.875549 166.098038 140.780853 151.611389 140.780853 132.202118 L 140.780853 62.019272 L 104.646065 62.019272 L 104.646065 132.624054 Z"/>
    </g>
</svg>
